{"glyphs":{"0":{"ha":733,"x_min":51,"x_max":682,"o":"m 367 -17 q 238 13 296 -17 q 138 101 179 43 q 74 246 97 160 q 51 444 51 332 q 74 642 51 557 q 138 784 97 726 q 238 870 179 842 q 367 899 296 899 q 496 870 438 899 q 595 784 554 842 q 659 642 636 726 q 682 444 682 557 q 659 246 682 332 q 595 101 636 160 q 496 13 554 43 q 367 -17 438 -17 m 367 142 q 415 155 393 142 q 454 203 438 168 q 480 296 471 238 q 489 444 489 354 q 480 592 489 535 q 454 683 471 650 q 415 728 438 715 q 367 740 393 740 q 319 728 342 740 q 281 683 297 715 q 254 592 264 650 q 244 444 244 535 q 254 296 244 354 q 281 203 264 238 q 319 155 297 168 q 367 142 342 142 z "},"1":{"ha":733,"x_min":97,"x_max":658,"o":"m 97 0 l 97 165 l 289 165 l 289 675 l 124 675 l 124 801 q 246 835 196 815 q 343 882 296 854 l 493 882 l 493 165 l 658 165 l 658 0 l 97 0 z "},"2":{"ha":733,"x_min":42,"x_max":672,"o":"m 51 0 l 51 117 q 206 265 136 196 q 327 394 276 333 q 406 506 378 454 q 435 606 435 558 q 401 705 435 671 q 310 739 368 739 q 224 712 261 739 q 153 649 186 685 l 42 758 q 175 863 107 828 q 338 899 243 899 q 456 878 403 899 q 549 822 510 858 q 608 733 588 785 q 629 618 629 682 q 606 505 629 563 q 542 390 582 447 q 452 274 503 332 q 347 161 401 217 q 422 169 381 165 q 494 172 463 172 l 672 172 l 672 0 l 51 0 z "},"3":{"ha":733,"x_min":31,"x_max":665,"o":"m 338 -17 q 154 17 229 -17 q 31 108 79 51 l 125 238 q 213 174 165 199 q 318 149 261 149 q 422 176 383 149 q 461 253 461 203 q 451 306 461 282 q 414 345 440 329 q 342 370 388 361 q 224 379 296 379 l 224 524 q 323 532 283 524 q 387 556 363 540 q 422 594 411 572 q 432 642 432 615 q 404 713 432 688 q 324 739 376 739 q 238 718 276 739 q 158 661 200 697 l 56 786 q 184 869 117 839 q 333 899 251 899 q 458 883 401 899 q 553 835 514 867 q 615 760 593 804 q 638 657 638 715 q 599 540 638 588 q 490 461 561 492 l 490 456 q 616 380 567 433 q 665 240 665 326 q 639 131 665 179 q 568 51 613 83 q 464 1 524 18 q 338 -17 404 -17 z "},"4":{"ha":733,"x_min":26,"x_max":700,"o":"m 408 0 l 408 211 l 26 211 l 26 351 l 349 882 l 599 882 l 599 367 l 700 367 l 700 211 l 599 211 l 599 0 l 408 0 m 222 367 l 408 367 l 408 510 q 411 609 408 553 q 417 707 414 665 l 411 707 q 376 633 394 671 q 339 558 358 596 l 222 367 z "},"5":{"ha":733,"x_min":32,"x_max":667,"o":"m 343 -17 q 160 19 235 -17 q 32 107 85 54 l 124 236 q 210 174 164 200 q 314 149 257 149 q 422 183 382 149 q 463 286 463 218 q 424 388 463 353 q 324 422 386 422 q 289 420 304 422 q 259 413 274 418 q 228 399 244 407 q 193 378 213 390 l 101 436 l 126 882 l 626 882 l 626 710 l 303 710 l 288 544 q 335 560 313 556 q 386 565 358 565 q 494 549 443 565 q 583 499 544 532 q 644 414 622 465 q 667 292 667 363 q 640 161 667 218 q 569 65 614 104 q 466 4 525 25 q 343 -17 407 -17 z "},"6":{"ha":733,"x_min":57,"x_max":683,"o":"m 390 -17 q 266 8 326 -17 q 159 86 206 33 q 85 222 113 139 q 57 421 57 304 q 87 635 57 544 q 166 783 117 725 q 280 870 215 842 q 414 899 344 899 q 565 867 501 899 q 671 793 629 836 l 564 671 q 503 715 540 696 q 426 733 465 733 q 358 719 390 733 q 302 673 326 706 q 263 588 278 640 q 244 458 247 535 q 283 498 261 481 q 329 527 306 515 q 376 545 353 539 q 421 551 400 551 q 526 535 478 551 q 609 485 574 518 q 664 400 644 451 q 683 279 683 349 q 660 156 683 210 q 597 63 636 101 q 503 3 557 24 q 390 -17 450 -17 m 386 136 q 465 170 432 136 q 497 279 497 204 q 465 378 497 350 q 382 407 432 407 q 312 387 347 407 q 249 319 276 367 q 269 232 256 267 q 301 176 283 197 q 341 145 319 154 q 386 136 363 136 z "},"7":{"ha":733,"x_min":61,"x_max":675,"o":"m 221 0 q 241 202 226 110 q 283 378 256 294 q 352 543 310 463 q 457 710 394 624 l 61 710 l 61 882 l 675 882 l 675 757 q 552 583 599 664 q 480 415 506 501 q 443 228 454 328 q 426 0 432 129 l 221 0 z "},"8":{"ha":733,"x_min":58,"x_max":678,"o":"m 365 -17 q 242 1 299 -17 q 145 50 186 18 q 81 126 104 82 q 58 225 58 171 q 102 357 58 306 q 208 442 146 408 l 208 447 q 124 535 157 486 q 90 656 90 585 q 111 756 90 711 q 169 833 132 801 q 259 882 207 865 q 372 899 311 899 q 482 881 432 899 q 567 833 532 864 q 621 756 601 801 q 640 657 640 711 q 606 544 640 593 q 525 464 571 494 l 525 458 q 633 369 589 424 q 678 228 678 315 q 656 131 678 175 q 592 53 633 86 q 494 2 551 21 q 365 -17 436 -17 m 421 514 q 475 643 475 576 q 447 726 475 694 q 368 757 418 757 q 299 732 328 757 q 269 656 269 707 q 311 571 269 601 q 421 514 353 540 m 369 125 q 454 152 421 125 q 488 235 488 179 q 474 285 488 264 q 436 323 461 306 q 377 356 411 340 q 301 389 343 371 q 253 325 272 361 q 233 249 233 289 q 274 158 233 190 q 369 125 314 125 z "},"9":{"ha":733,"x_min":47,"x_max":675,"o":"m 350 475 q 420 495 385 475 q 482 563 456 515 q 430 706 468 667 q 344 746 392 746 q 267 712 300 746 q 233 603 233 678 q 267 503 233 532 q 350 475 300 475 m 318 -17 q 166 15 231 -17 q 60 89 101 47 l 168 211 q 228 167 190 186 q 304 149 265 149 q 374 163 342 149 q 430 209 406 176 q 469 294 454 242 q 486 424 483 346 q 447 384 469 401 q 401 355 425 367 q 354 337 378 343 q 310 331 331 331 q 205 347 253 331 q 122 397 157 364 q 67 482 88 431 q 47 603 47 533 q 71 726 47 671 q 134 819 94 781 q 227 878 174 858 q 340 899 281 899 q 465 874 404 899 q 572 796 525 849 q 647 660 618 743 q 675 461 675 578 q 645 247 675 338 q 566 99 615 157 q 452 12 517 40 q 318 -17 388 -17 z "}," ":{"ha":278,"x_min":0,"x_max":0,"o":""},"A":{"ha":796,"x_min":-8,"x_max":804,"o":"m 319 458 l 297 375 l 490 375 l 469 458 q 432 603 450 526 q 396 750 414 679 l 390 750 q 356 602 374 678 q 319 458 339 526 m -8 0 l 275 906 l 521 906 l 804 0 l 588 0 l 532 215 l 256 215 l 200 0 l -8 0 z "},"B":{"ha":840,"x_min":107,"x_max":794,"o":"m 107 0 l 107 906 l 417 906 q 548 895 488 906 q 653 858 608 885 q 724 789 699 832 q 750 681 750 746 q 742 619 750 650 q 718 563 733 589 q 681 515 703 536 q 632 485 660 494 l 632 479 q 696 453 667 471 q 747 410 725 436 q 782 348 769 383 q 794 267 794 313 q 767 147 794 197 q 692 65 740 97 q 581 16 644 32 q 443 0 517 0 l 107 0 m 311 543 l 407 543 q 516 572 482 543 q 550 650 550 601 q 515 725 550 703 q 408 747 481 747 l 311 747 l 311 543 m 311 158 l 426 158 q 594 281 594 158 q 553 366 594 340 q 426 392 511 392 l 311 392 l 311 158 z "},"C":{"ha":808,"x_min":64,"x_max":778,"o":"m 485 -17 q 322 13 399 -17 q 188 101 246 43 q 97 247 131 160 q 64 447 64 333 q 99 648 64 560 q 192 797 133 736 q 328 890 250 858 q 492 922 406 922 q 649 887 579 922 q 764 804 718 851 l 656 674 q 583 726 621 706 q 496 746 544 746 q 409 726 450 746 q 338 668 368 706 q 291 576 308 631 q 274 454 274 522 q 333 237 274 314 q 493 160 393 160 q 592 184 549 160 q 669 244 636 208 l 778 117 q 485 -17 664 -17 z "},"D":{"ha":882,"x_min":107,"x_max":817,"o":"m 107 0 l 107 906 l 363 906 q 550 879 467 906 q 693 798 633 853 q 785 658 753 743 q 817 457 817 574 q 785 254 817 340 q 694 112 753 168 q 555 28 636 56 q 374 0 474 0 l 107 0 m 311 165 l 350 165 q 456 181 408 165 q 536 230 503 196 q 588 319 569 264 q 607 457 607 375 q 588 592 607 538 q 536 680 569 647 q 456 726 503 713 q 350 740 408 740 l 311 740 l 311 165 z "},"E":{"ha":761,"x_min":107,"x_max":688,"o":"m 107 0 l 107 906 l 674 906 l 674 733 l 311 733 l 311 551 l 619 551 l 619 381 l 311 381 l 311 172 l 688 172 l 688 0 l 107 0 z "},"F":{"ha":728,"x_min":107,"x_max":678,"o":"m 107 0 l 107 906 l 678 906 l 678 733 l 311 733 l 311 524 l 625 524 l 625 351 l 311 351 l 311 0 l 107 0 z "},"G":{"ha":886,"x_min":64,"x_max":806,"o":"m 507 -17 q 333 13 414 -17 q 192 101 251 43 q 98 247 132 160 q 64 447 64 333 q 99 648 64 560 q 194 797 133 736 q 335 890 254 858 q 506 922 415 922 q 675 886 604 922 q 790 804 746 850 l 683 674 q 610 725 649 704 q 513 746 571 746 q 416 726 460 746 q 340 668 372 706 q 291 576 308 631 q 274 454 274 522 q 337 237 274 314 q 528 160 400 160 q 582 167 556 160 q 625 188 608 174 l 625 343 l 475 343 l 475 510 l 806 510 l 806 93 q 681 15 758 47 q 507 -17 603 -17 z "},"H":{"ha":936,"x_min":107,"x_max":829,"o":"m 107 0 l 107 906 l 311 906 l 311 557 l 624 557 l 624 906 l 829 906 l 829 0 l 624 0 l 624 378 l 311 378 l 311 0 l 107 0 z "},"I":{"ha":418,"x_min":107,"x_max":311,"o":"m 107 0 l 107 906 l 311 906 l 311 0 l 107 0 z "},"J":{"ha":707,"x_min":22,"x_max":604,"o":"m 314 -17 q 140 24 210 -17 q 22 147 69 64 l 161 250 q 219 182 186 204 q 288 160 253 160 q 372 194 343 160 q 400 318 400 228 l 400 906 l 604 906 l 604 301 q 587 178 604 236 q 534 76 569 119 q 444 8 499 33 q 314 -17 389 -17 z "},"K":{"ha":853,"x_min":107,"x_max":861,"o":"m 107 0 l 107 906 l 311 906 l 311 535 l 317 535 l 586 906 l 811 906 l 538 544 l 861 0 l 638 0 l 417 382 l 311 243 l 311 0 l 107 0 z "},"L":{"ha":719,"x_min":107,"x_max":669,"o":"m 107 0 l 107 906 l 311 906 l 311 172 l 669 172 l 669 0 l 107 0 z "},"M":{"ha":1058,"x_min":107,"x_max":951,"o":"m 107 0 l 107 906 l 331 906 l 476 503 q 503 420 490 463 q 529 336 515 378 l 535 336 q 560 420 549 378 q 586 503 572 463 l 729 906 l 951 906 l 951 0 l 765 0 l 765 332 q 768 406 765 365 q 775 487 771 446 q 783 567 779 528 q 792 640 788 607 l 786 640 l 713 425 l 583 79 l 471 79 l 342 425 l 269 640 l 264 640 q 272 567 268 607 q 281 487 276 528 q 288 406 285 446 q 290 332 290 365 l 290 0 l 107 0 z "},"N":{"ha":924,"x_min":107,"x_max":817,"o":"m 107 0 l 107 906 l 317 906 l 553 456 l 642 256 l 647 256 q 631 417 640 328 q 622 586 622 506 l 622 906 l 817 906 l 817 0 l 607 0 l 371 451 l 282 649 l 276 649 q 292 488 283 574 q 301 321 301 401 l 301 0 l 107 0 z "},"O":{"ha":950,"x_min":64,"x_max":886,"o":"m 475 -17 q 308 16 383 -17 q 178 110 232 49 q 94 258 124 171 q 64 457 64 346 q 94 655 64 568 q 178 801 124 742 q 308 891 232 860 q 475 922 383 922 q 642 891 567 922 q 772 800 718 860 q 856 653 826 740 q 886 457 886 567 q 856 258 886 346 q 772 110 826 171 q 642 16 718 49 q 475 -17 567 -17 m 475 160 q 622 240 568 160 q 676 457 676 319 q 622 669 676 593 q 475 746 568 746 q 328 669 382 746 q 274 457 274 593 q 328 240 274 319 q 475 160 382 160 z "},"P":{"ha":828,"x_min":107,"x_max":778,"o":"m 107 0 l 107 906 l 418 906 q 558 891 493 906 q 672 842 624 876 q 749 752 721 808 q 778 614 778 696 q 749 476 778 535 q 672 381 721 418 q 560 325 624 343 q 424 307 496 307 l 311 307 l 311 0 l 107 0 m 311 469 l 411 469 q 578 614 578 469 q 533 714 578 685 q 406 743 489 743 l 311 743 l 311 469 z "},"Q":{"ha":950,"x_min":64,"x_max":933,"o":"m 475 150 q 622 231 568 150 q 676 457 676 311 q 622 669 676 593 q 475 746 568 746 q 328 669 382 746 q 274 457 274 593 q 328 231 274 311 q 475 150 382 150 m 774 -253 q 640 -234 701 -253 q 530 -183 579 -215 q 443 -105 481 -150 q 382 -7 406 -60 q 251 47 310 8 q 150 144 192 85 q 86 283 108 204 q 64 457 64 361 q 94 655 64 568 q 178 801 124 742 q 308 891 232 860 q 475 922 383 922 q 642 891 567 922 q 772 800 718 860 q 856 653 826 740 q 886 457 886 567 q 808 156 886 274 q 599 0 731 38 q 685 -69 631 -49 q 797 -89 739 -89 q 852 -85 826 -89 q 897 -74 878 -81 l 933 -222 q 867 -244 908 -235 q 774 -253 826 -253 z "},"R":{"ha":851,"x_min":107,"x_max":826,"o":"m 107 0 l 107 906 l 433 906 q 569 892 506 906 q 679 845 632 878 q 754 758 726 813 q 782 624 782 704 q 738 459 782 524 q 621 363 694 394 l 826 0 l 597 0 l 424 326 l 311 326 l 311 0 l 107 0 m 311 489 l 417 489 q 540 523 497 489 q 582 624 582 557 q 540 717 582 690 q 417 743 497 743 l 311 743 l 311 489 z "},"S":{"ha":772,"x_min":49,"x_max":725,"o":"m 383 -17 q 206 16 294 -17 q 49 114 118 49 l 165 254 q 273 186 214 213 q 389 160 332 160 q 484 183 453 160 q 515 247 515 207 q 506 283 515 268 q 480 310 497 299 q 438 333 463 322 q 385 356 414 343 l 267 406 q 199 442 232 419 q 141 494 167 464 q 100 563 115 524 q 85 653 85 603 q 108 758 85 708 q 175 844 132 807 q 277 901 218 881 q 407 922 336 922 q 563 892 486 922 q 699 803 640 861 l 594 674 q 506 727 550 708 q 407 746 461 746 q 323 724 354 746 q 292 664 292 703 q 302 628 292 643 q 331 602 313 614 q 375 580 350 590 q 429 557 400 569 l 546 510 q 677 418 629 476 q 725 264 725 360 q 702 156 725 207 q 635 67 679 106 q 528 6 592 29 q 383 -17 464 -17 z "},"T":{"ha":772,"x_min":35,"x_max":738,"o":"m 283 0 l 283 733 l 35 733 l 35 906 l 738 906 l 738 733 l 489 733 l 489 0 l 283 0 z "},"U":{"ha":924,"x_min":101,"x_max":821,"o":"m 464 -17 q 194 88 288 -17 q 101 419 101 192 l 101 906 l 307 906 l 307 399 q 347 213 307 265 q 464 160 388 160 q 582 213 540 160 q 624 399 624 265 l 624 906 l 821 906 l 821 419 q 730 88 821 192 q 464 -17 639 -17 z "},"V":{"ha":772,"x_min":-10,"x_max":782,"o":"m 264 0 l -10 906 l 207 906 l 315 483 q 352 338 336 408 q 389 193 368 268 l 394 193 q 431 338 414 268 q 467 483 447 408 l 574 906 l 782 906 l 510 0 l 264 0 z "},"W":{"ha":1129,"x_min":19,"x_max":1111,"o":"m 188 0 l 19 906 l 229 906 l 292 482 q 310 340 300 411 q 328 196 319 268 l 333 196 q 360 340 347 268 q 388 482 374 411 l 485 906 l 658 906 l 756 482 q 783 341 769 413 q 810 196 796 269 l 815 196 q 834 340 825 269 q 853 482 843 411 l 915 906 l 1111 906 l 950 0 l 693 0 l 604 411 q 584 517 593 464 q 568 621 575 571 l 563 621 q 545 517 554 571 q 525 411 536 464 l 440 0 l 188 0 z "},"X":{"ha":788,"x_min":15,"x_max":772,"o":"m 15 0 l 267 465 l 31 906 l 258 906 l 338 735 q 368 667 353 703 q 403 589 383 632 l 408 589 q 438 667 424 632 q 467 735 453 703 l 539 906 l 757 906 l 522 456 l 772 0 l 544 0 l 454 185 q 422 256 438 221 q 386 333 406 292 l 381 333 q 350 256 365 292 q 319 185 335 221 l 235 0 l 15 0 z "},"Y":{"ha":729,"x_min":-11,"x_max":740,"o":"m 263 0 l 263 322 l -11 906 l 208 906 l 289 697 q 326 598 308 646 q 363 497 343 550 l 368 497 q 406 598 388 550 q 444 697 425 646 l 526 906 l 740 906 l 467 322 l 467 0 l 263 0 z "},"Z":{"ha":751,"x_min":50,"x_max":706,"o":"m 50 0 l 50 124 l 450 733 l 88 733 l 88 906 l 701 906 l 701 782 l 301 172 l 706 172 l 706 0 l 50 0 z "},"a":{"ha":732,"x_min":58,"x_max":650,"o":"m 264 -17 q 178 -1 217 -17 q 114 44 140 15 q 73 110 88 72 q 58 192 58 147 q 150 361 58 300 q 446 443 242 422 q 419 516 443 489 q 338 543 394 543 q 249 526 293 543 q 156 481 206 510 l 82 615 q 222 681 149 656 q 376 706 294 706 q 580 630 510 706 q 650 394 650 554 l 650 0 l 483 0 l 469 71 l 464 71 q 371 8 419 32 q 264 -17 322 -17 m 333 142 q 393 157 368 142 q 446 200 418 172 l 446 321 q 296 276 338 306 q 254 207 254 247 q 276 158 254 174 q 333 142 297 142 z "},"b":{"ha":796,"x_min":90,"x_max":742,"o":"m 451 -17 q 359 6 406 -17 q 272 74 313 29 l 267 74 l 250 0 l 90 0 l 90 974 l 294 974 l 294 735 l 289 629 q 376 685 329 665 q 471 706 422 706 q 583 681 533 706 q 669 610 633 656 q 723 501 704 565 q 742 357 742 436 q 717 199 742 268 q 652 81 693 129 q 559 8 611 33 q 451 -17 507 -17 m 404 150 q 494 198 457 150 q 532 353 532 246 q 413 539 532 539 q 294 476 351 539 l 294 194 q 350 160 322 169 q 404 150 378 150 z "},"c":{"ha":649,"x_min":50,"x_max":618,"o":"m 390 -17 q 256 8 318 -17 q 149 78 194 32 q 76 191 103 124 q 50 344 50 258 q 79 498 50 431 q 158 611 108 565 q 272 681 207 657 q 408 706 338 706 q 522 685 472 706 q 610 632 571 664 l 514 500 q 421 540 465 540 q 303 488 346 540 q 260 344 260 435 q 303 201 260 254 q 414 149 347 149 q 478 163 447 149 q 538 199 510 178 l 618 65 q 507 2 567 21 q 390 -17 447 -17 z "},"d":{"ha":796,"x_min":54,"x_max":706,"o":"m 336 -17 q 220 8 272 -17 q 131 80 168 33 q 74 193 94 126 q 54 344 54 260 q 78 496 54 429 q 142 609 103 563 q 234 681 182 656 q 340 706 286 706 q 436 686 399 706 q 510 633 474 667 l 501 739 l 501 974 l 706 974 l 706 0 l 539 0 l 525 68 l 519 68 q 435 8 483 32 q 336 -17 386 -17 m 389 150 q 449 164 422 150 q 501 213 476 178 l 501 494 q 444 529 474 519 q 388 539 415 539 q 301 492 339 539 q 264 347 264 446 q 297 197 264 244 q 389 150 329 150 z "},"e":{"ha":719,"x_min":50,"x_max":668,"o":"m 399 -17 q 261 8 325 -17 q 150 78 197 32 q 76 192 103 125 q 50 344 50 258 q 78 495 50 428 q 151 609 106 563 q 254 681 196 656 q 375 706 313 706 q 503 681 449 706 q 595 611 558 656 q 650 506 632 567 q 668 375 668 446 q 665 322 668 347 q 660 285 663 297 l 247 285 q 309 174 261 210 q 426 139 357 139 q 575 185 500 139 l 643 61 q 526 4 590 25 q 399 -17 461 -17 m 246 419 l 494 419 q 468 514 494 478 q 379 550 442 550 q 294 518 331 550 q 246 419 257 486 z "},"f":{"ha":474,"x_min":33,"x_max":517,"o":"m 125 0 l 125 529 l 33 529 l 33 681 l 125 688 l 125 725 q 138 828 125 779 q 182 913 151 876 q 261 969 213 949 q 379 990 310 990 q 458 982 422 990 q 517 965 493 974 l 479 815 q 408 829 440 829 q 350 806 371 829 q 329 731 329 783 l 329 689 l 453 689 l 453 529 l 329 529 l 329 0 l 125 0 z "},"g":{"ha":742,"x_min":47,"x_max":721,"o":"m 336 -293 q 223 -283 275 -293 q 131 -251 171 -272 q 69 -197 92 -231 q 47 -118 47 -164 q 146 21 47 -35 l 146 26 q 100 72 118 44 q 82 143 82 100 q 104 215 82 181 q 160 272 126 249 l 160 278 q 95 349 124 303 q 67 457 67 396 q 90 566 67 519 q 153 644 114 613 q 244 690 193 675 q 351 706 296 706 q 458 689 413 706 l 710 689 l 710 540 l 600 540 q 616 501 610 525 q 622 450 622 478 q 601 347 622 390 q 544 274 581 303 q 458 232 507 246 q 351 218 408 218 q 268 232 311 218 q 249 210 254 221 q 243 181 243 199 q 266 142 243 154 q 347 129 289 129 l 458 129 q 653 88 586 129 q 721 -46 721 47 q 694 -145 721 -100 q 617 -223 667 -190 q 496 -274 567 -256 q 336 -293 425 -293 m 351 342 q 419 370 392 342 q 446 457 446 399 q 419 540 446 511 q 351 568 392 568 q 284 540 311 568 q 257 457 257 513 q 284 370 257 399 q 351 342 311 342 m 368 -165 q 482 -141 438 -165 q 526 -81 526 -117 q 499 -37 526 -49 q 421 -26 472 -26 l 350 -26 q 292 -24 314 -26 q 253 -18 269 -22 q 215 -86 215 -51 q 257 -145 215 -125 q 368 -165 299 -165 z "},"h":{"ha":793,"x_min":90,"x_max":711,"o":"m 90 0 l 90 974 l 294 974 l 294 735 l 285 611 q 375 676 324 646 q 497 706 426 706 q 660 632 610 706 q 711 428 711 558 l 711 0 l 507 0 l 507 401 q 487 504 507 476 q 422 532 467 532 q 356 515 383 532 q 294 465 328 497 l 294 0 l 90 0 z "},"i":{"ha":383,"x_min":74,"x_max":310,"o":"m 90 0 l 90 689 l 294 689 l 294 0 l 90 0 m 192 790 q 107 820 140 790 q 74 897 74 850 q 107 974 74 944 q 192 1003 140 1003 q 277 974 244 1003 q 310 897 310 944 q 277 820 310 850 q 192 790 244 790 z "},"j":{"ha":386,"x_min":-71,"x_max":313,"o":"m 50 -272 q -22 -267 7 -272 q -71 -253 -50 -261 l -35 -103 q -8 -110 -21 -107 q 19 -112 4 -112 q 76 -86 60 -112 q 92 -1 92 -60 l 92 689 l 296 689 l 296 4 q 284 -103 296 -53 q 244 -190 272 -153 q 168 -250 215 -228 q 50 -272 121 -272 m 194 790 q 110 820 143 790 q 76 897 76 850 q 110 974 76 944 q 194 1003 143 1003 q 279 974 246 1003 q 313 897 313 944 q 279 820 313 850 q 194 790 246 790 z "},"k":{"ha":761,"x_min":90,"x_max":753,"o":"m 90 0 l 90 974 l 289 974 l 289 415 l 294 415 l 513 689 l 735 689 l 493 406 l 753 0 l 532 0 l 376 268 l 289 169 l 289 0 l 90 0 z "},"l":{"ha":397,"x_min":90,"x_max":381,"o":"m 278 -17 q 189 0 225 -17 q 131 47 153 17 q 100 119 110 76 q 90 214 90 161 l 90 974 l 294 974 l 294 206 q 306 161 294 174 q 331 149 318 149 q 342 149 338 149 q 356 151 347 149 l 381 0 q 338 -12 364 -7 q 278 -17 313 -17 z "},"m":{"ha":1190,"x_min":90,"x_max":1107,"o":"m 90 0 l 90 689 l 257 689 l 271 600 l 276 600 q 368 674 319 643 q 485 706 417 706 q 603 676 558 706 q 675 590 649 646 q 772 672 721 638 q 892 706 822 706 q 1055 631 1003 706 q 1107 428 1107 557 l 1107 0 l 903 0 l 903 401 q 883 504 903 476 q 818 532 863 532 q 700 465 767 532 l 700 0 l 496 0 l 496 401 q 476 504 496 476 q 411 532 456 532 q 294 465 358 532 l 294 0 l 90 0 z "},"n":{"ha":794,"x_min":90,"x_max":711,"o":"m 90 0 l 90 689 l 257 689 l 271 601 l 276 601 q 374 674 321 643 q 497 706 426 706 q 660 632 610 706 q 711 428 711 558 l 711 0 l 507 0 l 507 401 q 487 504 507 476 q 422 532 467 532 q 356 515 383 532 q 294 465 328 497 l 294 0 l 90 0 z "},"o":{"ha":771,"x_min":50,"x_max":721,"o":"m 386 -17 q 260 8 321 -17 q 152 78 199 32 q 78 191 106 124 q 50 344 50 258 q 78 498 50 431 q 152 611 106 565 q 260 681 199 657 q 386 706 321 706 q 512 681 451 706 q 619 611 572 657 q 693 498 665 565 q 721 344 721 431 q 693 191 721 258 q 619 78 665 124 q 512 8 572 32 q 386 -17 451 -17 m 386 149 q 481 201 449 149 q 513 344 513 254 q 481 488 513 435 q 386 540 449 540 q 291 488 322 540 q 260 344 260 435 q 291 201 260 254 q 386 149 322 149 z "},"p":{"ha":796,"x_min":90,"x_max":742,"o":"m 90 -256 l 90 689 l 257 689 l 271 621 l 276 621 q 367 681 317 657 q 472 706 418 706 q 585 681 535 706 q 669 610 635 656 q 723 499 704 564 q 742 356 742 435 q 717 198 742 267 q 652 81 693 129 q 559 8 611 33 q 451 -17 507 -17 q 365 2 407 -17 q 288 56 324 21 l 294 -54 l 294 -256 l 90 -256 m 404 150 q 494 198 457 150 q 532 353 532 246 q 413 539 532 539 q 294 476 353 539 l 294 194 q 350 160 322 169 q 404 150 378 150 z "},"q":{"ha":796,"x_min":54,"x_max":706,"o":"m 501 -256 l 501 -46 l 510 60 q 429 5 475 26 q 336 -17 383 -17 q 220 8 272 -17 q 131 80 168 33 q 74 193 94 126 q 54 344 54 260 q 78 496 54 429 q 142 609 103 563 q 234 681 182 656 q 340 706 286 706 q 440 685 397 706 q 524 621 483 665 l 529 621 l 546 689 l 706 689 l 706 -256 l 501 -256 m 389 150 q 449 164 422 150 q 501 213 476 178 l 501 494 q 444 529 474 519 q 388 539 415 539 q 301 492 339 539 q 264 347 264 446 q 297 197 264 244 q 389 150 329 150 z "},"r":{"ha":553,"x_min":90,"x_max":554,"o":"m 90 0 l 90 689 l 257 689 l 271 568 l 276 568 q 367 672 314 639 q 472 706 419 706 q 520 702 501 706 q 554 692 539 699 l 521 515 q 485 524 501 521 q 446 526 468 526 q 365 499 407 526 q 294 400 322 471 l 294 0 l 90 0 z "},"s":{"ha":615,"x_min":29,"x_max":576,"o":"m 293 -17 q 153 10 225 -17 q 29 79 82 36 l 121 207 q 211 153 168 171 q 299 135 254 135 q 365 150 344 135 q 386 193 386 165 q 374 223 386 210 q 342 247 363 236 q 297 267 322 258 q 246 288 272 276 q 182 317 214 300 q 124 358 150 333 q 81 415 97 382 q 64 490 64 447 q 83 578 64 538 q 136 646 101 618 q 219 690 171 674 q 328 706 268 706 q 467 678 407 706 q 571 618 526 651 l 479 496 q 406 539 442 524 q 333 554 369 554 q 256 500 256 554 q 267 472 256 483 q 297 450 278 460 q 340 431 315 440 q 390 413 364 422 q 456 384 424 400 q 516 344 489 368 q 560 287 543 321 q 576 206 576 253 q 558 118 576 158 q 504 48 540 78 q 415 1 468 18 q 293 -17 363 -17 z "},"t":{"ha":532,"x_min":24,"x_max":508,"o":"m 356 -17 q 247 3 292 -17 q 173 57 201 22 q 131 141 144 92 q 118 250 118 190 l 118 529 l 24 529 l 24 681 l 129 689 l 153 872 l 322 872 l 322 689 l 488 689 l 488 529 l 322 529 l 322 253 q 347 169 322 194 q 411 143 371 143 q 445 147 428 143 q 476 157 463 151 l 508 8 q 443 -8 481 0 q 356 -17 406 -17 z "},"u":{"ha":789,"x_min":83,"x_max":700,"o":"m 297 -17 q 134 57 185 -17 q 83 261 83 131 l 83 689 l 288 689 l 288 288 q 308 185 288 213 q 374 157 329 157 q 439 175 413 157 q 496 233 465 193 l 496 689 l 700 689 l 700 0 l 533 0 l 518 96 l 514 96 q 419 13 469 43 q 297 -17 368 -17 z "},"v":{"ha":726,"x_min":17,"x_max":710,"o":"m 249 0 l 17 689 l 222 689 l 311 364 q 338 259 325 313 q 365 151 351 206 l 371 151 q 397 259 383 206 q 424 364 410 313 l 514 689 l 710 689 l 485 0 l 249 0 z "},"w":{"ha":1078,"x_min":33,"x_max":1044,"o":"m 206 0 l 33 689 l 236 689 l 303 369 q 318 268 311 318 q 333 165 325 218 l 339 165 q 358 269 349 218 q 379 369 367 321 l 456 689 l 632 689 l 710 369 q 732 268 722 318 q 753 165 742 218 l 758 165 q 774 268 768 218 q 790 369 781 318 l 856 689 l 1044 689 l 879 0 l 640 0 l 578 275 q 558 372 567 324 q 540 476 550 421 l 535 476 q 517 372 525 421 q 500 275 510 324 l 439 0 l 206 0 z "},"x":{"ha":714,"x_min":19,"x_max":694,"o":"m 19 0 l 231 358 l 32 689 l 251 689 l 313 578 q 341 519 326 549 q 371 460 356 489 l 376 460 q 400 519 388 489 q 424 578 413 549 l 471 689 l 682 689 l 482 335 l 694 0 l 475 0 l 408 114 q 376 174 392 143 q 343 233 360 204 l 338 233 q 311 174 325 204 q 285 114 297 144 l 231 0 l 19 0 z "},"y":{"ha":724,"x_min":17,"x_max":707,"o":"m 167 -269 q 113 -266 135 -269 q 69 -256 90 -262 l 106 -100 q 128 -106 115 -103 q 151 -108 140 -108 q 231 -83 203 -108 q 272 -18 258 -58 l 282 18 l 17 689 l 222 689 l 321 393 q 349 297 336 346 q 375 197 361 249 l 381 197 q 403 295 392 246 q 428 393 415 344 l 511 689 l 707 689 l 468 -7 q 416 -122 443 -72 q 353 -203 389 -171 q 273 -253 318 -236 q 167 -269 228 -269 z "},"z":{"ha":639,"x_min":53,"x_max":606,"o":"m 53 0 l 53 110 l 342 529 l 85 529 l 85 689 l 596 689 l 596 581 l 307 160 l 606 160 l 606 0 l 53 0 z "},"À":{"ha":796,"x_min":-8,"x_max":804,"o":"m 319 458 l 297 375 l 490 375 l 469 458 q 432 603 450 526 q 396 750 414 679 l 390 750 q 356 602 374 678 q 319 458 339 526 m -8 0 l 275 906 l 521 906 l 804 0 l 588 0 l 532 215 l 256 215 l 200 0 l -8 0 m 407 944 l 153 1110 l 261 1242 l 499 1047 l 407 944 z "},"Á":{"ha":796,"x_min":-8,"x_max":804,"o":"m 319 458 l 297 375 l 490 375 l 469 458 q 432 603 450 526 q 396 750 414 679 l 390 750 q 356 602 374 678 q 319 458 339 526 m -8 0 l 275 906 l 521 906 l 804 0 l 588 0 l 532 215 l 256 215 l 200 0 l -8 0 m 379 944 l 288 1047 l 525 1242 l 633 1110 l 379 944 z "},"Â":{"ha":796,"x_min":-8,"x_max":804,"o":"m 319 458 l 297 375 l 490 375 l 469 458 q 432 603 450 526 q 396 750 414 679 l 390 750 q 356 602 374 678 q 319 458 339 526 m -8 0 l 275 906 l 521 906 l 804 0 l 588 0 l 532 215 l 256 215 l 200 0 l -8 0 m 157 1006 l 282 1160 l 504 1160 l 629 1006 l 540 951 l 396 1068 l 390 1068 l 246 951 l 157 1006 z "},"Ã":{"ha":796,"x_min":-8,"x_max":804,"o":"m 319 458 l 297 375 l 490 375 l 469 458 q 432 603 450 526 q 396 750 414 679 l 390 750 q 356 602 374 678 q 319 458 339 526 m -8 0 l 275 906 l 521 906 l 804 0 l 588 0 l 532 215 l 256 215 l 200 0 l -8 0 m 492 961 q 426 974 454 961 q 376 1001 399 986 q 336 1029 354 1017 q 301 1042 318 1042 q 268 1026 282 1042 q 250 974 254 1011 l 118 983 q 172 1136 124 1089 q 294 1183 221 1183 q 360 1171 332 1183 q 410 1143 388 1158 q 450 1115 432 1128 q 485 1103 468 1103 q 518 1118 504 1103 q 536 1171 532 1133 l 668 1161 q 614 1009 663 1057 q 492 961 565 961 z "},"Ä":{"ha":796,"x_min":-8,"x_max":804,"o":"m 319 458 l 297 375 l 490 375 l 469 458 q 432 603 450 526 q 396 750 414 679 l 390 750 q 356 602 374 678 q 319 458 339 526 m -8 0 l 275 906 l 521 906 l 804 0 l 588 0 l 532 215 l 256 215 l 200 0 l -8 0 m 239 972 q 169 1000 196 972 q 142 1069 142 1028 q 169 1139 142 1111 q 239 1167 196 1167 q 309 1139 282 1167 q 336 1069 336 1111 q 309 1000 336 1028 q 239 972 282 972 m 547 972 q 477 1000 504 972 q 450 1069 450 1028 q 477 1139 450 1111 q 547 1167 504 1167 q 617 1139 590 1167 q 644 1069 644 1111 q 617 1000 644 1028 q 547 972 590 972 z "},"Ā":{"ha":796,"x_min":-8,"x_max":804,"o":"m 319 458 l 297 375 l 490 375 l 469 458 q 432 603 450 526 q 396 750 414 679 l 390 750 q 356 602 374 678 q 319 458 339 526 m -8 0 l 275 906 l 521 906 l 804 0 l 588 0 l 532 215 l 256 215 l 200 0 l -8 0 m 183 1001 l 183 1132 l 603 1132 l 603 1001 l 183 1001 z "},"Ă":{"ha":796,"x_min":-8,"x_max":804,"o":"m 319 458 l 297 375 l 490 375 l 469 458 q 432 603 450 526 q 396 750 414 679 l 390 750 q 356 602 374 678 q 319 458 339 526 m -8 0 l 275 906 l 521 906 l 804 0 l 588 0 l 532 215 l 256 215 l 200 0 l -8 0 m 393 968 q 233 1017 289 968 q 167 1158 176 1065 l 278 1178 q 317 1110 288 1135 q 393 1086 346 1086 q 469 1110 440 1086 q 508 1178 499 1135 l 619 1158 q 553 1017 610 1065 q 393 968 497 968 z "},"Å":{"ha":796,"x_min":-8,"x_max":804,"o":"m 319 458 l 297 375 l 490 375 l 469 458 q 432 603 450 526 q 396 750 414 679 l 390 750 q 356 602 374 678 q 319 458 339 526 m -8 0 l 275 906 l 521 906 l 804 0 l 588 0 l 532 215 l 256 215 l 200 0 l -8 0 m 393 968 q 278 1006 322 968 q 235 1106 235 1043 q 278 1205 235 1168 q 393 1242 322 1242 q 508 1205 464 1242 q 551 1106 551 1168 q 508 1006 551 1043 q 393 968 464 968 m 393 1044 q 434 1061 417 1044 q 451 1106 451 1078 q 434 1149 451 1133 q 393 1165 417 1165 q 352 1149 369 1165 q 335 1106 335 1133 q 352 1061 335 1078 q 393 1044 369 1044 z "},"Ǎ":{"ha":796,"x_min":-8,"x_max":804,"o":"m 319 458 l 297 375 l 490 375 l 469 458 q 432 603 450 526 q 396 750 414 679 l 390 750 q 356 602 374 678 q 319 458 339 526 m -8 0 l 275 906 l 521 906 l 804 0 l 588 0 l 532 215 l 256 215 l 200 0 l -8 0 m 282 975 l 157 1128 l 246 1183 l 390 1067 l 396 1067 l 540 1183 l 629 1128 l 504 975 l 282 975 z "},"Ạ":{"ha":796,"x_min":-8,"x_max":804,"o":"m 319 458 l 297 375 l 490 375 l 469 458 q 432 603 450 526 q 396 750 414 679 l 390 750 q 356 602 374 678 q 319 458 339 526 m -8 0 l 275 906 l 521 906 l 804 0 l 588 0 l 532 215 l 256 215 l 200 0 l -8 0 m 393 -312 q 312 -283 343 -312 q 281 -206 281 -253 q 312 -128 281 -158 q 393 -99 343 -99 q 474 -128 443 -99 q 506 -206 506 -158 q 474 -283 506 -253 q 393 -312 443 -312 z "},"Ả":{"ha":796,"x_min":-8,"x_max":804,"o":"m 319 458 l 297 375 l 490 375 l 469 458 q 432 603 450 526 q 396 750 414 679 l 390 750 q 356 602 374 678 q 319 458 339 526 m -8 0 l 275 906 l 521 906 l 804 0 l 588 0 l 532 215 l 256 215 l 200 0 l -8 0 m 333 960 l 317 1040 q 361 1054 343 1046 q 379 1082 379 1063 q 354 1113 379 1101 q 268 1129 329 1125 l 292 1231 q 474 1194 421 1228 q 526 1104 526 1160 q 511 1042 526 1068 q 469 999 496 1017 q 408 972 443 982 q 333 960 372 963 z "},"Ấ":{"ha":796,"x_min":-8,"x_max":804,"o":"m 319 458 l 297 375 l 490 375 l 469 458 q 432 603 450 526 q 396 750 414 679 l 390 750 q 356 602 374 678 q 319 458 339 526 m -8 0 l 275 906 l 521 906 l 804 0 l 588 0 l 532 215 l 256 215 l 200 0 l -8 0 m 263 951 l 181 1006 l 306 1144 l 481 1144 l 606 1006 l 524 951 l 396 1051 l 390 1051 l 263 951 m 604 1054 l 543 1124 l 682 1243 l 750 1160 l 604 1054 z "},"Ầ":{"ha":796,"x_min":-8,"x_max":804,"o":"m 319 458 l 297 375 l 490 375 l 469 458 q 432 603 450 526 q 396 750 414 679 l 390 750 q 356 602 374 678 q 319 458 339 526 m -8 0 l 275 906 l 521 906 l 804 0 l 588 0 l 532 215 l 256 215 l 200 0 l -8 0 m 263 951 l 181 1006 l 306 1144 l 481 1144 l 606 1006 l 524 951 l 396 1051 l 390 1051 l 263 951 m 243 1122 l 182 1054 l 42 1161 l 108 1243 l 243 1122 z "},"Ẩ":{"ha":796,"x_min":-8,"x_max":804,"o":"m 319 458 l 297 375 l 490 375 l 469 458 q 432 603 450 526 q 396 750 414 679 l 390 750 q 356 602 374 678 q 319 458 339 526 m -8 0 l 275 906 l 521 906 l 804 0 l 588 0 l 532 215 l 256 215 l 200 0 l -8 0 m 263 951 l 181 1006 l 306 1144 l 481 1144 l 606 1006 l 524 951 l 396 1051 l 390 1051 l 263 951 m 583 1042 l 568 1107 q 600 1119 588 1111 q 613 1144 613 1126 q 594 1175 613 1164 q 522 1190 575 1186 l 540 1274 q 699 1240 654 1271 q 744 1163 744 1208 q 698 1074 744 1101 q 583 1042 651 1047 z "},"Ẫ":{"ha":796,"x_min":-8,"x_max":804,"o":"m 319 458 l 297 375 l 490 375 l 469 458 q 432 603 450 526 q 396 750 414 679 l 390 750 q 356 602 374 678 q 319 458 339 526 m -8 0 l 275 906 l 521 906 l 804 0 l 588 0 l 532 215 l 256 215 l 200 0 l -8 0 m 263 951 l 181 1006 l 306 1133 l 481 1133 l 606 1006 l 524 951 l 396 1039 l 390 1039 l 263 951 m 181 1183 q 218 1300 185 1263 q 310 1338 251 1338 q 361 1328 339 1338 q 401 1307 383 1318 q 434 1286 419 1296 q 464 1276 449 1276 q 508 1331 500 1276 l 606 1318 q 568 1201 601 1239 q 476 1164 535 1164 q 425 1174 447 1164 q 385 1194 403 1183 q 351 1215 367 1206 q 322 1225 336 1225 q 278 1172 286 1225 l 181 1183 z "},"Ậ":{"ha":796,"x_min":-8,"x_max":804,"o":"m 319 458 l 297 375 l 490 375 l 469 458 q 432 603 450 526 q 396 750 414 679 l 390 750 q 356 602 374 678 q 319 458 339 526 m -8 0 l 275 906 l 521 906 l 804 0 l 588 0 l 532 215 l 256 215 l 200 0 l -8 0 m 157 1006 l 282 1160 l 504 1160 l 629 1006 l 540 951 l 396 1068 l 390 1068 l 246 951 l 157 1006 m 393 -312 q 312 -283 343 -312 q 281 -206 281 -253 q 312 -128 281 -158 q 393 -99 343 -99 q 474 -128 443 -99 q 506 -206 506 -158 q 474 -283 506 -253 q 393 -312 443 -312 z "},"Ắ":{"ha":796,"x_min":-8,"x_max":804,"o":"m 319 458 l 297 375 l 490 375 l 469 458 q 432 603 450 526 q 396 750 414 679 l 390 750 q 356 602 374 678 q 319 458 339 526 m -8 0 l 275 906 l 521 906 l 804 0 l 588 0 l 532 215 l 256 215 l 200 0 l -8 0 m 317 1183 l 449 1374 l 576 1294 l 417 1118 l 317 1183 m 393 968 q 233 1017 289 968 q 167 1158 176 1065 l 267 1178 q 310 1102 278 1129 q 393 1075 342 1075 q 476 1102 444 1075 q 519 1178 508 1129 l 619 1158 q 553 1017 610 1065 q 393 968 497 968 z "},"Ằ":{"ha":796,"x_min":-8,"x_max":804,"o":"m 319 458 l 297 375 l 490 375 l 469 458 q 432 603 450 526 q 396 750 414 679 l 390 750 q 356 602 374 678 q 319 458 339 526 m -8 0 l 275 906 l 521 906 l 804 0 l 588 0 l 532 215 l 256 215 l 200 0 l -8 0 m 469 1183 l 369 1118 l 210 1294 l 338 1374 l 469 1183 m 393 968 q 233 1017 289 968 q 167 1158 176 1065 l 267 1178 q 310 1102 278 1129 q 393 1075 342 1075 q 476 1102 444 1075 q 519 1178 508 1129 l 619 1158 q 553 1017 610 1065 q 393 968 497 968 z "},"Ẳ":{"ha":796,"x_min":-8,"x_max":804,"o":"m 319 458 l 297 375 l 490 375 l 469 458 q 432 603 450 526 q 396 750 414 679 l 390 750 q 356 602 374 678 q 319 458 339 526 m -8 0 l 275 906 l 521 906 l 804 0 l 588 0 l 532 215 l 256 215 l 200 0 l -8 0 m 349 1119 l 332 1185 q 365 1197 351 1189 q 378 1222 378 1204 q 358 1253 378 1242 q 286 1268 339 1264 l 306 1353 q 464 1317 419 1349 q 508 1240 508 1286 q 496 1188 508 1210 q 462 1152 483 1167 q 411 1130 440 1138 q 349 1119 382 1122 m 393 968 q 233 1017 289 968 q 167 1158 176 1065 l 267 1178 q 310 1102 278 1129 q 393 1075 342 1075 q 476 1102 444 1075 q 519 1178 508 1129 l 619 1158 q 553 1017 610 1065 q 393 968 497 968 z "},"Ẵ":{"ha":796,"x_min":-8,"x_max":804,"o":"m 319 458 l 297 375 l 490 375 l 469 458 q 432 603 450 526 q 396 750 414 679 l 390 750 q 356 602 374 678 q 319 458 339 526 m -8 0 l 275 906 l 521 906 l 804 0 l 588 0 l 532 215 l 256 215 l 200 0 l -8 0 m 393 975 q 236 1017 289 975 q 175 1131 183 1060 l 274 1147 q 308 1095 282 1117 q 393 1074 335 1074 q 478 1095 451 1074 q 513 1147 504 1117 l 611 1131 q 550 1017 603 1060 q 393 975 497 975 m 181 1194 q 218 1311 185 1274 q 310 1349 251 1349 q 361 1339 339 1349 q 401 1318 383 1329 q 434 1297 419 1307 q 464 1288 449 1288 q 508 1342 500 1288 l 606 1329 q 568 1213 601 1250 q 476 1176 535 1176 q 425 1186 447 1176 q 385 1207 403 1196 q 351 1228 367 1218 q 322 1238 336 1238 q 278 1183 286 1238 l 181 1194 z "},"Ặ":{"ha":796,"x_min":-8,"x_max":804,"o":"m 319 458 l 297 375 l 490 375 l 469 458 q 432 603 450 526 q 396 750 414 679 l 390 750 q 356 602 374 678 q 319 458 339 526 m -8 0 l 275 906 l 521 906 l 804 0 l 588 0 l 532 215 l 256 215 l 200 0 l -8 0 m 393 968 q 233 1017 289 968 q 167 1158 176 1065 l 278 1178 q 317 1110 288 1135 q 393 1086 346 1086 q 469 1110 440 1086 q 508 1178 499 1135 l 619 1158 q 553 1017 610 1065 q 393 968 497 968 m 393 -312 q 312 -283 343 -312 q 281 -206 281 -253 q 312 -128 281 -158 q 393 -99 343 -99 q 474 -128 443 -99 q 506 -206 506 -158 q 474 -283 506 -253 q 393 -312 443 -312 z "},"Ą":{"ha":796,"x_min":-8,"x_max":835,"o":"m 689 -310 q 576 -276 622 -310 q 531 -179 531 -242 q 542 -119 531 -147 q 569 -67 553 -90 q 606 -27 586 -44 q 643 0 626 -10 l 588 0 l 532 215 l 256 215 l 200 0 l -8 0 l 275 906 l 521 906 l 804 0 q 752 -15 775 -3 q 713 -44 729 -26 q 688 -83 697 -62 q 679 -125 679 -104 q 695 -165 679 -151 q 733 -178 711 -178 q 763 -172 749 -178 q 788 -158 776 -165 l 835 -261 q 766 -296 807 -282 q 689 -310 725 -310 m 319 458 l 297 375 l 490 375 l 469 458 q 432 603 450 526 q 396 750 414 679 l 390 750 q 356 602 374 678 q 319 458 339 526 z "},"Æ":{"ha":1174,"x_min":-19,"x_max":1101,"o":"m 421 494 l 363 365 l 536 365 l 536 751 l 531 751 q 476 619 503 685 q 421 494 449 554 m -19 0 l 411 906 l 1088 906 l 1088 733 l 740 733 l 740 551 l 1033 551 l 1033 381 l 740 381 l 740 172 l 1101 172 l 1101 0 l 536 0 l 536 207 l 290 207 l 196 0 l -19 0 z "},"Ǽ":{"ha":1174,"x_min":-19,"x_max":1101,"o":"m 421 494 l 363 365 l 536 365 l 536 751 l 531 751 q 476 619 503 685 q 421 494 449 554 m -19 0 l 411 906 l 1088 906 l 1088 733 l 740 733 l 740 551 l 1033 551 l 1033 381 l 740 381 l 740 172 l 1101 172 l 1101 0 l 536 0 l 536 207 l 290 207 l 196 0 l -19 0 m 731 969 l 639 1072 l 876 1267 l 985 1135 l 731 969 z "},"Ǣ":{"ha":1174,"x_min":-19,"x_max":1101,"o":"m 421 494 l 363 365 l 536 365 l 536 751 l 531 751 q 476 619 503 685 q 421 494 449 554 m -19 0 l 411 906 l 1088 906 l 1088 733 l 740 733 l 740 551 l 1033 551 l 1033 381 l 740 381 l 740 172 l 1101 172 l 1101 0 l 536 0 l 536 207 l 290 207 l 196 0 l -19 0 m 535 1026 l 535 1157 l 954 1157 l 954 1026 l 535 1026 z "},"Ƀ":{"ha":872,"x_min":36,"x_max":828,"o":"m 139 0 l 139 243 l 36 243 l 36 333 l 139 342 l 139 906 l 450 906 q 581 894 521 906 q 687 858 642 883 q 758 790 732 832 q 783 688 783 749 q 747 579 783 631 q 631 508 711 528 l 631 503 q 778 428 728 483 q 828 278 828 374 q 801 153 828 206 q 726 67 774 101 q 613 17 678 33 q 475 0 549 0 l 139 0 m 344 551 l 440 551 q 551 581 515 551 q 588 664 588 611 q 550 736 588 714 q 442 758 513 758 l 344 758 l 344 551 m 344 146 l 458 146 q 587 183 542 146 q 632 293 632 221 q 588 398 632 365 q 458 431 543 431 l 344 431 l 344 342 l 519 342 l 519 243 l 344 243 l 344 146 z "},"Ḇ":{"ha":840,"x_min":107,"x_max":794,"o":"m 107 0 l 107 906 l 417 906 q 548 895 488 906 q 653 858 608 885 q 724 789 699 832 q 750 681 750 746 q 742 619 750 650 q 718 563 733 589 q 681 515 703 536 q 632 485 660 494 l 632 479 q 696 453 667 471 q 747 410 725 436 q 782 348 769 383 q 794 267 794 313 q 767 147 794 197 q 692 65 740 97 q 581 16 644 32 q 443 0 517 0 l 107 0 m 311 543 l 407 543 q 516 572 482 543 q 550 650 550 601 q 515 725 550 703 q 408 747 481 747 l 311 747 l 311 543 m 311 158 l 426 158 q 594 281 594 158 q 553 366 594 340 q 426 392 511 392 l 311 392 l 311 158 m 231 -260 l 231 -131 l 642 -131 l 642 -260 l 231 -260 z "},"Ç":{"ha":808,"x_min":64,"x_max":778,"o":"m 485 -17 q 322 13 399 -17 q 188 101 246 43 q 97 247 131 160 q 64 447 64 333 q 99 648 64 560 q 192 797 133 736 q 328 890 250 858 q 492 922 406 922 q 649 887 579 922 q 764 804 718 851 l 656 674 q 583 726 621 706 q 496 746 544 746 q 409 726 450 746 q 338 668 368 706 q 291 576 308 631 q 274 454 274 522 q 333 237 274 314 q 493 160 393 160 q 592 184 549 160 q 669 244 636 208 l 778 117 q 485 -17 664 -17 m 344 -332 l 329 -250 q 442 -232 411 -246 q 472 -189 472 -218 q 451 -153 472 -168 q 365 -131 429 -139 l 432 6 l 551 6 l 513 -85 q 592 -121 565 -97 q 618 -189 618 -144 q 547 -294 618 -260 q 344 -332 475 -328 z "},"Ć":{"ha":808,"x_min":64,"x_max":778,"o":"m 485 -17 q 322 13 399 -17 q 188 101 246 43 q 97 247 131 160 q 64 447 64 333 q 99 648 64 560 q 192 797 133 736 q 328 890 250 858 q 492 922 406 922 q 649 887 579 922 q 764 804 718 851 l 656 674 q 583 726 621 706 q 496 746 544 746 q 409 726 450 746 q 338 668 368 706 q 291 576 308 631 q 274 454 274 522 q 333 237 274 314 q 493 160 393 160 q 592 184 549 160 q 669 244 636 208 l 778 117 q 485 -17 664 -17 m 463 944 l 371 1047 l 608 1242 l 717 1110 l 463 944 z "},"Ĉ":{"ha":808,"x_min":64,"x_max":778,"o":"m 485 -17 q 322 13 399 -17 q 188 101 246 43 q 97 247 131 160 q 64 447 64 333 q 99 648 64 560 q 192 797 133 736 q 328 890 250 858 q 492 922 406 922 q 649 887 579 922 q 764 804 718 851 l 656 674 q 583 726 621 706 q 496 746 544 746 q 409 726 450 746 q 338 668 368 706 q 291 576 308 631 q 274 454 274 522 q 333 237 274 314 q 493 160 393 160 q 592 184 549 160 q 669 244 636 208 l 778 117 q 485 -17 664 -17 m 240 1006 l 365 1160 l 588 1160 l 713 1006 l 624 951 l 479 1068 l 474 1068 l 329 951 l 240 1006 z "},"Č":{"ha":808,"x_min":64,"x_max":778,"o":"m 485 -17 q 322 13 399 -17 q 188 101 246 43 q 97 247 131 160 q 64 447 64 333 q 99 648 64 560 q 192 797 133 736 q 328 890 250 858 q 492 922 406 922 q 649 887 579 922 q 764 804 718 851 l 656 674 q 583 726 621 706 q 496 746 544 746 q 409 726 450 746 q 338 668 368 706 q 291 576 308 631 q 274 454 274 522 q 333 237 274 314 q 493 160 393 160 q 592 184 549 160 q 669 244 636 208 l 778 117 q 485 -17 664 -17 m 365 975 l 240 1128 l 329 1183 l 474 1067 l 479 1067 l 624 1183 l 713 1128 l 588 975 l 365 975 z "},"Ċ":{"ha":808,"x_min":64,"x_max":778,"o":"m 485 -17 q 322 13 399 -17 q 188 101 246 43 q 97 247 131 160 q 64 447 64 333 q 99 648 64 560 q 192 797 133 736 q 328 890 250 858 q 492 922 406 922 q 649 887 579 922 q 764 804 718 851 l 656 674 q 583 726 621 706 q 496 746 544 746 q 409 726 450 746 q 338 668 368 706 q 291 576 308 631 q 274 454 274 522 q 333 237 274 314 q 493 160 393 160 q 592 184 549 160 q 669 244 636 208 l 778 117 q 485 -17 664 -17 m 476 974 q 392 1003 425 974 q 358 1081 358 1033 q 392 1158 358 1128 q 476 1188 425 1188 q 561 1158 528 1188 q 594 1081 594 1128 q 561 1003 594 1033 q 476 974 528 974 z "},"Ď":{"ha":882,"x_min":107,"x_max":817,"o":"m 107 0 l 107 906 l 363 906 q 550 879 467 906 q 693 798 633 853 q 785 658 753 743 q 817 457 817 574 q 785 254 817 340 q 694 112 753 168 q 555 28 636 56 q 374 0 474 0 l 107 0 m 311 165 l 350 165 q 456 181 408 165 q 536 230 503 196 q 588 319 569 264 q 607 457 607 375 q 588 592 607 538 q 536 680 569 647 q 456 726 503 713 q 350 740 408 740 l 311 740 l 311 165 m 331 975 l 206 1128 l 294 1183 l 439 1067 l 444 1067 l 589 1183 l 678 1128 l 553 975 l 331 975 z "},"Ḍ":{"ha":882,"x_min":107,"x_max":817,"o":"m 107 0 l 107 906 l 363 906 q 550 879 467 906 q 693 798 633 853 q 785 658 753 743 q 817 457 817 574 q 785 254 817 340 q 694 112 753 168 q 555 28 636 56 q 374 0 474 0 l 107 0 m 311 165 l 350 165 q 456 181 408 165 q 536 230 503 196 q 588 319 569 264 q 607 457 607 375 q 588 592 607 538 q 536 680 569 647 q 456 726 503 713 q 350 740 408 740 l 311 740 l 311 165 m 435 -312 q 353 -283 385 -312 q 322 -206 322 -253 q 353 -128 322 -158 q 435 -99 385 -99 q 516 -128 485 -99 q 547 -206 547 -158 q 516 -283 547 -253 q 435 -312 485 -312 z "},"Ḏ":{"ha":882,"x_min":107,"x_max":817,"o":"m 107 0 l 107 906 l 363 906 q 550 879 467 906 q 693 798 633 853 q 785 658 753 743 q 817 457 817 574 q 785 254 817 340 q 694 112 753 168 q 555 28 636 56 q 374 0 474 0 l 107 0 m 311 165 l 350 165 q 456 181 408 165 q 536 230 503 196 q 588 319 569 264 q 607 457 607 375 q 588 592 607 538 q 536 680 569 647 q 456 726 503 713 q 350 740 408 740 l 311 740 l 311 165 m 229 -260 l 229 -131 l 640 -131 l 640 -260 l 229 -260 z "},"Đ":{"ha":917,"x_min":36,"x_max":851,"o":"m 36 418 l 36 510 l 142 517 l 142 906 l 397 906 q 585 879 501 906 q 728 798 668 853 q 819 658 788 743 q 851 457 851 574 q 819 254 851 340 q 729 112 788 168 q 590 28 671 56 q 408 0 508 0 l 142 0 l 142 418 l 36 418 m 346 165 l 385 165 q 490 181 443 165 q 571 230 538 196 q 623 319 604 264 q 642 457 642 375 q 623 592 642 538 q 571 680 604 647 q 490 726 538 713 q 385 740 443 740 l 346 740 l 346 517 l 519 517 l 519 418 l 346 418 l 346 165 z "},"È":{"ha":761,"x_min":107,"x_max":688,"o":"m 107 0 l 107 906 l 674 906 l 674 733 l 311 733 l 311 551 l 619 551 l 619 381 l 311 381 l 311 172 l 688 172 l 688 0 l 107 0 m 414 944 l 160 1110 l 268 1242 l 506 1047 l 414 944 z "},"É":{"ha":761,"x_min":107,"x_max":688,"o":"m 107 0 l 107 906 l 674 906 l 674 733 l 311 733 l 311 551 l 619 551 l 619 381 l 311 381 l 311 172 l 688 172 l 688 0 l 107 0 m 386 944 l 294 1047 l 532 1242 l 640 1110 l 386 944 z "},"Ê":{"ha":761,"x_min":107,"x_max":688,"o":"m 107 0 l 107 906 l 674 906 l 674 733 l 311 733 l 311 551 l 619 551 l 619 381 l 311 381 l 311 172 l 688 172 l 688 0 l 107 0 m 164 1006 l 289 1160 l 511 1160 l 636 1006 l 547 951 l 403 1068 l 397 1068 l 253 951 l 164 1006 z "},"Ě":{"ha":761,"x_min":107,"x_max":688,"o":"m 107 0 l 107 906 l 674 906 l 674 733 l 311 733 l 311 551 l 619 551 l 619 381 l 311 381 l 311 172 l 688 172 l 688 0 l 107 0 m 289 975 l 164 1128 l 253 1183 l 397 1067 l 403 1067 l 547 1183 l 636 1128 l 511 975 l 289 975 z "},"Ë":{"ha":761,"x_min":107,"x_max":688,"o":"m 107 0 l 107 906 l 674 906 l 674 733 l 311 733 l 311 551 l 619 551 l 619 381 l 311 381 l 311 172 l 688 172 l 688 0 l 107 0 m 246 972 q 176 1000 203 972 q 149 1069 149 1028 q 176 1139 149 1111 q 246 1167 203 1167 q 316 1139 289 1167 q 343 1069 343 1111 q 316 1000 343 1028 q 246 972 289 972 m 554 972 q 484 1000 511 972 q 457 1069 457 1028 q 484 1139 457 1111 q 554 1167 511 1167 q 624 1139 597 1167 q 651 1069 651 1111 q 624 1000 651 1028 q 554 972 597 972 z "},"Ē":{"ha":761,"x_min":107,"x_max":688,"o":"m 107 0 l 107 906 l 674 906 l 674 733 l 311 733 l 311 551 l 619 551 l 619 381 l 311 381 l 311 172 l 688 172 l 688 0 l 107 0 m 190 1001 l 190 1132 l 610 1132 l 610 1001 l 190 1001 z "},"Ĕ":{"ha":761,"x_min":107,"x_max":688,"o":"m 107 0 l 107 906 l 674 906 l 674 733 l 311 733 l 311 551 l 619 551 l 619 381 l 311 381 l 311 172 l 688 172 l 688 0 l 107 0 m 400 968 q 240 1017 296 968 q 174 1158 183 1065 l 285 1178 q 324 1110 294 1135 q 400 1086 353 1086 q 476 1110 447 1086 q 515 1178 506 1135 l 626 1158 q 560 1017 617 1065 q 400 968 504 968 z "},"Ė":{"ha":761,"x_min":107,"x_max":688,"o":"m 107 0 l 107 906 l 674 906 l 674 733 l 311 733 l 311 551 l 619 551 l 619 381 l 311 381 l 311 172 l 688 172 l 688 0 l 107 0 m 400 974 q 315 1003 349 974 q 282 1081 282 1033 q 315 1158 282 1128 q 400 1188 349 1188 q 485 1158 451 1188 q 518 1081 518 1128 q 485 1003 518 1033 q 400 974 451 974 z "},"Ẹ":{"ha":761,"x_min":107,"x_max":688,"o":"m 107 0 l 107 906 l 674 906 l 674 733 l 311 733 l 311 551 l 619 551 l 619 381 l 311 381 l 311 172 l 688 172 l 688 0 l 107 0 m 410 -312 q 328 -283 360 -312 q 297 -206 297 -253 q 328 -128 297 -158 q 410 -99 360 -99 q 491 -128 460 -99 q 522 -206 522 -158 q 491 -283 522 -253 q 410 -312 460 -312 z "},"Ẻ":{"ha":761,"x_min":107,"x_max":688,"o":"m 107 0 l 107 906 l 674 906 l 674 733 l 311 733 l 311 551 l 619 551 l 619 381 l 311 381 l 311 172 l 688 172 l 688 0 l 107 0 m 340 960 l 324 1040 q 368 1054 350 1046 q 386 1082 386 1063 q 361 1113 386 1101 q 275 1129 336 1125 l 299 1231 q 481 1194 428 1228 q 533 1104 533 1160 q 518 1042 533 1068 q 476 999 503 1017 q 415 972 450 982 q 340 960 379 963 z "},"Ẽ":{"ha":761,"x_min":107,"x_max":688,"o":"m 107 0 l 107 906 l 674 906 l 674 733 l 311 733 l 311 551 l 619 551 l 619 381 l 311 381 l 311 172 l 688 172 l 688 0 l 107 0 m 499 961 q 433 974 461 961 q 383 1001 406 986 q 343 1029 361 1017 q 308 1042 325 1042 q 275 1026 289 1042 q 257 974 261 1011 l 125 983 q 179 1136 131 1089 q 301 1183 228 1183 q 367 1171 339 1183 q 417 1143 394 1158 q 457 1115 439 1128 q 492 1103 475 1103 q 525 1118 511 1103 q 543 1171 539 1133 l 675 1161 q 621 1009 669 1057 q 499 961 572 961 z "},"Ế":{"ha":761,"x_min":107,"x_max":757,"o":"m 107 0 l 107 906 l 674 906 l 674 733 l 311 733 l 311 551 l 619 551 l 619 381 l 311 381 l 311 172 l 688 172 l 688 0 l 107 0 m 269 951 l 188 1006 l 313 1144 l 488 1144 l 613 1006 l 531 951 l 403 1051 l 397 1051 l 269 951 m 611 1054 l 550 1124 l 689 1243 l 757 1160 l 611 1054 z "},"Ề":{"ha":761,"x_min":49,"x_max":688,"o":"m 107 0 l 107 906 l 674 906 l 674 733 l 311 733 l 311 551 l 619 551 l 619 381 l 311 381 l 311 172 l 688 172 l 688 0 l 107 0 m 269 951 l 188 1006 l 313 1144 l 488 1144 l 613 1006 l 531 951 l 403 1051 l 397 1051 l 269 951 m 250 1122 l 189 1054 l 49 1161 l 115 1243 l 250 1122 z "},"Ể":{"ha":761,"x_min":107,"x_max":751,"o":"m 107 0 l 107 906 l 674 906 l 674 733 l 311 733 l 311 551 l 619 551 l 619 381 l 311 381 l 311 172 l 688 172 l 688 0 l 107 0 m 269 951 l 188 1006 l 313 1144 l 488 1144 l 613 1006 l 531 951 l 403 1051 l 397 1051 l 269 951 m 590 1042 l 575 1107 q 607 1119 594 1111 q 619 1144 619 1126 q 601 1175 619 1164 q 529 1190 582 1186 l 547 1274 q 706 1240 661 1271 q 751 1163 751 1208 q 705 1074 751 1101 q 590 1042 658 1047 z "},"Ễ":{"ha":761,"x_min":107,"x_max":688,"o":"m 107 0 l 107 906 l 674 906 l 674 733 l 311 733 l 311 551 l 619 551 l 619 381 l 311 381 l 311 172 l 688 172 l 688 0 l 107 0 m 269 951 l 188 1006 l 313 1133 l 488 1133 l 613 1006 l 531 951 l 403 1039 l 397 1039 l 269 951 m 188 1183 q 225 1300 192 1263 q 317 1338 258 1338 q 368 1328 346 1338 q 408 1307 390 1318 q 441 1286 426 1296 q 471 1276 456 1276 q 515 1331 507 1276 l 613 1318 q 575 1201 608 1239 q 483 1164 542 1164 q 432 1174 454 1164 q 392 1194 410 1183 q 358 1215 374 1206 q 329 1225 343 1225 q 285 1172 293 1225 l 188 1183 z "},"Ệ":{"ha":761,"x_min":107,"x_max":688,"o":"m 107 0 l 107 906 l 674 906 l 674 733 l 311 733 l 311 551 l 619 551 l 619 381 l 311 381 l 311 172 l 688 172 l 688 0 l 107 0 m 164 1006 l 289 1160 l 511 1160 l 636 1006 l 547 951 l 403 1068 l 397 1068 l 253 951 l 164 1006 m 410 -312 q 328 -283 360 -312 q 297 -206 297 -253 q 328 -128 297 -158 q 410 -99 360 -99 q 491 -128 460 -99 q 522 -206 522 -158 q 491 -283 522 -253 q 410 -312 460 -312 z "},"Ę":{"ha":761,"x_min":107,"x_max":717,"o":"m 571 -310 q 458 -276 504 -310 q 411 -179 411 -242 q 422 -119 411 -147 q 448 -69 432 -92 q 483 -28 464 -46 q 521 0 503 -11 l 107 0 l 107 906 l 674 906 l 674 733 l 311 733 l 311 551 l 619 551 l 619 381 l 311 381 l 311 172 l 688 172 l 688 0 l 681 0 q 635 -12 657 -1 q 597 -41 614 -24 q 571 -81 581 -58 q 561 -125 561 -103 q 579 -165 561 -153 q 619 -178 597 -178 q 646 -172 633 -178 q 669 -158 658 -165 l 717 -261 q 648 -296 689 -282 q 571 -310 607 -310 z "},"Ḗ":{"ha":761,"x_min":107,"x_max":688,"o":"m 107 0 l 107 906 l 674 906 l 674 733 l 311 733 l 311 551 l 619 551 l 619 381 l 311 381 l 311 172 l 688 172 l 688 0 l 107 0 m 357 1158 l 289 1250 l 504 1399 l 588 1286 l 357 1158 m 190 1001 l 190 1132 l 610 1132 l 610 1001 l 190 1001 z "},"Ǵ":{"ha":886,"x_min":64,"x_max":806,"o":"m 507 -17 q 333 13 414 -17 q 192 101 251 43 q 98 247 132 160 q 64 447 64 333 q 99 648 64 560 q 194 797 133 736 q 335 890 254 858 q 506 922 415 922 q 675 886 604 922 q 790 804 746 850 l 683 674 q 610 725 649 704 q 513 746 571 746 q 416 726 460 746 q 340 668 372 706 q 291 576 308 631 q 274 454 274 522 q 337 237 274 314 q 528 160 400 160 q 582 167 556 160 q 625 188 608 174 l 625 343 l 475 343 l 475 510 l 806 510 l 806 93 q 681 15 758 47 q 507 -17 603 -17 m 496 944 l 404 1047 l 642 1242 l 750 1110 l 496 944 z "},"Ĝ":{"ha":886,"x_min":64,"x_max":806,"o":"m 507 -17 q 333 13 414 -17 q 192 101 251 43 q 98 247 132 160 q 64 447 64 333 q 99 648 64 560 q 194 797 133 736 q 335 890 254 858 q 506 922 415 922 q 675 886 604 922 q 790 804 746 850 l 683 674 q 610 725 649 704 q 513 746 571 746 q 416 726 460 746 q 340 668 372 706 q 291 576 308 631 q 274 454 274 522 q 337 237 274 314 q 528 160 400 160 q 582 167 556 160 q 625 188 608 174 l 625 343 l 475 343 l 475 510 l 806 510 l 806 93 q 681 15 758 47 q 507 -17 603 -17 m 274 1006 l 399 1160 l 621 1160 l 746 1006 l 657 951 l 513 1068 l 507 1068 l 363 951 l 274 1006 z "},"Ğ":{"ha":886,"x_min":64,"x_max":806,"o":"m 507 -17 q 333 13 414 -17 q 192 101 251 43 q 98 247 132 160 q 64 447 64 333 q 99 648 64 560 q 194 797 133 736 q 335 890 254 858 q 506 922 415 922 q 675 886 604 922 q 790 804 746 850 l 683 674 q 610 725 649 704 q 513 746 571 746 q 416 726 460 746 q 340 668 372 706 q 291 576 308 631 q 274 454 274 522 q 337 237 274 314 q 528 160 400 160 q 582 167 556 160 q 625 188 608 174 l 625 343 l 475 343 l 475 510 l 806 510 l 806 93 q 681 15 758 47 q 507 -17 603 -17 m 510 968 q 349 1017 406 968 q 283 1158 293 1065 l 394 1178 q 433 1110 404 1135 q 510 1086 463 1086 q 586 1110 557 1086 q 625 1178 615 1135 l 736 1158 q 670 1017 726 1065 q 510 968 614 968 z "},"Ġ":{"ha":886,"x_min":64,"x_max":806,"o":"m 507 -17 q 333 13 414 -17 q 192 101 251 43 q 98 247 132 160 q 64 447 64 333 q 99 648 64 560 q 194 797 133 736 q 335 890 254 858 q 506 922 415 922 q 675 886 604 922 q 790 804 746 850 l 683 674 q 610 725 649 704 q 513 746 571 746 q 416 726 460 746 q 340 668 372 706 q 291 576 308 631 q 274 454 274 522 q 337 237 274 314 q 528 160 400 160 q 582 167 556 160 q 625 188 608 174 l 625 343 l 475 343 l 475 510 l 806 510 l 806 93 q 681 15 758 47 q 507 -17 603 -17 m 510 974 q 425 1003 458 974 q 392 1081 392 1033 q 425 1158 392 1128 q 510 1188 458 1188 q 594 1158 561 1188 q 628 1081 628 1128 q 594 1003 628 1033 q 510 974 561 974 z "},"Ģ":{"ha":886,"x_min":64,"x_max":806,"o":"m 507 -17 q 333 13 414 -17 q 192 101 251 43 q 98 247 132 160 q 64 447 64 333 q 99 648 64 560 q 194 797 133 736 q 335 890 254 858 q 506 922 415 922 q 675 886 604 922 q 790 804 746 850 l 683 674 q 610 725 649 704 q 513 746 571 746 q 416 726 460 746 q 340 668 372 706 q 291 576 308 631 q 274 454 274 522 q 337 237 274 314 q 528 160 400 160 q 582 167 556 160 q 625 188 608 174 l 625 343 l 475 343 l 475 510 l 806 510 l 806 93 q 681 15 758 47 q 507 -17 603 -17 m 363 -332 l 347 -250 q 460 -233 429 -246 q 490 -196 490 -219 q 469 -164 490 -176 q 401 -147 449 -151 l 440 -72 q 594 -110 551 -82 q 636 -189 636 -137 q 565 -294 636 -260 q 363 -332 493 -328 z "},"Ǧ":{"ha":886,"x_min":64,"x_max":806,"o":"m 507 -17 q 333 13 414 -17 q 192 101 251 43 q 98 247 132 160 q 64 447 64 333 q 99 648 64 560 q 194 797 133 736 q 335 890 254 858 q 506 922 415 922 q 675 886 604 922 q 790 804 746 850 l 683 674 q 610 725 649 704 q 513 746 571 746 q 416 726 460 746 q 340 668 372 706 q 291 576 308 631 q 274 454 274 522 q 337 237 274 314 q 528 160 400 160 q 582 167 556 160 q 625 188 608 174 l 625 343 l 475 343 l 475 510 l 806 510 l 806 93 q 681 15 758 47 q 507 -17 603 -17 m 399 975 l 274 1128 l 363 1183 l 507 1067 l 513 1067 l 657 1183 l 746 1128 l 621 975 l 399 975 z "},"Ḡ":{"ha":886,"x_min":64,"x_max":806,"o":"m 507 -17 q 333 13 414 -17 q 192 101 251 43 q 98 247 132 160 q 64 447 64 333 q 99 648 64 560 q 194 797 133 736 q 335 890 254 858 q 506 922 415 922 q 675 886 604 922 q 790 804 746 850 l 683 674 q 610 725 649 704 q 513 746 571 746 q 416 726 460 746 q 340 668 372 706 q 291 576 308 631 q 274 454 274 522 q 337 237 274 314 q 528 160 400 160 q 582 167 556 160 q 625 188 608 174 l 625 343 l 475 343 l 475 510 l 806 510 l 806 93 q 681 15 758 47 q 507 -17 603 -17 m 300 1001 l 300 1132 l 719 1132 l 719 1001 l 300 1001 z "},"Ɠ":{"ha":886,"x_min":64,"x_max":894,"o":"m 507 -17 q 333 13 414 -17 q 192 101 251 43 q 98 247 132 160 q 64 447 64 333 q 99 648 64 560 q 194 797 133 736 q 335 890 254 858 q 506 922 415 922 q 543 921 525 922 q 578 917 561 919 q 577 928 578 924 q 576 940 576 933 q 590 1016 576 981 q 628 1078 603 1051 q 692 1121 654 1106 q 776 1136 729 1136 q 847 1131 819 1136 q 894 1118 874 1125 l 858 967 q 839 974 847 971 q 819 976 831 976 q 768 959 788 976 q 749 910 749 942 q 761 862 749 882 q 790 821 774 842 l 683 689 q 610 729 649 713 q 513 746 571 746 q 416 726 460 746 q 340 668 372 706 q 291 576 308 631 q 274 454 274 522 q 337 237 274 314 q 528 160 400 160 q 582 167 556 160 q 625 188 608 174 l 625 343 l 475 343 l 475 510 l 806 510 l 806 93 q 681 15 758 47 q 507 -17 603 -17 z "},"Ĥ":{"ha":936,"x_min":107,"x_max":829,"o":"m 107 0 l 107 906 l 311 906 l 311 557 l 624 557 l 624 906 l 829 906 l 829 0 l 624 0 l 624 378 l 311 378 l 311 0 l 107 0 m 231 1006 l 356 1160 l 578 1160 l 703 1006 l 614 951 l 469 1068 l 464 1068 l 319 951 l 231 1006 z "},"Ḥ":{"ha":936,"x_min":107,"x_max":829,"o":"m 107 0 l 107 906 l 311 906 l 311 557 l 624 557 l 624 906 l 829 906 l 829 0 l 624 0 l 624 378 l 311 378 l 311 0 l 107 0 m 467 -312 q 385 -283 417 -312 q 354 -206 354 -253 q 385 -128 354 -158 q 467 -99 417 -99 q 548 -128 517 -99 q 579 -206 579 -158 q 548 -283 579 -253 q 467 -312 517 -312 z "},"Ḫ":{"ha":936,"x_min":107,"x_max":829,"o":"m 107 0 l 107 906 l 311 906 l 311 557 l 624 557 l 624 906 l 829 906 l 829 0 l 624 0 l 624 378 l 311 378 l 311 0 l 107 0 m 467 -322 q 364 -306 407 -322 q 292 -259 321 -289 q 248 -190 263 -229 q 232 -104 233 -150 l 349 -85 q 383 -162 356 -129 q 467 -194 411 -194 q 550 -162 522 -194 q 585 -85 578 -129 l 701 -104 q 685 -190 700 -150 q 642 -259 671 -229 q 570 -306 614 -289 q 467 -322 526 -322 z "},"Ħ":{"ha":989,"x_min":35,"x_max":954,"o":"m 35 675 l 35 765 l 135 774 l 135 906 l 339 906 l 339 774 l 651 774 l 651 906 l 857 906 l 857 774 l 954 774 l 954 675 l 857 675 l 857 0 l 651 0 l 651 378 l 339 378 l 339 0 l 135 0 l 135 675 l 35 675 m 339 557 l 651 557 l 651 675 l 339 675 l 339 557 z "},"Ì":{"ha":418,"x_min":-32,"x_max":314,"o":"m 107 0 l 107 906 l 311 906 l 311 0 l 107 0 m 222 944 l -32 1110 l 76 1242 l 314 1047 l 222 944 z "},"Í":{"ha":418,"x_min":103,"x_max":449,"o":"m 107 0 l 107 906 l 311 906 l 311 0 l 107 0 m 194 944 l 103 1047 l 340 1242 l 449 1110 l 194 944 z "},"Î":{"ha":418,"x_min":-28,"x_max":444,"o":"m 107 0 l 107 906 l 311 906 l 311 0 l 107 0 m -28 1006 l 97 1160 l 319 1160 l 444 1006 l 356 951 l 211 1068 l 206 1068 l 61 951 l -28 1006 z "},"Ĩ":{"ha":418,"x_min":-67,"x_max":483,"o":"m 107 0 l 107 906 l 311 906 l 311 0 l 107 0 m 307 961 q 242 974 269 961 q 192 1001 214 986 q 151 1029 169 1017 q 117 1042 133 1042 q 83 1026 97 1042 q 65 974 69 1011 l -67 983 q -12 1136 -61 1089 q 110 1183 36 1183 q 175 1171 147 1183 q 225 1143 203 1158 q 265 1115 247 1128 q 300 1103 283 1103 q 333 1118 319 1103 q 351 1171 347 1133 l 483 1161 q 429 1009 478 1057 q 307 961 381 961 z "},"Ï":{"ha":418,"x_min":-43,"x_max":460,"o":"m 107 0 l 107 906 l 311 906 l 311 0 l 107 0 m 54 972 q -16 1000 11 972 q -43 1069 -43 1028 q -16 1139 -43 1111 q 54 1167 11 1167 q 124 1139 97 1167 q 151 1069 151 1111 q 124 1000 151 1028 q 54 972 97 972 m 363 972 q 292 1000 319 972 q 265 1069 265 1028 q 292 1139 265 1111 q 363 1167 319 1167 q 433 1139 406 1167 q 460 1069 460 1111 q 433 1000 460 1028 q 363 972 406 972 z "},"Ī":{"ha":418,"x_min":-1,"x_max":418,"o":"m 107 0 l 107 906 l 311 906 l 311 0 l 107 0 m -1 1001 l -1 1132 l 418 1132 l 418 1001 l -1 1001 z "},"İ":{"ha":418,"x_min":90,"x_max":326,"o":"m 107 0 l 107 906 l 311 906 l 311 0 l 107 0 m 208 974 q 124 1003 157 974 q 90 1081 90 1033 q 124 1158 90 1128 q 208 1188 157 1188 q 293 1158 260 1188 q 326 1081 326 1128 q 293 1003 326 1033 q 208 974 260 974 z "},"Ǐ":{"ha":418,"x_min":-28,"x_max":444,"o":"m 107 0 l 107 906 l 311 906 l 311 0 l 107 0 m 97 975 l -28 1128 l 61 1183 l 206 1067 l 211 1067 l 356 1183 l 444 1128 l 319 975 l 97 975 z "},"Ỉ":{"ha":418,"x_min":83,"x_max":342,"o":"m 107 0 l 107 906 l 311 906 l 311 0 l 107 0 m 149 960 l 132 1040 q 176 1054 158 1046 q 194 1082 194 1063 q 169 1113 194 1101 q 83 1129 144 1125 l 107 1231 q 289 1194 236 1228 q 342 1104 342 1160 q 326 1042 342 1068 q 285 999 311 1017 q 223 972 258 982 q 149 960 188 963 z "},"Ị":{"ha":418,"x_min":96,"x_max":321,"o":"m 107 0 l 107 906 l 311 906 l 311 0 l 107 0 m 208 -312 q 127 -283 158 -312 q 96 -206 96 -253 q 127 -128 96 -158 q 208 -99 158 -99 q 290 -128 258 -99 q 321 -206 321 -158 q 290 -283 321 -253 q 208 -312 258 -312 z "},"Į":{"ha":418,"x_min":58,"x_max":363,"o":"m 218 -310 q 105 -276 151 -310 q 58 -179 58 -242 q 69 -118 58 -146 q 94 -67 79 -90 q 128 -28 110 -44 q 161 0 146 -11 l 107 0 l 107 906 l 311 906 l 311 0 q 232 -56 256 -24 q 208 -125 208 -89 q 226 -165 208 -153 q 265 -178 244 -178 q 294 -172 281 -178 q 317 -158 307 -165 l 363 -261 q 295 -296 336 -282 q 218 -310 254 -310 z "},"Ĭ":{"ha":418,"x_min":-18,"x_max":435,"o":"m 107 0 l 107 906 l 311 906 l 311 0 l 107 0 m 208 968 q 48 1017 104 968 q -18 1158 -8 1065 l 93 1178 q 132 1110 103 1135 q 208 1086 161 1086 q 285 1110 256 1086 q 324 1178 314 1135 l 435 1158 q 369 1017 425 1065 q 208 968 313 968 z "},"Ĵ":{"ha":707,"x_min":22,"x_max":735,"o":"m 314 -17 q 140 24 210 -17 q 22 147 69 64 l 161 250 q 219 182 186 204 q 288 160 253 160 q 372 194 343 160 q 400 318 400 228 l 400 906 l 604 906 l 604 301 q 587 178 604 236 q 534 76 569 119 q 444 8 499 33 q 314 -17 389 -17 m 263 1006 l 388 1160 l 610 1160 l 735 1006 l 646 951 l 501 1068 l 496 1068 l 351 951 l 263 1006 z "},"Ķ":{"ha":853,"x_min":107,"x_max":861,"o":"m 107 0 l 107 906 l 311 906 l 311 535 l 317 535 l 586 906 l 811 906 l 538 544 l 861 0 l 638 0 l 417 382 l 311 243 l 311 0 l 107 0 m 319 -332 l 304 -250 q 417 -233 386 -246 q 447 -196 447 -219 q 426 -164 447 -176 q 358 -147 406 -151 l 397 -72 q 551 -110 508 -82 q 593 -189 593 -137 q 522 -294 593 -260 q 319 -332 450 -328 z "},"Ḳ":{"ha":853,"x_min":107,"x_max":861,"o":"m 107 0 l 107 906 l 311 906 l 311 535 l 317 535 l 586 906 l 811 906 l 538 544 l 861 0 l 638 0 l 417 382 l 311 243 l 311 0 l 107 0 m 461 -312 q 380 -283 411 -312 q 349 -206 349 -253 q 380 -128 349 -158 q 461 -99 411 -99 q 542 -128 511 -99 q 574 -206 574 -158 q 542 -283 574 -253 q 461 -312 511 -312 z "},"Ḵ":{"ha":853,"x_min":107,"x_max":861,"o":"m 107 0 l 107 906 l 311 906 l 311 535 l 317 535 l 586 906 l 811 906 l 538 544 l 861 0 l 638 0 l 417 382 l 311 243 l 311 0 l 107 0 m 254 -260 l 254 -131 l 665 -131 l 665 -260 l 254 -260 z "},"Ĺ":{"ha":719,"x_min":107,"x_max":669,"o":"m 107 0 l 107 906 l 311 906 l 311 172 l 669 172 l 669 0 l 107 0 m 200 944 l 108 1047 l 346 1242 l 454 1110 l 200 944 z "},"Ľ":{"ha":719,"x_min":107,"x_max":669,"o":"m 107 0 l 107 906 l 311 906 l 311 172 l 669 172 l 669 0 l 107 0 m 490 710 l 482 1018 l 614 1018 l 611 922 l 578 710 l 490 710 z "},"Ļ":{"ha":719,"x_min":107,"x_max":669,"o":"m 107 0 l 107 906 l 311 906 l 311 172 l 669 172 l 669 0 l 107 0 m 261 -332 l 246 -250 q 358 -233 328 -246 q 389 -196 389 -219 q 368 -164 389 -176 q 300 -147 347 -151 l 339 -72 q 492 -110 450 -82 q 535 -189 535 -137 q 463 -294 535 -260 q 261 -332 392 -328 z "},"Ŀ":{"ha":719,"x_min":107,"x_max":693,"o":"m 107 0 l 107 906 l 311 906 l 311 172 l 669 172 l 669 0 l 107 0 m 569 328 q 481 365 517 328 q 446 456 446 401 q 481 548 446 511 q 569 585 517 585 q 658 548 622 585 q 693 456 693 511 q 658 365 693 401 q 569 328 622 328 z "},"Ḷ":{"ha":719,"x_min":107,"x_max":669,"o":"m 107 0 l 107 906 l 311 906 l 311 172 l 669 172 l 669 0 l 107 0 m 403 -312 q 322 -283 353 -312 q 290 -206 290 -253 q 322 -128 290 -158 q 403 -99 353 -99 q 484 -128 453 -99 q 515 -206 515 -158 q 484 -283 515 -253 q 403 -312 453 -312 z "},"Ḹ":{"ha":719,"x_min":4,"x_max":669,"o":"m 107 0 l 107 906 l 311 906 l 311 172 l 669 172 l 669 0 l 107 0 m 4 1001 l 4 1132 l 424 1132 l 424 1001 l 4 1001 m 403 -312 q 322 -283 353 -312 q 290 -206 290 -253 q 322 -128 290 -158 q 403 -99 353 -99 q 484 -128 453 -99 q 515 -206 515 -158 q 484 -283 515 -253 q 403 -312 453 -312 z "},"Ḻ":{"ha":719,"x_min":107,"x_max":669,"o":"m 107 0 l 107 906 l 311 906 l 311 172 l 669 172 l 669 0 l 107 0 m 197 -260 l 197 -131 l 608 -131 l 608 -260 l 197 -260 z "},"Ł":{"ha":728,"x_min":-32,"x_max":679,"o":"m 38 244 l -32 367 l 117 450 l 117 906 l 321 906 l 321 544 l 540 665 l 610 543 l 321 386 l 321 172 l 679 172 l 679 0 l 117 0 l 117 292 l 38 244 z "},"Ḿ":{"ha":1058,"x_min":107,"x_max":951,"o":"m 107 0 l 107 906 l 331 906 l 476 503 q 503 420 490 463 q 529 336 515 378 l 535 336 q 560 420 549 378 q 586 503 572 463 l 729 906 l 951 906 l 951 0 l 765 0 l 765 332 q 768 406 765 365 q 775 487 771 446 q 783 567 779 528 q 792 640 788 607 l 786 640 l 713 425 l 583 79 l 471 79 l 342 425 l 269 640 l 264 640 q 272 567 268 607 q 281 487 276 528 q 288 406 285 446 q 290 332 290 365 l 290 0 l 107 0 m 515 944 l 424 1047 l 661 1242 l 769 1110 l 515 944 z "},"Ṁ":{"ha":1058,"x_min":107,"x_max":951,"o":"m 107 0 l 107 906 l 331 906 l 476 503 q 503 420 490 463 q 529 336 515 378 l 535 336 q 560 420 549 378 q 586 503 572 463 l 729 906 l 951 906 l 951 0 l 765 0 l 765 332 q 768 406 765 365 q 775 487 771 446 q 783 567 779 528 q 792 640 788 607 l 786 640 l 713 425 l 583 79 l 471 79 l 342 425 l 269 640 l 264 640 q 272 567 268 607 q 281 487 276 528 q 288 406 285 446 q 290 332 290 365 l 290 0 l 107 0 m 529 974 q 444 1003 478 974 q 411 1081 411 1033 q 444 1158 411 1128 q 529 1188 478 1188 q 614 1158 581 1188 q 647 1081 647 1128 q 614 1003 647 1033 q 529 974 581 974 z "},"Ṃ":{"ha":1058,"x_min":107,"x_max":951,"o":"m 107 0 l 107 906 l 331 906 l 476 503 q 503 420 490 463 q 529 336 515 378 l 535 336 q 560 420 549 378 q 586 503 572 463 l 729 906 l 951 906 l 951 0 l 765 0 l 765 332 q 768 406 765 365 q 775 487 771 446 q 783 567 779 528 q 792 640 788 607 l 786 640 l 713 425 l 583 79 l 471 79 l 342 425 l 269 640 l 264 640 q 272 567 268 607 q 281 487 276 528 q 288 406 285 446 q 290 332 290 365 l 290 0 l 107 0 m 532 -312 q 451 -283 482 -312 q 419 -206 419 -253 q 451 -128 419 -158 q 532 -99 482 -99 q 613 -128 582 -99 q 644 -206 644 -158 q 613 -283 644 -253 q 532 -312 582 -312 z "},"Ń":{"ha":924,"x_min":107,"x_max":817,"o":"m 107 0 l 107 906 l 317 906 l 553 456 l 642 256 l 647 256 q 631 417 640 328 q 622 586 622 506 l 622 906 l 817 906 l 817 0 l 607 0 l 371 451 l 282 649 l 276 649 q 292 488 283 574 q 301 321 301 401 l 301 0 l 107 0 m 449 944 l 357 1047 l 594 1242 l 703 1110 l 449 944 z "},"Ǹ":{"ha":924,"x_min":107,"x_max":817,"o":"m 107 0 l 107 906 l 317 906 l 553 456 l 642 256 l 647 256 q 631 417 640 328 q 622 586 622 506 l 622 906 l 817 906 l 817 0 l 607 0 l 371 451 l 282 649 l 276 649 q 292 488 283 574 q 301 321 301 401 l 301 0 l 107 0 m 476 944 l 222 1110 l 331 1242 l 568 1047 l 476 944 z "},"Ň":{"ha":924,"x_min":107,"x_max":817,"o":"m 107 0 l 107 906 l 317 906 l 553 456 l 642 256 l 647 256 q 631 417 640 328 q 622 586 622 506 l 622 906 l 817 906 l 817 0 l 607 0 l 371 451 l 282 649 l 276 649 q 292 488 283 574 q 301 321 301 401 l 301 0 l 107 0 m 351 975 l 226 1128 l 315 1183 l 460 1067 l 465 1067 l 610 1183 l 699 1128 l 574 975 l 351 975 z "},"Ñ":{"ha":924,"x_min":107,"x_max":817,"o":"m 107 0 l 107 906 l 317 906 l 553 456 l 642 256 l 647 256 q 631 417 640 328 q 622 586 622 506 l 622 906 l 817 906 l 817 0 l 607 0 l 371 451 l 282 649 l 276 649 q 292 488 283 574 q 301 321 301 401 l 301 0 l 107 0 m 561 961 q 496 974 524 961 q 446 1001 468 986 q 406 1029 424 1017 q 371 1042 388 1042 q 338 1026 351 1042 q 319 974 324 1011 l 188 983 q 242 1136 193 1089 q 364 1183 290 1183 q 429 1171 401 1183 q 479 1143 457 1158 q 519 1115 501 1128 q 554 1103 538 1103 q 588 1118 574 1103 q 606 1171 601 1133 l 738 1161 q 683 1009 732 1057 q 561 961 635 961 z "},"Ņ":{"ha":924,"x_min":107,"x_max":817,"o":"m 107 0 l 107 906 l 317 906 l 553 456 l 642 256 l 647 256 q 631 417 640 328 q 622 586 622 506 l 622 906 l 817 906 l 817 0 l 607 0 l 371 451 l 282 649 l 276 649 q 292 488 283 574 q 301 321 301 401 l 301 0 l 107 0 m 335 -332 l 319 -250 q 432 -233 401 -246 q 463 -196 463 -219 q 442 -164 463 -176 q 374 -147 421 -151 l 413 -72 q 566 -110 524 -82 q 608 -189 608 -137 q 537 -294 608 -260 q 335 -332 465 -328 z "},"Ṅ":{"ha":924,"x_min":107,"x_max":817,"o":"m 107 0 l 107 906 l 317 906 l 553 456 l 642 256 l 647 256 q 631 417 640 328 q 622 586 622 506 l 622 906 l 817 906 l 817 0 l 607 0 l 371 451 l 282 649 l 276 649 q 292 488 283 574 q 301 321 301 401 l 301 0 l 107 0 m 463 974 q 378 1003 411 974 q 344 1081 344 1033 q 378 1158 344 1128 q 463 1188 411 1188 q 547 1158 514 1188 q 581 1081 581 1128 q 547 1003 581 1033 q 463 974 514 974 z "},"Ṇ":{"ha":924,"x_min":107,"x_max":817,"o":"m 107 0 l 107 906 l 317 906 l 553 456 l 642 256 l 647 256 q 631 417 640 328 q 622 586 622 506 l 622 906 l 817 906 l 817 0 l 607 0 l 371 451 l 282 649 l 276 649 q 292 488 283 574 q 301 321 301 401 l 301 0 l 107 0 m 476 -312 q 395 -283 426 -312 q 364 -206 364 -253 q 395 -128 364 -158 q 476 -99 426 -99 q 558 -128 526 -99 q 589 -206 589 -158 q 558 -283 589 -253 q 476 -312 526 -312 z "},"Ṉ":{"ha":924,"x_min":107,"x_max":817,"o":"m 107 0 l 107 906 l 317 906 l 553 456 l 642 256 l 647 256 q 631 417 640 328 q 622 586 622 506 l 622 906 l 817 906 l 817 0 l 607 0 l 371 451 l 282 649 l 276 649 q 292 488 283 574 q 301 321 301 401 l 301 0 l 107 0 m 271 -260 l 271 -131 l 682 -131 l 682 -260 l 271 -260 z "},"Ò":{"ha":950,"x_min":64,"x_max":886,"o":"m 475 -17 q 308 16 383 -17 q 178 110 232 49 q 94 258 124 171 q 64 457 64 346 q 94 655 64 568 q 178 801 124 742 q 308 891 232 860 q 475 922 383 922 q 642 891 567 922 q 772 800 718 860 q 856 653 826 740 q 886 457 886 567 q 856 258 886 346 q 772 110 826 171 q 642 16 718 49 q 475 -17 567 -17 m 475 160 q 622 240 568 160 q 676 457 676 319 q 622 669 676 593 q 475 746 568 746 q 328 669 382 746 q 274 457 274 593 q 328 240 274 319 q 475 160 382 160 m 489 944 l 235 1110 l 343 1242 l 581 1047 l 489 944 z "},"Ó":{"ha":950,"x_min":64,"x_max":886,"o":"m 475 -17 q 308 16 383 -17 q 178 110 232 49 q 94 258 124 171 q 64 457 64 346 q 94 655 64 568 q 178 801 124 742 q 308 891 232 860 q 475 922 383 922 q 642 891 567 922 q 772 800 718 860 q 856 653 826 740 q 886 457 886 567 q 856 258 886 346 q 772 110 826 171 q 642 16 718 49 q 475 -17 567 -17 m 475 160 q 622 240 568 160 q 676 457 676 319 q 622 669 676 593 q 475 746 568 746 q 328 669 382 746 q 274 457 274 593 q 328 240 274 319 q 475 160 382 160 m 461 944 l 369 1047 l 607 1242 l 715 1110 l 461 944 z "},"Ô":{"ha":950,"x_min":64,"x_max":886,"o":"m 475 -17 q 308 16 383 -17 q 178 110 232 49 q 94 258 124 171 q 64 457 64 346 q 94 655 64 568 q 178 801 124 742 q 308 891 232 860 q 475 922 383 922 q 642 891 567 922 q 772 800 718 860 q 856 653 826 740 q 886 457 886 567 q 856 258 886 346 q 772 110 826 171 q 642 16 718 49 q 475 -17 567 -17 m 475 160 q 622 240 568 160 q 676 457 676 319 q 622 669 676 593 q 475 746 568 746 q 328 669 382 746 q 274 457 274 593 q 328 240 274 319 q 475 160 382 160 m 239 1006 l 364 1160 l 586 1160 l 711 1006 l 622 951 l 478 1068 l 472 1068 l 328 951 l 239 1006 z "},"Õ":{"ha":950,"x_min":64,"x_max":886,"o":"m 475 -17 q 308 16 383 -17 q 178 110 232 49 q 94 258 124 171 q 64 457 64 346 q 94 655 64 568 q 178 801 124 742 q 308 891 232 860 q 475 922 383 922 q 642 891 567 922 q 772 800 718 860 q 856 653 826 740 q 886 457 886 567 q 856 258 886 346 q 772 110 826 171 q 642 16 718 49 q 475 -17 567 -17 m 475 160 q 622 240 568 160 q 676 457 676 319 q 622 669 676 593 q 475 746 568 746 q 328 669 382 746 q 274 457 274 593 q 328 240 274 319 q 475 160 382 160 m 574 961 q 508 974 536 961 q 458 1001 481 986 q 418 1029 436 1017 q 383 1042 400 1042 q 350 1026 364 1042 q 332 974 336 1011 l 200 983 q 254 1136 206 1089 q 376 1183 303 1183 q 442 1171 414 1183 q 492 1143 469 1158 q 532 1115 514 1128 q 567 1103 550 1103 q 600 1118 586 1103 q 618 1171 614 1133 l 750 1161 q 696 1009 744 1057 q 574 961 647 961 z "},"Ö":{"ha":950,"x_min":64,"x_max":886,"o":"m 475 -17 q 308 16 383 -17 q 178 110 232 49 q 94 258 124 171 q 64 457 64 346 q 94 655 64 568 q 178 801 124 742 q 308 891 232 860 q 475 922 383 922 q 642 891 567 922 q 772 800 718 860 q 856 653 826 740 q 886 457 886 567 q 856 258 886 346 q 772 110 826 171 q 642 16 718 49 q 475 -17 567 -17 m 475 160 q 622 240 568 160 q 676 457 676 319 q 622 669 676 593 q 475 746 568 746 q 328 669 382 746 q 274 457 274 593 q 328 240 274 319 q 475 160 382 160 m 321 972 q 251 1000 278 972 q 224 1069 224 1028 q 251 1139 224 1111 q 321 1167 278 1167 q 391 1139 364 1167 q 418 1069 418 1111 q 391 1000 418 1028 q 321 972 364 972 m 629 972 q 559 1000 586 972 q 532 1069 532 1028 q 559 1139 532 1111 q 629 1167 586 1167 q 699 1139 672 1167 q 726 1069 726 1111 q 699 1000 726 1028 q 629 972 672 972 z "},"Ō":{"ha":950,"x_min":64,"x_max":886,"o":"m 475 -17 q 308 16 383 -17 q 178 110 232 49 q 94 258 124 171 q 64 457 64 346 q 94 655 64 568 q 178 801 124 742 q 308 891 232 860 q 475 922 383 922 q 642 891 567 922 q 772 800 718 860 q 856 653 826 740 q 886 457 886 567 q 856 258 886 346 q 772 110 826 171 q 642 16 718 49 q 475 -17 567 -17 m 475 160 q 622 240 568 160 q 676 457 676 319 q 622 669 676 593 q 475 746 568 746 q 328 669 382 746 q 274 457 274 593 q 328 240 274 319 q 475 160 382 160 m 265 1001 l 265 1132 l 685 1132 l 685 1001 l 265 1001 z "},"Ő":{"ha":950,"x_min":64,"x_max":886,"o":"m 475 -17 q 308 16 383 -17 q 178 110 232 49 q 94 258 124 171 q 64 457 64 346 q 94 655 64 568 q 178 801 124 742 q 308 891 232 860 q 475 922 383 922 q 642 891 567 922 q 772 800 718 860 q 856 653 826 740 q 886 457 886 567 q 856 258 886 346 q 772 110 826 171 q 642 16 718 49 q 475 -17 567 -17 m 475 160 q 622 240 568 160 q 676 457 676 319 q 622 669 676 593 q 475 746 568 746 q 328 669 382 746 q 274 457 274 593 q 328 240 274 319 q 475 160 382 160 m 288 1011 l 428 1235 l 557 1163 l 388 964 l 288 1011 m 547 1011 l 688 1235 l 818 1163 l 649 964 l 547 1011 z "},"Ǒ":{"ha":950,"x_min":64,"x_max":886,"o":"m 475 -17 q 308 16 383 -17 q 178 110 232 49 q 94 258 124 171 q 64 457 64 346 q 94 655 64 568 q 178 801 124 742 q 308 891 232 860 q 475 922 383 922 q 642 891 567 922 q 772 800 718 860 q 856 653 826 740 q 886 457 886 567 q 856 258 886 346 q 772 110 826 171 q 642 16 718 49 q 475 -17 567 -17 m 475 160 q 622 240 568 160 q 676 457 676 319 q 622 669 676 593 q 475 746 568 746 q 328 669 382 746 q 274 457 274 593 q 328 240 274 319 q 475 160 382 160 m 364 975 l 239 1128 l 328 1183 l 472 1067 l 478 1067 l 622 1183 l 711 1128 l 586 975 l 364 975 z "},"Ọ":{"ha":950,"x_min":64,"x_max":886,"o":"m 475 -17 q 308 16 383 -17 q 178 110 232 49 q 94 258 124 171 q 64 457 64 346 q 94 655 64 568 q 178 801 124 742 q 308 891 232 860 q 475 922 383 922 q 642 891 567 922 q 772 800 718 860 q 856 653 826 740 q 886 457 886 567 q 856 258 886 346 q 772 110 826 171 q 642 16 718 49 q 475 -17 567 -17 m 475 160 q 622 240 568 160 q 676 457 676 319 q 622 669 676 593 q 475 746 568 746 q 328 669 382 746 q 274 457 274 593 q 328 240 274 319 q 475 160 382 160 m 475 -312 q 394 -283 425 -312 q 363 -206 363 -253 q 394 -128 363 -158 q 475 -99 425 -99 q 556 -128 525 -99 q 588 -206 588 -158 q 556 -283 588 -253 q 475 -312 525 -312 z "},"Ỏ":{"ha":950,"x_min":64,"x_max":886,"o":"m 475 -17 q 308 16 383 -17 q 178 110 232 49 q 94 258 124 171 q 64 457 64 346 q 94 655 64 568 q 178 801 124 742 q 308 891 232 860 q 475 922 383 922 q 642 891 567 922 q 772 800 718 860 q 856 653 826 740 q 886 457 886 567 q 856 258 886 346 q 772 110 826 171 q 642 16 718 49 q 475 -17 567 -17 m 475 160 q 622 240 568 160 q 676 457 676 319 q 622 669 676 593 q 475 746 568 746 q 328 669 382 746 q 274 457 274 593 q 328 240 274 319 q 475 160 382 160 m 415 960 l 399 1040 q 443 1054 425 1046 q 461 1082 461 1063 q 436 1113 461 1101 q 350 1129 411 1125 l 374 1231 q 556 1194 503 1228 q 608 1104 608 1160 q 593 1042 608 1068 q 551 999 578 1017 q 490 972 525 982 q 415 960 454 963 z "},"Ố":{"ha":950,"x_min":64,"x_max":886,"o":"m 475 -17 q 308 16 383 -17 q 178 110 232 49 q 94 258 124 171 q 64 457 64 346 q 94 655 64 568 q 178 801 124 742 q 308 891 232 860 q 475 922 383 922 q 642 891 567 922 q 772 800 718 860 q 856 653 826 740 q 886 457 886 567 q 856 258 886 346 q 772 110 826 171 q 642 16 718 49 q 475 -17 567 -17 m 475 160 q 622 240 568 160 q 676 457 676 319 q 622 669 676 593 q 475 746 568 746 q 328 669 382 746 q 274 457 274 593 q 328 240 274 319 q 475 160 382 160 m 344 951 l 263 1006 l 388 1144 l 563 1144 l 688 1006 l 606 951 l 478 1051 l 472 1051 l 344 951 m 686 1054 l 625 1124 l 764 1243 l 832 1160 l 686 1054 z "},"Ồ":{"ha":950,"x_min":64,"x_max":886,"o":"m 475 -17 q 308 16 383 -17 q 178 110 232 49 q 94 258 124 171 q 64 457 64 346 q 94 655 64 568 q 178 801 124 742 q 308 891 232 860 q 475 922 383 922 q 642 891 567 922 q 772 800 718 860 q 856 653 826 740 q 886 457 886 567 q 856 258 886 346 q 772 110 826 171 q 642 16 718 49 q 475 -17 567 -17 m 475 160 q 622 240 568 160 q 676 457 676 319 q 622 669 676 593 q 475 746 568 746 q 328 669 382 746 q 274 457 274 593 q 328 240 274 319 q 475 160 382 160 m 344 951 l 263 1006 l 388 1144 l 563 1144 l 688 1006 l 606 951 l 478 1051 l 472 1051 l 344 951 m 325 1122 l 264 1054 l 124 1161 l 190 1243 l 325 1122 z "},"Ổ":{"ha":950,"x_min":64,"x_max":886,"o":"m 475 -17 q 308 16 383 -17 q 178 110 232 49 q 94 258 124 171 q 64 457 64 346 q 94 655 64 568 q 178 801 124 742 q 308 891 232 860 q 475 922 383 922 q 642 891 567 922 q 772 800 718 860 q 856 653 826 740 q 886 457 886 567 q 856 258 886 346 q 772 110 826 171 q 642 16 718 49 q 475 -17 567 -17 m 475 160 q 622 240 568 160 q 676 457 676 319 q 622 669 676 593 q 475 746 568 746 q 328 669 382 746 q 274 457 274 593 q 328 240 274 319 q 475 160 382 160 m 344 951 l 263 1006 l 388 1144 l 563 1144 l 688 1006 l 606 951 l 478 1051 l 472 1051 l 344 951 m 665 1042 l 650 1107 q 682 1119 669 1111 q 694 1144 694 1126 q 676 1175 694 1164 q 604 1190 657 1186 l 622 1274 q 781 1240 736 1271 q 826 1163 826 1208 q 780 1074 826 1101 q 665 1042 733 1047 z "},"Ỗ":{"ha":950,"x_min":64,"x_max":886,"o":"m 475 -17 q 308 16 383 -17 q 178 110 232 49 q 94 258 124 171 q 64 457 64 346 q 94 655 64 568 q 178 801 124 742 q 308 891 232 860 q 475 922 383 922 q 642 891 567 922 q 772 800 718 860 q 856 653 826 740 q 886 457 886 567 q 856 258 886 346 q 772 110 826 171 q 642 16 718 49 q 475 -17 567 -17 m 475 160 q 622 240 568 160 q 676 457 676 319 q 622 669 676 593 q 475 746 568 746 q 328 669 382 746 q 274 457 274 593 q 328 240 274 319 q 475 160 382 160 m 344 951 l 263 1006 l 388 1133 l 563 1133 l 688 1006 l 606 951 l 478 1039 l 472 1039 l 344 951 m 263 1183 q 300 1300 267 1263 q 392 1338 333 1338 q 443 1328 421 1338 q 483 1307 465 1318 q 516 1286 501 1296 q 546 1276 531 1276 q 590 1331 582 1276 l 688 1318 q 650 1201 683 1239 q 558 1164 617 1164 q 507 1174 529 1164 q 467 1194 485 1183 q 433 1215 449 1206 q 404 1225 418 1225 q 360 1172 368 1225 l 263 1183 z "},"Ộ":{"ha":950,"x_min":64,"x_max":886,"o":"m 475 -17 q 308 16 383 -17 q 178 110 232 49 q 94 258 124 171 q 64 457 64 346 q 94 655 64 568 q 178 801 124 742 q 308 891 232 860 q 475 922 383 922 q 642 891 567 922 q 772 800 718 860 q 856 653 826 740 q 886 457 886 567 q 856 258 886 346 q 772 110 826 171 q 642 16 718 49 q 475 -17 567 -17 m 475 160 q 622 240 568 160 q 676 457 676 319 q 622 669 676 593 q 475 746 568 746 q 328 669 382 746 q 274 457 274 593 q 328 240 274 319 q 475 160 382 160 m 239 1006 l 364 1160 l 586 1160 l 711 1006 l 622 951 l 478 1068 l 472 1068 l 328 951 l 239 1006 m 475 -312 q 394 -283 425 -312 q 363 -206 363 -253 q 394 -128 363 -158 q 475 -99 425 -99 q 556 -128 525 -99 q 588 -206 588 -158 q 556 -283 588 -253 q 475 -312 525 -312 z "},"Ŏ":{"ha":950,"x_min":64,"x_max":886,"o":"m 475 -17 q 308 16 383 -17 q 178 110 232 49 q 94 258 124 171 q 64 457 64 346 q 94 655 64 568 q 178 801 124 742 q 308 891 232 860 q 475 922 383 922 q 642 891 567 922 q 772 800 718 860 q 856 653 826 740 q 886 457 886 567 q 856 258 886 346 q 772 110 826 171 q 642 16 718 49 q 475 -17 567 -17 m 475 160 q 622 240 568 160 q 676 457 676 319 q 622 669 676 593 q 475 746 568 746 q 328 669 382 746 q 274 457 274 593 q 328 240 274 319 q 475 160 382 160 m 475 968 q 315 1017 371 968 q 249 1158 258 1065 l 360 1178 q 399 1110 369 1135 q 475 1086 428 1086 q 551 1110 522 1086 q 590 1178 581 1135 l 701 1158 q 635 1017 692 1065 q 475 968 579 968 z "},"Ṓ":{"ha":950,"x_min":64,"x_max":886,"o":"m 475 -17 q 308 16 383 -17 q 178 110 232 49 q 94 258 124 171 q 64 457 64 346 q 94 655 64 568 q 178 801 124 742 q 308 891 232 860 q 475 922 383 922 q 642 891 567 922 q 772 800 718 860 q 856 653 826 740 q 886 457 886 567 q 856 258 886 346 q 772 110 826 171 q 642 16 718 49 q 475 -17 567 -17 m 475 160 q 622 240 568 160 q 676 457 676 319 q 622 669 676 593 q 475 746 568 746 q 328 669 382 746 q 274 457 274 593 q 328 240 274 319 q 475 160 382 160 m 432 1158 l 364 1250 l 579 1399 l 663 1286 l 432 1158 m 265 1001 l 265 1132 l 685 1132 l 685 1001 l 265 1001 z "},"Ø":{"ha":950,"x_min":56,"x_max":917,"o":"m 476 -17 q 247 50 346 -17 l 161 -57 l 56 24 l 151 143 q 88 282 111 203 q 65 457 65 361 q 95 655 65 568 q 179 801 125 742 q 309 891 233 860 q 476 922 385 922 q 719 849 618 922 l 811 963 l 917 881 l 811 750 q 867 620 847 693 q 888 457 888 547 q 858 258 888 346 q 774 110 828 171 q 644 16 719 49 q 476 -17 568 -17 m 275 457 q 280 383 275 418 q 293 319 285 349 l 599 699 q 476 746 549 746 q 329 669 383 746 q 275 457 275 593 m 476 160 q 624 240 569 160 q 678 457 678 319 q 665 569 678 519 l 367 199 q 476 160 414 160 z "},"Œ":{"ha":1210,"x_min":64,"x_max":1136,"o":"m 518 0 q 338 28 421 0 q 194 112 256 56 q 99 254 133 168 q 64 457 64 340 q 99 658 64 574 q 195 798 133 743 q 342 879 257 853 q 529 906 428 906 l 1122 906 l 1122 733 l 779 733 l 779 551 l 1068 551 l 1068 381 l 779 381 l 779 172 l 1136 172 l 1136 0 l 518 0 m 542 165 l 574 165 l 574 740 l 542 740 q 433 726 482 740 q 348 680 383 713 q 293 593 313 647 q 274 457 274 539 q 293 319 274 375 q 348 228 313 263 q 433 180 383 194 q 542 165 482 165 z "},"Ơ":{"ha":950,"x_min":65,"x_max":924,"o":"m 476 -17 q 309 16 385 -17 q 179 110 233 49 q 95 258 125 171 q 65 457 65 346 q 95 655 65 568 q 179 801 125 742 q 309 891 233 860 q 476 922 385 922 q 669 879 583 922 q 731 913 710 890 q 753 979 753 935 q 746 1031 753 1007 q 731 1069 739 1054 l 882 1131 q 911 1072 899 1107 q 924 994 924 1036 q 883 876 924 919 q 764 811 843 832 q 855 662 822 750 q 888 457 888 574 q 858 258 888 346 q 774 110 828 171 q 644 16 719 49 q 476 -17 568 -17 m 476 160 q 624 240 569 160 q 678 457 678 319 q 624 669 678 593 q 476 746 569 746 q 329 669 383 746 q 275 457 275 593 q 329 240 275 319 q 476 160 383 160 z "},"Ớ":{"ha":950,"x_min":65,"x_max":924,"o":"m 476 -17 q 309 16 385 -17 q 179 110 233 49 q 95 258 125 171 q 65 457 65 346 q 95 655 65 568 q 179 801 125 742 q 309 891 233 860 q 476 922 385 922 q 669 879 583 922 q 731 913 710 890 q 753 979 753 935 q 746 1031 753 1007 q 731 1069 739 1054 l 882 1131 q 911 1072 899 1107 q 924 994 924 1036 q 883 876 924 919 q 764 811 843 832 q 855 662 822 750 q 888 457 888 574 q 858 258 888 346 q 774 110 828 171 q 644 16 719 49 q 476 -17 568 -17 m 476 160 q 624 240 569 160 q 678 457 678 319 q 624 669 678 593 q 476 746 569 746 q 329 669 383 746 q 275 457 275 593 q 329 240 275 319 q 476 160 383 160 m 461 944 l 369 1047 l 607 1242 l 715 1110 l 461 944 z "},"Ờ":{"ha":950,"x_min":65,"x_max":924,"o":"m 476 -17 q 309 16 385 -17 q 179 110 233 49 q 95 258 125 171 q 65 457 65 346 q 95 655 65 568 q 179 801 125 742 q 309 891 233 860 q 476 922 385 922 q 669 879 583 922 q 731 913 710 890 q 753 979 753 935 q 746 1031 753 1007 q 731 1069 739 1054 l 882 1131 q 911 1072 899 1107 q 924 994 924 1036 q 883 876 924 919 q 764 811 843 832 q 855 662 822 750 q 888 457 888 574 q 858 258 888 346 q 774 110 828 171 q 644 16 719 49 q 476 -17 568 -17 m 476 160 q 624 240 569 160 q 678 457 678 319 q 624 669 678 593 q 476 746 569 746 q 329 669 383 746 q 275 457 275 593 q 329 240 275 319 q 476 160 383 160 m 489 944 l 235 1110 l 343 1242 l 581 1047 l 489 944 z "},"Ở":{"ha":950,"x_min":65,"x_max":924,"o":"m 476 -17 q 309 16 385 -17 q 179 110 233 49 q 95 258 125 171 q 65 457 65 346 q 95 655 65 568 q 179 801 125 742 q 309 891 233 860 q 476 922 385 922 q 669 879 583 922 q 731 913 710 890 q 753 979 753 935 q 746 1031 753 1007 q 731 1069 739 1054 l 882 1131 q 911 1072 899 1107 q 924 994 924 1036 q 883 876 924 919 q 764 811 843 832 q 855 662 822 750 q 888 457 888 574 q 858 258 888 346 q 774 110 828 171 q 644 16 719 49 q 476 -17 568 -17 m 476 160 q 624 240 569 160 q 678 457 678 319 q 624 669 678 593 q 476 746 569 746 q 329 669 383 746 q 275 457 275 593 q 329 240 275 319 q 476 160 383 160 m 415 960 l 399 1040 q 443 1054 425 1046 q 461 1082 461 1063 q 436 1113 461 1101 q 350 1129 411 1125 l 374 1231 q 556 1194 503 1228 q 608 1104 608 1160 q 593 1042 608 1068 q 551 999 578 1017 q 490 972 525 982 q 415 960 454 963 z "},"Ỡ":{"ha":950,"x_min":65,"x_max":924,"o":"m 476 -17 q 309 16 385 -17 q 179 110 233 49 q 95 258 125 171 q 65 457 65 346 q 95 655 65 568 q 179 801 125 742 q 309 891 233 860 q 476 922 385 922 q 669 879 583 922 q 731 913 710 890 q 753 979 753 935 q 746 1031 753 1007 q 731 1069 739 1054 l 882 1131 q 911 1072 899 1107 q 924 994 924 1036 q 883 876 924 919 q 764 811 843 832 q 855 662 822 750 q 888 457 888 574 q 858 258 888 346 q 774 110 828 171 q 644 16 719 49 q 476 -17 568 -17 m 476 160 q 624 240 569 160 q 678 457 678 319 q 624 669 678 593 q 476 746 569 746 q 329 669 383 746 q 275 457 275 593 q 329 240 275 319 q 476 160 383 160 m 551 961 q 486 974 514 961 q 436 1001 458 986 q 396 1029 414 1017 q 361 1042 378 1042 q 328 1026 342 1042 q 310 974 314 1011 l 178 983 q 232 1136 183 1089 q 354 1183 281 1183 q 419 1171 392 1183 q 469 1143 447 1158 q 510 1115 492 1128 q 544 1103 528 1103 q 578 1118 564 1103 q 596 1171 592 1133 l 728 1161 q 674 1009 722 1057 q 551 961 625 961 z "},"Ợ":{"ha":950,"x_min":65,"x_max":924,"o":"m 476 -17 q 309 16 385 -17 q 179 110 233 49 q 95 258 125 171 q 65 457 65 346 q 95 655 65 568 q 179 801 125 742 q 309 891 233 860 q 476 922 385 922 q 669 879 583 922 q 731 913 710 890 q 753 979 753 935 q 746 1031 753 1007 q 731 1069 739 1054 l 882 1131 q 911 1072 899 1107 q 924 994 924 1036 q 883 876 924 919 q 764 811 843 832 q 855 662 822 750 q 888 457 888 574 q 858 258 888 346 q 774 110 828 171 q 644 16 719 49 q 476 -17 568 -17 m 476 160 q 624 240 569 160 q 678 457 678 319 q 624 669 678 593 q 476 746 569 746 q 329 669 383 746 q 275 457 275 593 q 329 240 275 319 q 476 160 383 160 m 475 -312 q 394 -283 425 -312 q 363 -206 363 -253 q 394 -128 363 -158 q 475 -99 425 -99 q 556 -128 525 -99 q 588 -206 588 -158 q 556 -283 588 -253 q 475 -312 525 -312 z "},"Ǫ":{"ha":950,"x_min":64,"x_max":886,"o":"m 511 -310 q 398 -276 444 -310 q 351 -179 351 -242 q 379 -83 351 -125 q 439 -14 407 -42 q 283 27 353 -8 q 165 123 214 63 q 90 268 117 183 q 64 457 64 353 q 94 655 64 568 q 178 801 124 742 q 308 891 232 860 q 475 922 383 922 q 642 891 567 922 q 772 800 718 860 q 856 653 826 740 q 886 457 886 567 q 867 288 886 361 q 810 160 847 215 q 719 64 772 104 q 599 -7 665 24 q 523 -63 546 -31 q 500 -125 500 -96 q 518 -165 500 -153 q 558 -178 536 -178 q 585 -172 574 -178 q 608 -158 597 -165 l 656 -261 q 588 -296 628 -282 q 511 -310 547 -310 m 475 160 q 622 240 568 160 q 676 457 676 319 q 622 669 676 593 q 475 746 568 746 q 328 669 382 746 q 274 457 274 593 q 328 240 274 319 q 475 160 382 160 z "},"Ŕ":{"ha":851,"x_min":107,"x_max":826,"o":"m 107 0 l 107 906 l 433 906 q 569 892 506 906 q 679 845 632 878 q 754 758 726 813 q 782 624 782 704 q 738 459 782 524 q 621 363 694 394 l 826 0 l 597 0 l 424 326 l 311 326 l 311 0 l 107 0 m 311 489 l 417 489 q 540 523 497 489 q 582 624 582 557 q 540 717 582 690 q 417 743 497 743 l 311 743 l 311 489 m 414 944 l 322 1047 l 560 1242 l 668 1110 l 414 944 z "},"Ř":{"ha":851,"x_min":107,"x_max":826,"o":"m 107 0 l 107 906 l 433 906 q 569 892 506 906 q 679 845 632 878 q 754 758 726 813 q 782 624 782 704 q 738 459 782 524 q 621 363 694 394 l 826 0 l 597 0 l 424 326 l 311 326 l 311 0 l 107 0 m 311 489 l 417 489 q 540 523 497 489 q 582 624 582 557 q 540 717 582 690 q 417 743 497 743 l 311 743 l 311 489 m 317 975 l 192 1128 l 281 1183 l 425 1067 l 431 1067 l 575 1183 l 664 1128 l 539 975 l 317 975 z "},"Ṙ":{"ha":851,"x_min":107,"x_max":826,"o":"m 107 0 l 107 906 l 433 906 q 569 892 506 906 q 679 845 632 878 q 754 758 726 813 q 782 624 782 704 q 738 459 782 524 q 621 363 694 394 l 826 0 l 597 0 l 424 326 l 311 326 l 311 0 l 107 0 m 311 489 l 417 489 q 540 523 497 489 q 582 624 582 557 q 540 717 582 690 q 417 743 497 743 l 311 743 l 311 489 m 428 974 q 343 1003 376 974 q 310 1081 310 1033 q 343 1158 310 1128 q 428 1188 376 1188 q 513 1158 479 1188 q 546 1081 546 1128 q 513 1003 546 1033 q 428 974 479 974 z "},"Ŗ":{"ha":851,"x_min":107,"x_max":826,"o":"m 107 0 l 107 906 l 433 906 q 569 892 506 906 q 679 845 632 878 q 754 758 726 813 q 782 624 782 704 q 738 459 782 524 q 621 363 694 394 l 826 0 l 597 0 l 424 326 l 311 326 l 311 0 l 107 0 m 311 489 l 417 489 q 540 523 497 489 q 582 624 582 557 q 540 717 582 690 q 417 743 497 743 l 311 743 l 311 489 m 310 -332 l 294 -250 q 407 -233 376 -246 q 438 -196 438 -219 q 417 -164 438 -176 q 349 -147 396 -151 l 388 -72 q 541 -110 499 -82 q 583 -189 583 -137 q 512 -294 583 -260 q 310 -332 440 -328 z "},"Ṛ":{"ha":851,"x_min":107,"x_max":826,"o":"m 107 0 l 107 906 l 433 906 q 569 892 506 906 q 679 845 632 878 q 754 758 726 813 q 782 624 782 704 q 738 459 782 524 q 621 363 694 394 l 826 0 l 597 0 l 424 326 l 311 326 l 311 0 l 107 0 m 311 489 l 417 489 q 540 523 497 489 q 582 624 582 557 q 540 717 582 690 q 417 743 497 743 l 311 743 l 311 489 m 451 -312 q 370 -283 401 -312 q 339 -206 339 -253 q 370 -128 339 -158 q 451 -99 401 -99 q 533 -128 501 -99 q 564 -206 564 -158 q 533 -283 564 -253 q 451 -312 501 -312 z "},"Ṝ":{"ha":851,"x_min":107,"x_max":826,"o":"m 107 0 l 107 906 l 433 906 q 569 892 506 906 q 679 845 632 878 q 754 758 726 813 q 782 624 782 704 q 738 459 782 524 q 621 363 694 394 l 826 0 l 597 0 l 424 326 l 311 326 l 311 0 l 107 0 m 311 489 l 417 489 q 540 523 497 489 q 582 624 582 557 q 540 717 582 690 q 417 743 497 743 l 311 743 l 311 489 m 218 1001 l 218 1132 l 638 1132 l 638 1001 l 218 1001 m 451 -312 q 370 -283 401 -312 q 339 -206 339 -253 q 370 -128 339 -158 q 451 -99 401 -99 q 533 -128 501 -99 q 564 -206 564 -158 q 533 -283 564 -253 q 451 -312 501 -312 z "},"Ṟ":{"ha":851,"x_min":107,"x_max":826,"o":"m 107 0 l 107 906 l 433 906 q 569 892 506 906 q 679 845 632 878 q 754 758 726 813 q 782 624 782 704 q 738 459 782 524 q 621 363 694 394 l 826 0 l 597 0 l 424 326 l 311 326 l 311 0 l 107 0 m 311 489 l 417 489 q 540 523 497 489 q 582 624 582 557 q 540 717 582 690 q 417 743 497 743 l 311 743 l 311 489 m 246 -260 l 246 -131 l 657 -131 l 657 -260 l 246 -260 z "},"Ś":{"ha":772,"x_min":49,"x_max":725,"o":"m 383 -17 q 206 16 294 -17 q 49 114 118 49 l 165 254 q 273 186 214 213 q 389 160 332 160 q 484 183 453 160 q 515 247 515 207 q 506 283 515 268 q 480 310 497 299 q 438 333 463 322 q 385 356 414 343 l 267 406 q 199 442 232 419 q 141 494 167 464 q 100 563 115 524 q 85 653 85 603 q 108 758 85 708 q 175 844 132 807 q 277 901 218 881 q 407 922 336 922 q 563 892 486 922 q 699 803 640 861 l 594 674 q 506 727 550 708 q 407 746 461 746 q 323 724 354 746 q 292 664 292 703 q 302 628 292 643 q 331 602 313 614 q 375 580 350 590 q 429 557 400 569 l 546 510 q 677 418 629 476 q 725 264 725 360 q 702 156 725 207 q 635 67 679 106 q 528 6 592 29 q 383 -17 464 -17 m 390 944 l 299 1047 l 536 1242 l 644 1110 l 390 944 z "},"Ŝ":{"ha":772,"x_min":49,"x_max":725,"o":"m 383 -17 q 206 16 294 -17 q 49 114 118 49 l 165 254 q 273 186 214 213 q 389 160 332 160 q 484 183 453 160 q 515 247 515 207 q 506 283 515 268 q 480 310 497 299 q 438 333 463 322 q 385 356 414 343 l 267 406 q 199 442 232 419 q 141 494 167 464 q 100 563 115 524 q 85 653 85 603 q 108 758 85 708 q 175 844 132 807 q 277 901 218 881 q 407 922 336 922 q 563 892 486 922 q 699 803 640 861 l 594 674 q 506 727 550 708 q 407 746 461 746 q 323 724 354 746 q 292 664 292 703 q 302 628 292 643 q 331 602 313 614 q 375 580 350 590 q 429 557 400 569 l 546 510 q 677 418 629 476 q 725 264 725 360 q 702 156 725 207 q 635 67 679 106 q 528 6 592 29 q 383 -17 464 -17 m 168 1006 l 293 1160 l 515 1160 l 640 1006 l 551 951 l 407 1068 l 401 1068 l 257 951 l 168 1006 z "},"Š":{"ha":772,"x_min":49,"x_max":725,"o":"m 383 -17 q 206 16 294 -17 q 49 114 118 49 l 165 254 q 273 186 214 213 q 389 160 332 160 q 484 183 453 160 q 515 247 515 207 q 506 283 515 268 q 480 310 497 299 q 438 333 463 322 q 385 356 414 343 l 267 406 q 199 442 232 419 q 141 494 167 464 q 100 563 115 524 q 85 653 85 603 q 108 758 85 708 q 175 844 132 807 q 277 901 218 881 q 407 922 336 922 q 563 892 486 922 q 699 803 640 861 l 594 674 q 506 727 550 708 q 407 746 461 746 q 323 724 354 746 q 292 664 292 703 q 302 628 292 643 q 331 602 313 614 q 375 580 350 590 q 429 557 400 569 l 546 510 q 677 418 629 476 q 725 264 725 360 q 702 156 725 207 q 635 67 679 106 q 528 6 592 29 q 383 -17 464 -17 m 293 975 l 168 1128 l 257 1183 l 401 1067 l 407 1067 l 551 1183 l 640 1128 l 515 975 l 293 975 z "},"Ş":{"ha":772,"x_min":49,"x_max":725,"o":"m 383 -17 q 206 16 294 -17 q 49 114 118 49 l 165 254 q 273 186 214 213 q 389 160 332 160 q 484 183 453 160 q 515 247 515 207 q 506 283 515 268 q 480 310 497 299 q 438 333 463 322 q 385 356 414 343 l 267 406 q 199 442 232 419 q 141 494 167 464 q 100 563 115 524 q 85 653 85 603 q 108 758 85 708 q 175 844 132 807 q 277 901 218 881 q 407 922 336 922 q 563 892 486 922 q 699 803 640 861 l 594 674 q 506 727 550 708 q 407 746 461 746 q 323 724 354 746 q 292 664 292 703 q 302 628 292 643 q 331 602 313 614 q 375 580 350 590 q 429 557 400 569 l 546 510 q 677 418 629 476 q 725 264 725 360 q 702 156 725 207 q 635 67 679 106 q 528 6 592 29 q 383 -17 464 -17 m 247 -332 l 232 -250 q 344 -232 314 -246 q 375 -189 375 -218 q 353 -153 375 -168 q 268 -131 332 -139 l 335 6 l 454 6 l 415 -85 q 494 -121 468 -97 q 521 -189 521 -144 q 449 -294 521 -260 q 247 -332 378 -328 z "},"Ș":{"ha":772,"x_min":49,"x_max":725,"o":"m 383 -17 q 206 16 294 -17 q 49 114 118 49 l 165 254 q 273 186 214 213 q 389 160 332 160 q 484 183 453 160 q 515 247 515 207 q 506 283 515 268 q 480 310 497 299 q 438 333 463 322 q 385 356 414 343 l 267 406 q 199 442 232 419 q 141 494 167 464 q 100 563 115 524 q 85 653 85 603 q 108 758 85 708 q 175 844 132 807 q 277 901 218 881 q 407 922 336 922 q 563 892 486 922 q 699 803 640 861 l 594 674 q 506 727 550 708 q 407 746 461 746 q 323 724 354 746 q 292 664 292 703 q 302 628 292 643 q 331 602 313 614 q 375 580 350 590 q 429 557 400 569 l 546 510 q 677 418 629 476 q 725 264 725 360 q 702 156 725 207 q 635 67 679 106 q 528 6 592 29 q 383 -17 464 -17 m 247 -332 l 232 -250 q 344 -233 314 -246 q 375 -196 375 -219 q 354 -164 375 -176 q 286 -147 333 -151 l 325 -72 q 478 -110 436 -82 q 521 -189 521 -137 q 449 -294 521 -260 q 247 -332 378 -328 z "},"Ṡ":{"ha":772,"x_min":49,"x_max":725,"o":"m 383 -17 q 206 16 294 -17 q 49 114 118 49 l 165 254 q 273 186 214 213 q 389 160 332 160 q 484 183 453 160 q 515 247 515 207 q 506 283 515 268 q 480 310 497 299 q 438 333 463 322 q 385 356 414 343 l 267 406 q 199 442 232 419 q 141 494 167 464 q 100 563 115 524 q 85 653 85 603 q 108 758 85 708 q 175 844 132 807 q 277 901 218 881 q 407 922 336 922 q 563 892 486 922 q 699 803 640 861 l 594 674 q 506 727 550 708 q 407 746 461 746 q 323 724 354 746 q 292 664 292 703 q 302 628 292 643 q 331 602 313 614 q 375 580 350 590 q 429 557 400 569 l 546 510 q 677 418 629 476 q 725 264 725 360 q 702 156 725 207 q 635 67 679 106 q 528 6 592 29 q 383 -17 464 -17 m 404 974 q 319 1003 353 974 q 286 1081 286 1033 q 319 1158 286 1128 q 404 1188 353 1188 q 489 1158 456 1188 q 522 1081 522 1128 q 489 1003 522 1033 q 404 974 456 974 z "},"Ṣ":{"ha":772,"x_min":49,"x_max":725,"o":"m 383 -17 q 206 16 294 -17 q 49 114 118 49 l 165 254 q 273 186 214 213 q 389 160 332 160 q 484 183 453 160 q 515 247 515 207 q 506 283 515 268 q 480 310 497 299 q 438 333 463 322 q 385 356 414 343 l 267 406 q 199 442 232 419 q 141 494 167 464 q 100 563 115 524 q 85 653 85 603 q 108 758 85 708 q 175 844 132 807 q 277 901 218 881 q 407 922 336 922 q 563 892 486 922 q 699 803 640 861 l 594 674 q 506 727 550 708 q 407 746 461 746 q 323 724 354 746 q 292 664 292 703 q 302 628 292 643 q 331 602 313 614 q 375 580 350 590 q 429 557 400 569 l 546 510 q 677 418 629 476 q 725 264 725 360 q 702 156 725 207 q 635 67 679 106 q 528 6 592 29 q 383 -17 464 -17 m 389 -312 q 308 -283 339 -312 q 276 -206 276 -253 q 308 -128 276 -158 q 389 -99 339 -99 q 470 -128 439 -99 q 501 -206 501 -158 q 470 -283 501 -253 q 389 -312 439 -312 z "},"ẞ":{"ha":979,"x_min":111,"x_max":925,"o":"m 643 -17 q 488 14 553 -17 q 385 83 424 44 l 492 208 q 556 162 525 175 q 618 149 588 149 q 689 176 663 149 q 715 249 715 204 q 668 326 715 290 q 506 382 621 361 l 492 501 l 643 675 q 589 732 625 707 q 496 757 553 757 q 317 540 317 757 l 317 0 l 111 0 l 111 568 q 134 709 111 644 q 205 821 157 774 q 326 895 253 868 q 501 922 400 922 q 726 852 638 922 q 846 668 814 782 l 696 499 q 789 460 747 482 q 861 408 831 438 q 908 338 892 378 q 925 247 925 299 q 906 143 925 192 q 852 59 888 94 q 764 3 817 24 q 643 -17 711 -17 z "},"Ť":{"ha":772,"x_min":35,"x_max":738,"o":"m 283 0 l 283 733 l 35 733 l 35 906 l 738 906 l 738 733 l 489 733 l 489 0 l 283 0 m 275 975 l 150 1128 l 239 1183 l 383 1067 l 389 1067 l 533 1183 l 622 1128 l 497 975 l 275 975 z "},"Ţ":{"ha":772,"x_min":35,"x_max":738,"o":"m 283 0 l 283 733 l 35 733 l 35 906 l 738 906 l 738 733 l 489 733 l 489 0 l 283 0 m 247 -332 l 232 -250 q 344 -232 314 -246 q 375 -189 375 -218 q 353 -153 375 -168 q 268 -131 332 -139 l 335 6 l 454 6 l 415 -85 q 494 -121 468 -97 q 521 -189 521 -144 q 449 -294 521 -260 q 247 -332 378 -328 z "},"Ț":{"ha":772,"x_min":35,"x_max":738,"o":"m 283 0 l 283 733 l 35 733 l 35 906 l 738 906 l 738 733 l 489 733 l 489 0 l 283 0 m 244 -332 l 229 -250 q 342 -233 311 -246 q 372 -196 372 -219 q 351 -164 372 -176 q 283 -147 331 -151 l 322 -72 q 476 -110 433 -82 q 518 -189 518 -137 q 447 -294 518 -260 q 244 -332 375 -328 z "},"Ṭ":{"ha":772,"x_min":35,"x_max":738,"o":"m 283 0 l 283 733 l 35 733 l 35 906 l 738 906 l 738 733 l 489 733 l 489 0 l 283 0 m 386 -312 q 305 -283 336 -312 q 274 -206 274 -253 q 305 -128 274 -158 q 386 -99 336 -99 q 467 -128 436 -99 q 499 -206 499 -158 q 467 -283 499 -253 q 386 -312 436 -312 z "},"Ṯ":{"ha":772,"x_min":35,"x_max":738,"o":"m 283 0 l 283 733 l 35 733 l 35 906 l 738 906 l 738 733 l 489 733 l 489 0 l 283 0 m 181 -260 l 181 -131 l 592 -131 l 592 -260 l 181 -260 z "},"Ŧ":{"ha":772,"x_min":35,"x_max":738,"o":"m 283 0 l 283 396 l 119 396 l 119 486 l 250 494 l 283 494 l 283 733 l 35 733 l 35 906 l 738 906 l 738 733 l 489 733 l 489 494 l 653 494 l 653 396 l 489 396 l 489 0 l 283 0 z "},"Ù":{"ha":924,"x_min":101,"x_max":821,"o":"m 464 -17 q 194 88 288 -17 q 101 419 101 192 l 101 906 l 307 906 l 307 399 q 347 213 307 265 q 464 160 388 160 q 582 213 540 160 q 624 399 624 265 l 624 906 l 821 906 l 821 419 q 730 88 821 192 q 464 -17 639 -17 m 475 944 l 221 1110 l 329 1242 l 567 1047 l 475 944 z "},"Ú":{"ha":924,"x_min":101,"x_max":821,"o":"m 464 -17 q 194 88 288 -17 q 101 419 101 192 l 101 906 l 307 906 l 307 399 q 347 213 307 265 q 464 160 388 160 q 582 213 540 160 q 624 399 624 265 l 624 906 l 821 906 l 821 419 q 730 88 821 192 q 464 -17 639 -17 m 447 944 l 356 1047 l 593 1242 l 701 1110 l 447 944 z "},"Û":{"ha":924,"x_min":101,"x_max":821,"o":"m 464 -17 q 194 88 288 -17 q 101 419 101 192 l 101 906 l 307 906 l 307 399 q 347 213 307 265 q 464 160 388 160 q 582 213 540 160 q 624 399 624 265 l 624 906 l 821 906 l 821 419 q 730 88 821 192 q 464 -17 639 -17 m 225 1006 l 350 1160 l 572 1160 l 697 1006 l 608 951 l 464 1068 l 458 1068 l 314 951 l 225 1006 z "},"Ũ":{"ha":924,"x_min":101,"x_max":821,"o":"m 464 -17 q 194 88 288 -17 q 101 419 101 192 l 101 906 l 307 906 l 307 399 q 347 213 307 265 q 464 160 388 160 q 582 213 540 160 q 624 399 624 265 l 624 906 l 821 906 l 821 419 q 730 88 821 192 q 464 -17 639 -17 m 560 961 q 494 974 522 961 q 444 1001 467 986 q 404 1029 422 1017 q 369 1042 386 1042 q 336 1026 350 1042 q 318 974 322 1011 l 186 983 q 240 1136 192 1089 q 363 1183 289 1183 q 428 1171 400 1183 q 478 1143 456 1158 q 518 1115 500 1128 q 553 1103 536 1103 q 586 1118 572 1103 q 604 1171 600 1133 l 736 1161 q 682 1009 731 1057 q 560 961 633 961 z "},"Ü":{"ha":924,"x_min":101,"x_max":821,"o":"m 464 -17 q 194 88 288 -17 q 101 419 101 192 l 101 906 l 307 906 l 307 399 q 347 213 307 265 q 464 160 388 160 q 582 213 540 160 q 624 399 624 265 l 624 906 l 821 906 l 821 419 q 730 88 821 192 q 464 -17 639 -17 m 307 972 q 237 1000 264 972 q 210 1069 210 1028 q 237 1139 210 1111 q 307 1167 264 1167 q 377 1139 350 1167 q 404 1069 404 1111 q 377 1000 404 1028 q 307 972 350 972 m 615 972 q 545 1000 572 972 q 518 1069 518 1028 q 545 1139 518 1111 q 615 1167 572 1167 q 685 1139 658 1167 q 713 1069 713 1111 q 685 1000 713 1028 q 615 972 658 972 z "},"Ū":{"ha":924,"x_min":101,"x_max":821,"o":"m 464 -17 q 194 88 288 -17 q 101 419 101 192 l 101 906 l 307 906 l 307 399 q 347 213 307 265 q 464 160 388 160 q 582 213 540 160 q 624 399 624 265 l 624 906 l 821 906 l 821 419 q 730 88 821 192 q 464 -17 639 -17 m 251 1001 l 251 1132 l 671 1132 l 671 1001 l 251 1001 z "},"Ŭ":{"ha":924,"x_min":101,"x_max":821,"o":"m 464 -17 q 194 88 288 -17 q 101 419 101 192 l 101 906 l 307 906 l 307 399 q 347 213 307 265 q 464 160 388 160 q 582 213 540 160 q 624 399 624 265 l 624 906 l 821 906 l 821 419 q 730 88 821 192 q 464 -17 639 -17 m 461 968 q 301 1017 357 968 q 235 1158 244 1065 l 346 1178 q 385 1110 356 1135 q 461 1086 414 1086 q 538 1110 508 1086 q 576 1178 567 1135 l 688 1158 q 622 1017 678 1065 q 461 968 565 968 z "},"Ů":{"ha":924,"x_min":101,"x_max":821,"o":"m 464 -17 q 194 88 288 -17 q 101 419 101 192 l 101 906 l 307 906 l 307 399 q 347 213 307 265 q 464 160 388 160 q 582 213 540 160 q 624 399 624 265 l 624 906 l 821 906 l 821 419 q 730 88 821 192 q 464 -17 639 -17 m 461 968 q 347 1006 390 968 q 303 1106 303 1043 q 347 1205 303 1168 q 461 1242 390 1242 q 576 1205 532 1242 q 619 1106 619 1168 q 576 1006 619 1043 q 461 968 532 968 m 461 1044 q 502 1061 485 1044 q 519 1106 519 1078 q 502 1149 519 1133 q 461 1165 485 1165 q 420 1149 438 1165 q 403 1106 403 1133 q 420 1061 403 1078 q 461 1044 438 1044 z "},"Ű":{"ha":924,"x_min":101,"x_max":821,"o":"m 464 -17 q 194 88 288 -17 q 101 419 101 192 l 101 906 l 307 906 l 307 399 q 347 213 307 265 q 464 160 388 160 q 582 213 540 160 q 624 399 624 265 l 624 906 l 821 906 l 821 419 q 730 88 821 192 q 464 -17 639 -17 m 274 1011 l 414 1235 l 543 1163 l 374 964 l 274 1011 m 533 1011 l 674 1235 l 804 1163 l 635 964 l 533 1011 z "},"Ǔ":{"ha":924,"x_min":101,"x_max":821,"o":"m 464 -17 q 194 88 288 -17 q 101 419 101 192 l 101 906 l 307 906 l 307 399 q 347 213 307 265 q 464 160 388 160 q 582 213 540 160 q 624 399 624 265 l 624 906 l 821 906 l 821 419 q 730 88 821 192 q 464 -17 639 -17 m 350 975 l 225 1128 l 314 1183 l 458 1067 l 464 1067 l 608 1183 l 697 1128 l 572 975 l 350 975 z "},"Ǖ":{"ha":924,"x_min":101,"x_max":821,"o":"m 464 -17 q 194 88 288 -17 q 101 419 101 192 l 101 906 l 307 906 l 307 399 q 347 213 307 265 q 464 160 388 160 q 582 213 540 160 q 624 399 624 265 l 624 906 l 821 906 l 821 419 q 730 88 821 192 q 464 -17 639 -17 m 307 972 q 246 997 269 972 q 222 1058 222 1022 q 246 1119 222 1094 q 307 1143 269 1143 q 369 1119 344 1143 q 393 1058 393 1094 q 369 997 393 1022 q 307 972 344 972 m 251 1211 l 251 1307 l 671 1307 l 671 1211 l 251 1211 m 615 972 q 553 997 578 972 q 529 1058 529 1022 q 553 1119 529 1094 q 615 1143 578 1143 q 676 1119 653 1143 q 700 1058 700 1094 q 676 997 700 1022 q 615 972 653 972 z "},"Ǘ":{"ha":924,"x_min":101,"x_max":821,"o":"m 464 -17 q 194 88 288 -17 q 101 419 101 192 l 101 906 l 307 906 l 307 399 q 347 213 307 265 q 464 160 388 160 q 582 213 540 160 q 624 399 624 265 l 624 906 l 821 906 l 821 419 q 730 88 821 192 q 464 -17 639 -17 m 307 972 q 246 997 269 972 q 222 1058 222 1022 q 246 1119 222 1094 q 307 1143 269 1143 q 369 1119 344 1143 q 393 1058 393 1094 q 369 997 393 1022 q 307 972 344 972 m 385 1200 l 517 1401 l 644 1322 l 472 1146 l 385 1200 m 615 972 q 553 997 578 972 q 529 1058 529 1022 q 553 1119 529 1094 q 615 1143 578 1143 q 676 1119 653 1143 q 700 1058 700 1094 q 676 997 700 1022 q 615 972 653 972 z "},"Ǚ":{"ha":924,"x_min":101,"x_max":821,"o":"m 464 -17 q 194 88 288 -17 q 101 419 101 192 l 101 906 l 307 906 l 307 399 q 347 213 307 265 q 464 160 388 160 q 582 213 540 160 q 624 399 624 265 l 624 906 l 821 906 l 821 419 q 730 88 821 192 q 464 -17 639 -17 m 374 1186 l 246 1328 l 328 1382 l 458 1281 l 464 1281 l 594 1382 l 676 1328 l 549 1186 l 374 1186 m 307 972 q 246 997 269 972 q 222 1058 222 1022 q 246 1119 222 1094 q 307 1143 269 1143 q 369 1119 344 1143 q 393 1058 393 1094 q 369 997 393 1022 q 307 972 344 972 m 615 972 q 553 997 578 972 q 529 1058 529 1022 q 553 1119 529 1094 q 615 1143 578 1143 q 676 1119 653 1143 q 700 1058 700 1094 q 676 997 700 1022 q 615 972 653 972 z "},"Ǜ":{"ha":924,"x_min":101,"x_max":821,"o":"m 464 -17 q 194 88 288 -17 q 101 419 101 192 l 101 906 l 307 906 l 307 399 q 347 213 307 265 q 464 160 388 160 q 582 213 540 160 q 624 399 624 265 l 624 906 l 821 906 l 821 419 q 730 88 821 192 q 464 -17 639 -17 m 538 1200 l 450 1146 l 278 1322 l 406 1401 l 538 1200 m 307 972 q 246 997 269 972 q 222 1058 222 1022 q 246 1119 222 1094 q 307 1143 269 1143 q 369 1119 344 1143 q 393 1058 393 1094 q 369 997 393 1022 q 307 972 344 972 m 615 972 q 553 997 578 972 q 529 1058 529 1022 q 553 1119 529 1094 q 615 1143 578 1143 q 676 1119 653 1143 q 700 1058 700 1094 q 676 997 700 1022 q 615 972 653 972 z "},"Ụ":{"ha":924,"x_min":101,"x_max":821,"o":"m 464 -17 q 194 88 288 -17 q 101 419 101 192 l 101 906 l 307 906 l 307 399 q 347 213 307 265 q 464 160 388 160 q 582 213 540 160 q 624 399 624 265 l 624 906 l 821 906 l 821 419 q 730 88 821 192 q 464 -17 639 -17 m 461 -312 q 380 -283 411 -312 q 349 -206 349 -253 q 380 -128 349 -158 q 461 -99 411 -99 q 542 -128 511 -99 q 574 -206 574 -158 q 542 -283 574 -253 q 461 -312 511 -312 z "},"Ủ":{"ha":924,"x_min":101,"x_max":821,"o":"m 464 -17 q 194 88 288 -17 q 101 419 101 192 l 101 906 l 307 906 l 307 399 q 347 213 307 265 q 464 160 388 160 q 582 213 540 160 q 624 399 624 265 l 624 906 l 821 906 l 821 419 q 730 88 821 192 q 464 -17 639 -17 m 401 960 l 385 1040 q 429 1054 411 1046 q 447 1082 447 1063 q 422 1113 447 1101 q 336 1129 397 1125 l 360 1231 q 542 1194 489 1228 q 594 1104 594 1160 q 579 1042 594 1068 q 538 999 564 1017 q 476 972 511 982 q 401 960 440 963 z "},"Ų":{"ha":924,"x_min":101,"x_max":821,"o":"m 496 -310 q 383 -276 429 -310 q 338 -179 338 -242 q 348 -120 338 -147 q 373 -72 358 -93 q 402 -37 388 -51 q 426 -14 417 -22 q 184 101 267 -4 q 101 419 101 206 l 101 906 l 307 906 l 307 399 q 347 213 307 265 q 464 160 388 160 q 582 213 540 160 q 624 399 624 265 l 624 906 l 821 906 l 821 419 q 807 256 821 324 q 764 138 793 188 q 690 55 735 89 q 585 -7 646 21 q 509 -64 532 -31 q 486 -125 486 -97 q 504 -165 486 -153 q 544 -178 522 -178 q 571 -172 558 -178 q 594 -158 583 -165 l 642 -261 q 573 -296 614 -282 q 496 -310 532 -310 z "},"Ư":{"ha":949,"x_min":101,"x_max":1007,"o":"m 464 -17 q 194 88 288 -17 q 101 419 101 192 l 101 906 l 307 906 l 307 399 q 347 213 307 265 q 464 160 388 160 q 582 213 540 160 q 624 399 624 265 l 624 906 l 721 906 q 763 911 742 907 q 799 926 783 915 q 826 956 815 936 q 836 1007 836 975 q 829 1058 836 1035 q 814 1097 822 1082 l 965 1158 q 994 1099 981 1135 q 1007 1022 1007 1064 q 958 891 1007 936 q 821 831 908 846 l 821 419 q 730 88 821 192 q 464 -17 639 -17 z "},"Ứ":{"ha":949,"x_min":101,"x_max":1007,"o":"m 464 -17 q 194 88 288 -17 q 101 419 101 192 l 101 906 l 307 906 l 307 399 q 347 213 307 265 q 464 160 388 160 q 582 213 540 160 q 624 399 624 265 l 624 906 l 721 906 q 763 911 742 907 q 799 926 783 915 q 826 956 815 936 q 836 1007 836 975 q 829 1058 836 1035 q 814 1097 822 1082 l 965 1158 q 994 1099 981 1135 q 1007 1022 1007 1064 q 958 891 1007 936 q 821 831 908 846 l 821 419 q 730 88 821 192 q 464 -17 639 -17 m 447 944 l 356 1047 l 593 1242 l 701 1110 l 447 944 z "},"Ừ":{"ha":949,"x_min":101,"x_max":1007,"o":"m 464 -17 q 194 88 288 -17 q 101 419 101 192 l 101 906 l 307 906 l 307 399 q 347 213 307 265 q 464 160 388 160 q 582 213 540 160 q 624 399 624 265 l 624 906 l 721 906 q 763 911 742 907 q 799 926 783 915 q 826 956 815 936 q 836 1007 836 975 q 829 1058 836 1035 q 814 1097 822 1082 l 965 1158 q 994 1099 981 1135 q 1007 1022 1007 1064 q 958 891 1007 936 q 821 831 908 846 l 821 419 q 730 88 821 192 q 464 -17 639 -17 m 475 944 l 221 1110 l 329 1242 l 567 1047 l 475 944 z "},"Ử":{"ha":949,"x_min":101,"x_max":1007,"o":"m 464 -17 q 194 88 288 -17 q 101 419 101 192 l 101 906 l 307 906 l 307 399 q 347 213 307 265 q 464 160 388 160 q 582 213 540 160 q 624 399 624 265 l 624 906 l 721 906 q 763 911 742 907 q 799 926 783 915 q 826 956 815 936 q 836 1007 836 975 q 829 1058 836 1035 q 814 1097 822 1082 l 965 1158 q 994 1099 981 1135 q 1007 1022 1007 1064 q 958 891 1007 936 q 821 831 908 846 l 821 419 q 730 88 821 192 q 464 -17 639 -17 m 401 960 l 385 1040 q 429 1054 411 1046 q 447 1082 447 1063 q 422 1113 447 1101 q 336 1129 397 1125 l 360 1231 q 542 1194 489 1228 q 594 1104 594 1160 q 579 1042 594 1068 q 538 999 564 1017 q 476 972 511 982 q 401 960 440 963 z "},"Ữ":{"ha":949,"x_min":101,"x_max":1007,"o":"m 464 -17 q 194 88 288 -17 q 101 419 101 192 l 101 906 l 307 906 l 307 399 q 347 213 307 265 q 464 160 388 160 q 582 213 540 160 q 624 399 624 265 l 624 906 l 721 906 q 763 911 742 907 q 799 926 783 915 q 826 956 815 936 q 836 1007 836 975 q 829 1058 836 1035 q 814 1097 822 1082 l 965 1158 q 994 1099 981 1135 q 1007 1022 1007 1064 q 958 891 1007 936 q 821 831 908 846 l 821 419 q 730 88 821 192 q 464 -17 639 -17 m 560 961 q 494 974 522 961 q 444 1001 467 986 q 404 1029 422 1017 q 369 1042 386 1042 q 336 1026 350 1042 q 318 974 322 1011 l 186 983 q 240 1136 192 1089 q 363 1183 289 1183 q 428 1171 400 1183 q 478 1143 456 1158 q 518 1115 500 1128 q 553 1103 536 1103 q 586 1118 572 1103 q 604 1171 600 1133 l 736 1161 q 682 1009 731 1057 q 560 961 633 961 z "},"Ự":{"ha":949,"x_min":101,"x_max":1007,"o":"m 464 -17 q 194 88 288 -17 q 101 419 101 192 l 101 906 l 307 906 l 307 399 q 347 213 307 265 q 464 160 388 160 q 582 213 540 160 q 624 399 624 265 l 624 906 l 721 906 q 763 911 742 907 q 799 926 783 915 q 826 956 815 936 q 836 1007 836 975 q 829 1058 836 1035 q 814 1097 822 1082 l 965 1158 q 994 1099 981 1135 q 1007 1022 1007 1064 q 958 891 1007 936 q 821 831 908 846 l 821 419 q 730 88 821 192 q 464 -17 639 -17 m 461 -312 q 380 -283 411 -312 q 349 -206 349 -253 q 380 -128 349 -158 q 461 -99 411 -99 q 542 -128 511 -99 q 574 -206 574 -158 q 542 -283 574 -253 q 461 -312 511 -312 z "},"Ẁ":{"ha":1129,"x_min":19,"x_max":1111,"o":"m 188 0 l 19 906 l 229 906 l 292 482 q 310 340 300 411 q 328 196 319 268 l 333 196 q 360 340 347 268 q 388 482 374 411 l 485 906 l 658 906 l 756 482 q 783 341 769 413 q 810 196 796 269 l 815 196 q 834 340 825 269 q 853 482 843 411 l 915 906 l 1111 906 l 950 0 l 693 0 l 604 411 q 584 517 593 464 q 568 621 575 571 l 563 621 q 545 517 554 571 q 525 411 536 464 l 440 0 l 188 0 m 578 944 l 324 1110 l 432 1242 l 669 1047 l 578 944 z "},"Ẃ":{"ha":1129,"x_min":19,"x_max":1111,"o":"m 188 0 l 19 906 l 229 906 l 292 482 q 310 340 300 411 q 328 196 319 268 l 333 196 q 360 340 347 268 q 388 482 374 411 l 485 906 l 658 906 l 756 482 q 783 341 769 413 q 810 196 796 269 l 815 196 q 834 340 825 269 q 853 482 843 411 l 915 906 l 1111 906 l 950 0 l 693 0 l 604 411 q 584 517 593 464 q 568 621 575 571 l 563 621 q 545 517 554 571 q 525 411 536 464 l 440 0 l 188 0 m 550 944 l 458 1047 l 696 1242 l 804 1110 l 550 944 z "},"Ŵ":{"ha":1129,"x_min":19,"x_max":1111,"o":"m 188 0 l 19 906 l 229 906 l 292 482 q 310 340 300 411 q 328 196 319 268 l 333 196 q 360 340 347 268 q 388 482 374 411 l 485 906 l 658 906 l 756 482 q 783 341 769 413 q 810 196 796 269 l 815 196 q 834 340 825 269 q 853 482 843 411 l 915 906 l 1111 906 l 950 0 l 693 0 l 604 411 q 584 517 593 464 q 568 621 575 571 l 563 621 q 545 517 554 571 q 525 411 536 464 l 440 0 l 188 0 m 328 1006 l 453 1160 l 675 1160 l 800 1006 l 711 951 l 567 1068 l 561 1068 l 417 951 l 328 1006 z "},"Ẅ":{"ha":1129,"x_min":19,"x_max":1111,"o":"m 188 0 l 19 906 l 229 906 l 292 482 q 310 340 300 411 q 328 196 319 268 l 333 196 q 360 340 347 268 q 388 482 374 411 l 485 906 l 658 906 l 756 482 q 783 341 769 413 q 810 196 796 269 l 815 196 q 834 340 825 269 q 853 482 843 411 l 915 906 l 1111 906 l 950 0 l 693 0 l 604 411 q 584 517 593 464 q 568 621 575 571 l 563 621 q 545 517 554 571 q 525 411 536 464 l 440 0 l 188 0 m 410 972 q 340 1000 367 972 q 313 1069 313 1028 q 340 1139 313 1111 q 410 1167 367 1167 q 480 1139 453 1167 q 507 1069 507 1111 q 480 1000 507 1028 q 410 972 453 972 m 718 972 q 648 1000 675 972 q 621 1069 621 1028 q 648 1139 621 1111 q 718 1167 675 1167 q 788 1139 761 1167 q 815 1069 815 1111 q 788 1000 815 1028 q 718 972 761 972 z "},"Ỳ":{"ha":729,"x_min":-11,"x_max":740,"o":"m 263 0 l 263 322 l -11 906 l 208 906 l 289 697 q 326 598 308 646 q 363 497 343 550 l 368 497 q 406 598 388 550 q 444 697 425 646 l 526 906 l 740 906 l 467 322 l 467 0 l 263 0 m 378 944 l 124 1110 l 232 1242 l 469 1047 l 378 944 z "},"Ý":{"ha":729,"x_min":-11,"x_max":740,"o":"m 263 0 l 263 322 l -11 906 l 208 906 l 289 697 q 326 598 308 646 q 363 497 343 550 l 368 497 q 406 598 388 550 q 444 697 425 646 l 526 906 l 740 906 l 467 322 l 467 0 l 263 0 m 350 944 l 258 1047 l 496 1242 l 604 1110 l 350 944 z "},"Ŷ":{"ha":729,"x_min":-11,"x_max":740,"o":"m 263 0 l 263 322 l -11 906 l 208 906 l 289 697 q 326 598 308 646 q 363 497 343 550 l 368 497 q 406 598 388 550 q 444 697 425 646 l 526 906 l 740 906 l 467 322 l 467 0 l 263 0 m 128 1006 l 253 1160 l 475 1160 l 600 1006 l 511 951 l 367 1068 l 361 1068 l 217 951 l 128 1006 z "},"Ÿ":{"ha":729,"x_min":-11,"x_max":740,"o":"m 263 0 l 263 322 l -11 906 l 208 906 l 289 697 q 326 598 308 646 q 363 497 343 550 l 368 497 q 406 598 388 550 q 444 697 425 646 l 526 906 l 740 906 l 467 322 l 467 0 l 263 0 m 210 972 q 140 1000 167 972 q 113 1069 113 1028 q 140 1139 113 1111 q 210 1167 167 1167 q 280 1139 253 1167 q 307 1069 307 1111 q 280 1000 307 1028 q 210 972 253 972 m 518 972 q 448 1000 475 972 q 421 1069 421 1028 q 448 1139 421 1111 q 518 1167 475 1167 q 588 1139 561 1167 q 615 1069 615 1111 q 588 1000 615 1028 q 518 972 561 972 z "},"Ẏ":{"ha":729,"x_min":-11,"x_max":740,"o":"m 263 0 l 263 322 l -11 906 l 208 906 l 289 697 q 326 598 308 646 q 363 497 343 550 l 368 497 q 406 598 388 550 q 444 697 425 646 l 526 906 l 740 906 l 467 322 l 467 0 l 263 0 m 364 974 q 279 1003 313 974 q 246 1081 246 1033 q 279 1158 246 1128 q 364 1188 313 1188 q 449 1158 415 1188 q 482 1081 482 1128 q 449 1003 482 1033 q 364 974 415 974 z "},"Ỵ":{"ha":729,"x_min":-11,"x_max":740,"o":"m 263 0 l 263 322 l -11 906 l 208 906 l 289 697 q 326 598 308 646 q 363 497 343 550 l 368 497 q 406 598 388 550 q 444 697 425 646 l 526 906 l 740 906 l 467 322 l 467 0 l 263 0 m 367 -312 q 285 -283 317 -312 q 254 -206 254 -253 q 285 -128 254 -158 q 367 -99 317 -99 q 448 -128 417 -99 q 479 -206 479 -158 q 448 -283 479 -253 q 367 -312 417 -312 z "},"Ỷ":{"ha":729,"x_min":-11,"x_max":740,"o":"m 263 0 l 263 322 l -11 906 l 208 906 l 289 697 q 326 598 308 646 q 363 497 343 550 l 368 497 q 406 598 388 550 q 444 697 425 646 l 526 906 l 740 906 l 467 322 l 467 0 l 263 0 m 304 960 l 288 1040 q 332 1054 314 1046 q 350 1082 350 1063 q 325 1113 350 1101 q 239 1129 300 1125 l 263 1231 q 444 1194 392 1228 q 497 1104 497 1160 q 482 1042 497 1068 q 440 999 467 1017 q 378 972 414 982 q 304 960 343 963 z "},"Ỹ":{"ha":729,"x_min":-11,"x_max":740,"o":"m 263 0 l 263 322 l -11 906 l 208 906 l 289 697 q 326 598 308 646 q 363 497 343 550 l 368 497 q 406 598 388 550 q 444 697 425 646 l 526 906 l 740 906 l 467 322 l 467 0 l 263 0 m 463 961 q 397 974 425 961 q 347 1001 369 986 q 307 1029 325 1017 q 272 1042 289 1042 q 239 1026 253 1042 q 221 974 225 1011 l 89 983 q 143 1136 94 1089 q 265 1183 192 1183 q 331 1171 303 1183 q 381 1143 358 1158 q 421 1115 403 1128 q 456 1103 439 1103 q 489 1118 475 1103 q 507 1171 503 1133 l 639 1161 q 585 1009 633 1057 q 463 961 536 961 z "},"Ź":{"ha":751,"x_min":50,"x_max":706,"o":"m 50 0 l 50 124 l 450 733 l 88 733 l 88 906 l 701 906 l 701 782 l 301 172 l 706 172 l 706 0 l 50 0 m 378 944 l 286 1047 l 524 1242 l 632 1110 l 378 944 z "},"Ž":{"ha":751,"x_min":50,"x_max":706,"o":"m 50 0 l 50 124 l 450 733 l 88 733 l 88 906 l 701 906 l 701 782 l 301 172 l 706 172 l 706 0 l 50 0 m 281 975 l 156 1128 l 244 1183 l 389 1067 l 394 1067 l 539 1183 l 628 1128 l 503 975 l 281 975 z "},"Ż":{"ha":751,"x_min":50,"x_max":706,"o":"m 50 0 l 50 124 l 450 733 l 88 733 l 88 906 l 701 906 l 701 782 l 301 172 l 706 172 l 706 0 l 50 0 m 392 974 q 307 1003 340 974 q 274 1081 274 1033 q 307 1158 274 1128 q 392 1188 340 1188 q 476 1158 443 1188 q 510 1081 510 1128 q 476 1003 510 1033 q 392 974 443 974 z "},"Ẓ":{"ha":751,"x_min":50,"x_max":706,"o":"m 50 0 l 50 124 l 450 733 l 88 733 l 88 906 l 701 906 l 701 782 l 301 172 l 706 172 l 706 0 l 50 0 m 390 -312 q 309 -283 340 -312 q 278 -206 278 -253 q 309 -128 278 -158 q 390 -99 340 -99 q 472 -128 440 -99 q 503 -206 503 -158 q 472 -283 503 -253 q 390 -312 440 -312 z "},"Ẕ":{"ha":751,"x_min":50,"x_max":706,"o":"m 50 0 l 50 124 l 450 733 l 88 733 l 88 906 l 701 906 l 701 782 l 301 172 l 706 172 l 706 0 l 50 0 m 185 -260 l 185 -131 l 596 -131 l 596 -260 l 185 -260 z "},"Ð":{"ha":917,"x_min":36,"x_max":851,"o":"m 36 418 l 36 510 l 142 517 l 142 906 l 397 906 q 585 879 501 906 q 728 798 668 853 q 819 658 788 743 q 851 457 851 574 q 819 254 851 340 q 729 112 788 168 q 590 28 671 56 q 408 0 508 0 l 142 0 l 142 418 l 36 418 m 346 165 l 385 165 q 490 181 443 165 q 571 230 538 196 q 623 319 604 264 q 642 457 642 375 q 623 592 642 538 q 571 680 604 647 q 490 726 538 713 q 385 740 443 740 l 346 740 l 346 517 l 519 517 l 519 418 l 346 418 l 346 165 z "},"Þ":{"ha":857,"x_min":107,"x_max":792,"o":"m 107 0 l 107 906 l 311 906 l 311 768 l 438 768 q 576 753 511 768 q 688 705 640 739 q 764 615 736 671 q 792 478 792 560 q 763 340 792 397 q 686 244 735 282 q 574 189 638 207 q 438 171 510 171 l 311 171 l 311 0 l 107 0 m 311 333 l 425 333 q 592 478 592 333 q 549 577 592 549 q 425 606 507 606 l 311 606 l 311 333 z "},"Ə":{"ha":938,"x_min":71,"x_max":874,"o":"m 467 -17 q 302 13 375 -17 q 178 102 229 43 q 99 248 126 161 q 71 449 71 335 q 75 517 71 481 l 668 517 q 603 697 657 639 q 449 754 549 754 q 335 728 383 754 q 250 669 286 703 l 157 810 q 288 890 210 858 q 472 922 367 922 q 635 892 561 922 q 763 803 710 863 q 844 657 815 744 q 874 454 874 569 q 844 251 874 339 q 762 103 815 163 q 633 14 708 44 q 467 -17 558 -17 m 467 150 q 598 202 546 150 q 665 367 650 254 l 279 367 q 337 201 288 253 q 467 150 386 150 z "},"Ŋ":{"ha":925,"x_min":107,"x_max":861,"o":"m 572 -17 q 504 -10 540 -17 q 447 10 468 -4 l 492 186 q 517 177 503 181 q 549 174 531 174 q 588 185 569 174 q 621 228 607 197 q 643 316 635 260 q 651 460 651 372 q 608 681 651 615 q 489 746 565 746 q 396 717 446 746 q 311 632 346 688 l 311 0 l 107 0 l 107 906 l 304 906 l 304 808 q 418 893 357 864 q 550 922 479 922 q 674 897 617 922 q 772 817 731 872 q 838 674 814 763 q 861 460 861 586 q 791 100 861 217 q 572 -17 721 -17 z "},"Ĳ":{"ha":836,"x_min":107,"x_max":731,"o":"m 107 0 l 107 906 l 311 906 l 311 0 l 107 0 m 483 -253 q 412 -247 440 -253 q 361 -233 383 -242 l 399 -82 q 425 -89 413 -86 q 451 -92 438 -92 q 509 -65 493 -92 q 525 19 525 -39 l 525 906 l 731 906 l 731 25 q 718 -83 731 -32 q 677 -171 706 -133 q 601 -231 649 -208 q 483 -253 554 -253 z "},"à":{"ha":732,"x_min":58,"x_max":650,"o":"m 264 -17 q 178 -1 217 -17 q 114 44 140 15 q 73 110 88 72 q 58 192 58 147 q 150 361 58 300 q 446 443 242 422 q 419 516 443 489 q 338 543 394 543 q 249 526 293 543 q 156 481 206 510 l 82 615 q 222 681 149 656 q 376 706 294 706 q 580 630 510 706 q 650 394 650 554 l 650 0 l 483 0 l 469 71 l 464 71 q 371 8 419 32 q 264 -17 322 -17 m 333 142 q 393 157 368 142 q 446 200 418 172 l 446 321 q 296 276 338 306 q 254 207 254 247 q 276 158 254 174 q 333 142 297 142 m 368 794 l 117 1013 l 254 1147 l 468 894 l 368 794 z "},"á":{"ha":732,"x_min":58,"x_max":650,"o":"m 264 -17 q 178 -1 217 -17 q 114 44 140 15 q 73 110 88 72 q 58 192 58 147 q 150 361 58 300 q 446 443 242 422 q 419 516 443 489 q 338 543 394 543 q 249 526 293 543 q 156 481 206 510 l 82 615 q 222 681 149 656 q 376 706 294 706 q 580 630 510 706 q 650 394 650 554 l 650 0 l 483 0 l 469 71 l 464 71 q 371 8 419 32 q 264 -17 322 -17 m 333 142 q 393 157 368 142 q 446 200 418 172 l 446 321 q 296 276 338 306 q 254 207 254 247 q 276 158 254 174 q 333 142 297 142 m 396 794 l 296 894 l 510 1147 l 647 1013 l 396 794 z "},"â":{"ha":732,"x_min":58,"x_max":650,"o":"m 264 -17 q 178 -1 217 -17 q 114 44 140 15 q 73 110 88 72 q 58 192 58 147 q 150 361 58 300 q 446 443 242 422 q 419 516 443 489 q 338 543 394 543 q 249 526 293 543 q 156 481 206 510 l 82 615 q 222 681 149 656 q 376 706 294 706 q 580 630 510 706 q 650 394 650 554 l 650 0 l 483 0 l 469 71 l 464 71 q 371 8 419 32 q 264 -17 322 -17 m 333 142 q 393 157 368 142 q 446 200 418 172 l 446 321 q 296 276 338 306 q 254 207 254 247 q 276 158 254 174 q 333 142 297 142 m 128 851 l 278 1033 l 486 1033 l 636 851 l 558 779 l 385 907 l 379 907 l 206 779 l 128 851 z "},"ã":{"ha":732,"x_min":58,"x_max":650,"o":"m 264 -17 q 178 -1 217 -17 q 114 44 140 15 q 73 110 88 72 q 58 192 58 147 q 150 361 58 300 q 446 443 242 422 q 419 516 443 489 q 338 543 394 543 q 249 526 293 543 q 156 481 206 510 l 82 615 q 222 681 149 656 q 376 706 294 706 q 580 630 510 706 q 650 394 650 554 l 650 0 l 483 0 l 469 71 l 464 71 q 371 8 419 32 q 264 -17 322 -17 m 333 142 q 393 157 368 142 q 446 200 418 172 l 446 321 q 296 276 338 306 q 254 207 254 247 q 276 158 254 174 q 333 142 297 142 m 474 796 q 415 810 440 796 q 367 840 389 824 q 328 871 346 857 q 294 885 311 885 q 262 867 274 885 q 246 808 250 849 l 118 815 q 165 975 121 924 q 290 1026 210 1026 q 349 1013 324 1026 q 397 982 375 999 q 435 951 418 965 q 469 938 453 938 q 518 1014 510 938 l 646 1007 q 599 847 643 899 q 474 796 554 796 z "},"ä":{"ha":732,"x_min":58,"x_max":650,"o":"m 264 -17 q 178 -1 217 -17 q 114 44 140 15 q 73 110 88 72 q 58 192 58 147 q 150 361 58 300 q 446 443 242 422 q 419 516 443 489 q 338 543 394 543 q 249 526 293 543 q 156 481 206 510 l 82 615 q 222 681 149 656 q 376 706 294 706 q 580 630 510 706 q 650 394 650 554 l 650 0 l 483 0 l 469 71 l 464 71 q 371 8 419 32 q 264 -17 322 -17 m 333 142 q 393 157 368 142 q 446 200 418 172 l 446 321 q 296 276 338 306 q 254 207 254 247 q 276 158 254 174 q 333 142 297 142 m 231 790 q 158 819 186 790 q 131 890 131 847 q 158 960 131 932 q 231 989 186 989 q 302 960 275 989 q 329 890 329 932 q 302 819 329 847 q 231 790 275 790 m 533 790 q 462 819 489 790 q 435 890 435 847 q 462 960 435 932 q 533 989 489 989 q 606 960 578 989 q 633 890 633 932 q 606 819 633 847 q 533 790 578 790 z "},"ā":{"ha":732,"x_min":58,"x_max":650,"o":"m 264 -17 q 178 -1 217 -17 q 114 44 140 15 q 73 110 88 72 q 58 192 58 147 q 150 361 58 300 q 446 443 242 422 q 419 516 443 489 q 338 543 394 543 q 249 526 293 543 q 156 481 206 510 l 82 615 q 222 681 149 656 q 376 706 294 706 q 580 630 510 706 q 650 394 650 554 l 650 0 l 483 0 l 469 71 l 464 71 q 371 8 419 32 q 264 -17 322 -17 m 333 142 q 393 157 368 142 q 446 200 418 172 l 446 321 q 296 276 338 306 q 254 207 254 247 q 276 158 254 174 q 333 142 297 142 m 176 822 l 176 951 l 588 951 l 588 822 l 176 822 z "},"ă":{"ha":732,"x_min":58,"x_max":650,"o":"m 264 -17 q 178 -1 217 -17 q 114 44 140 15 q 73 110 88 72 q 58 192 58 147 q 150 361 58 300 q 446 443 242 422 q 419 516 443 489 q 338 543 394 543 q 249 526 293 543 q 156 481 206 510 l 82 615 q 222 681 149 656 q 376 706 294 706 q 580 630 510 706 q 650 394 650 554 l 650 0 l 483 0 l 469 71 l 464 71 q 371 8 419 32 q 264 -17 322 -17 m 333 142 q 393 157 368 142 q 446 200 418 172 l 446 321 q 296 276 338 306 q 254 207 254 247 q 276 158 254 174 q 333 142 297 142 m 382 794 q 279 811 322 794 q 207 858 236 828 q 163 927 178 888 q 147 1013 149 967 l 264 1032 q 299 955 271 988 q 382 922 326 922 q 465 955 438 922 q 500 1032 493 988 l 617 1013 q 601 927 615 967 q 558 858 586 888 q 485 811 529 828 q 382 794 442 794 z "},"å":{"ha":732,"x_min":58,"x_max":650,"o":"m 264 -17 q 178 -1 217 -17 q 114 44 140 15 q 73 110 88 72 q 58 192 58 147 q 150 361 58 300 q 446 443 242 422 q 419 516 443 489 q 338 543 394 543 q 249 526 293 543 q 156 481 206 510 l 82 615 q 222 681 149 656 q 376 706 294 706 q 580 630 510 706 q 650 394 650 554 l 650 0 l 483 0 l 469 71 l 464 71 q 371 8 419 32 q 264 -17 322 -17 m 333 142 q 393 157 368 142 q 446 200 418 172 l 446 321 q 296 276 338 306 q 254 207 254 247 q 276 158 254 174 q 333 142 297 142 m 382 783 q 244 825 290 783 q 199 928 199 867 q 244 1031 199 989 q 382 1072 290 1072 q 519 1031 474 1072 q 565 928 565 989 q 519 825 565 867 q 382 783 474 783 m 382 860 q 424 878 407 860 q 442 928 442 897 q 424 977 442 958 q 382 996 407 996 q 340 977 357 996 q 322 928 322 958 q 340 878 322 897 q 382 860 357 860 z "},"ǎ":{"ha":732,"x_min":58,"x_max":650,"o":"m 264 -17 q 178 -1 217 -17 q 114 44 140 15 q 73 110 88 72 q 58 192 58 147 q 150 361 58 300 q 446 443 242 422 q 419 516 443 489 q 338 543 394 543 q 249 526 293 543 q 156 481 206 510 l 82 615 q 222 681 149 656 q 376 706 294 706 q 580 630 510 706 q 650 394 650 554 l 650 0 l 483 0 l 469 71 l 464 71 q 371 8 419 32 q 264 -17 322 -17 m 333 142 q 393 157 368 142 q 446 200 418 172 l 446 321 q 296 276 338 306 q 254 207 254 247 q 276 158 254 174 q 333 142 297 142 m 278 801 l 128 983 l 206 1056 l 379 928 l 385 928 l 558 1056 l 636 983 l 486 801 l 278 801 z "},"ạ":{"ha":732,"x_min":58,"x_max":650,"o":"m 264 -17 q 178 -1 217 -17 q 114 44 140 15 q 73 110 88 72 q 58 192 58 147 q 150 361 58 300 q 446 443 242 422 q 419 516 443 489 q 338 543 394 543 q 249 526 293 543 q 156 481 206 510 l 82 615 q 222 681 149 656 q 376 706 294 706 q 580 630 510 706 q 650 394 650 554 l 650 0 l 483 0 l 469 71 l 464 71 q 371 8 419 32 q 264 -17 322 -17 m 333 142 q 393 157 368 142 q 446 200 418 172 l 446 321 q 296 276 338 306 q 254 207 254 247 q 276 158 254 174 q 333 142 297 142 m 358 -312 q 277 -283 308 -312 q 246 -206 246 -253 q 277 -128 246 -158 q 358 -99 308 -99 q 440 -128 408 -99 q 471 -206 471 -158 q 440 -283 471 -253 q 358 -312 408 -312 z "},"ả":{"ha":732,"x_min":58,"x_max":650,"o":"m 264 -17 q 178 -1 217 -17 q 114 44 140 15 q 73 110 88 72 q 58 192 58 147 q 150 361 58 300 q 446 443 242 422 q 419 516 443 489 q 338 543 394 543 q 249 526 293 543 q 156 481 206 510 l 82 615 q 222 681 149 656 q 376 706 294 706 q 580 630 510 706 q 650 394 650 554 l 650 0 l 483 0 l 469 71 l 464 71 q 371 8 419 32 q 264 -17 322 -17 m 333 142 q 393 157 368 142 q 446 200 418 172 l 446 321 q 296 276 338 306 q 254 207 254 247 q 276 158 254 174 q 333 142 297 142 m 322 789 l 306 869 q 350 885 332 875 q 368 918 368 896 q 343 958 368 943 q 257 976 318 972 l 269 1101 q 385 1087 338 1100 q 461 1052 432 1074 q 503 1000 490 1031 q 517 933 517 969 q 501 872 517 897 q 458 828 485 846 q 397 801 432 811 q 322 789 361 792 z "},"ấ":{"ha":732,"x_min":58,"x_max":767,"o":"m 264 -17 q 178 -1 217 -17 q 114 44 140 15 q 73 110 88 72 q 58 192 58 147 q 150 361 58 300 q 446 443 242 422 q 419 516 443 489 q 338 543 394 543 q 249 526 293 543 q 156 481 206 510 l 82 615 q 222 681 149 656 q 376 706 294 706 q 580 630 510 706 q 650 394 650 554 l 650 0 l 483 0 l 469 71 l 464 71 q 371 8 419 32 q 264 -17 322 -17 m 333 142 q 393 157 368 142 q 446 200 418 172 l 446 321 q 296 276 338 306 q 254 207 254 247 q 276 158 254 174 q 333 142 297 142 m 238 786 l 172 858 l 301 986 l 463 986 l 592 858 l 526 786 l 385 876 l 379 876 l 238 786 m 549 947 l 658 1124 l 767 1053 l 626 886 l 549 947 z "},"ầ":{"ha":732,"x_min":-8,"x_max":650,"o":"m 264 -17 q 178 -1 217 -17 q 114 44 140 15 q 73 110 88 72 q 58 192 58 147 q 150 361 58 300 q 446 443 242 422 q 419 516 443 489 q 338 543 394 543 q 249 526 293 543 q 156 481 206 510 l 82 615 q 222 681 149 656 q 376 706 294 706 q 580 630 510 706 q 650 394 650 554 l 650 0 l 483 0 l 469 71 l 464 71 q 371 8 419 32 q 264 -17 322 -17 m 333 142 q 393 157 368 142 q 446 200 418 172 l 446 321 q 296 276 338 306 q 254 207 254 247 q 276 158 254 174 q 333 142 297 142 m 238 786 l 172 858 l 301 986 l 463 986 l 592 858 l 526 786 l 385 876 l 379 876 l 238 786 m 215 947 l 138 886 l -8 1051 l 100 1124 l 215 947 z "},"ẩ":{"ha":732,"x_min":58,"x_max":735,"o":"m 264 -17 q 178 -1 217 -17 q 114 44 140 15 q 73 110 88 72 q 58 192 58 147 q 150 361 58 300 q 446 443 242 422 q 419 516 443 489 q 338 543 394 543 q 249 526 293 543 q 156 481 206 510 l 82 615 q 222 681 149 656 q 376 706 294 706 q 580 630 510 706 q 650 394 650 554 l 650 0 l 483 0 l 469 71 l 464 71 q 371 8 419 32 q 264 -17 322 -17 m 333 142 q 393 157 368 142 q 446 200 418 172 l 446 321 q 296 276 338 306 q 254 207 254 247 q 276 158 254 174 q 333 142 297 142 m 238 786 l 172 858 l 301 986 l 463 986 l 592 858 l 526 786 l 385 876 l 379 876 l 238 786 m 574 894 l 560 964 q 590 977 579 969 q 601 1004 601 985 q 583 1035 601 1024 q 511 1050 564 1046 l 531 1136 q 690 1103 644 1132 q 735 1025 735 1074 q 722 969 735 992 q 687 931 708 946 q 636 907 665 915 q 574 894 607 899 z "},"ẫ":{"ha":732,"x_min":58,"x_max":650,"o":"m 264 -17 q 178 -1 217 -17 q 114 44 140 15 q 73 110 88 72 q 58 192 58 147 q 150 361 58 300 q 446 443 242 422 q 419 516 443 489 q 338 543 394 543 q 249 526 293 543 q 156 481 206 510 l 82 615 q 222 681 149 656 q 376 706 294 706 q 580 630 510 706 q 650 394 650 554 l 650 0 l 483 0 l 469 71 l 464 71 q 371 8 419 32 q 264 -17 322 -17 m 333 142 q 393 157 368 142 q 446 200 418 172 l 446 321 q 296 276 338 306 q 254 207 254 247 q 276 158 254 174 q 333 142 297 142 m 238 786 l 172 858 l 301 975 l 463 975 l 592 858 l 526 786 l 385 864 l 379 864 l 238 786 m 176 1010 q 217 1126 185 1089 q 301 1164 249 1164 q 351 1155 331 1164 q 390 1135 372 1146 q 422 1115 407 1124 q 451 1106 436 1106 q 494 1158 483 1106 l 588 1149 q 547 1032 579 1069 q 463 994 515 994 q 413 1003 433 994 q 374 1024 392 1013 q 342 1044 357 1035 q 313 1053 328 1053 q 269 1000 281 1053 l 176 1010 z "},"ậ":{"ha":732,"x_min":58,"x_max":650,"o":"m 264 -17 q 178 -1 217 -17 q 114 44 140 15 q 73 110 88 72 q 58 192 58 147 q 150 361 58 300 q 446 443 242 422 q 419 516 443 489 q 338 543 394 543 q 249 526 293 543 q 156 481 206 510 l 82 615 q 222 681 149 656 q 376 706 294 706 q 580 630 510 706 q 650 394 650 554 l 650 0 l 483 0 l 469 71 l 464 71 q 371 8 419 32 q 264 -17 322 -17 m 333 142 q 393 157 368 142 q 446 200 418 172 l 446 321 q 296 276 338 306 q 254 207 254 247 q 276 158 254 174 q 333 142 297 142 m 128 851 l 278 1033 l 486 1033 l 636 851 l 558 779 l 385 907 l 379 907 l 206 779 l 128 851 m 358 -312 q 277 -283 308 -312 q 246 -206 246 -253 q 277 -128 246 -158 q 358 -99 308 -99 q 440 -128 408 -99 q 471 -206 471 -158 q 440 -283 471 -253 q 358 -312 408 -312 z "},"ắ":{"ha":732,"x_min":58,"x_max":650,"o":"m 264 -17 q 178 -1 217 -17 q 114 44 140 15 q 73 110 88 72 q 58 192 58 147 q 150 361 58 300 q 446 443 242 422 q 419 516 443 489 q 338 543 394 543 q 249 526 293 543 q 156 481 206 510 l 82 615 q 222 681 149 656 q 376 706 294 706 q 580 630 510 706 q 650 394 650 554 l 650 0 l 483 0 l 469 71 l 464 71 q 371 8 419 32 q 264 -17 322 -17 m 333 142 q 393 157 368 142 q 446 200 418 172 l 446 321 q 296 276 338 306 q 254 207 254 247 q 276 158 254 174 q 333 142 297 142 m 394 971 l 306 1032 l 435 1228 l 556 1138 l 394 971 m 382 794 q 279 811 322 794 q 207 858 236 828 q 163 927 178 888 q 147 1013 149 967 l 251 1032 q 290 946 260 982 q 382 910 321 910 q 474 946 443 910 q 513 1032 504 982 l 617 1013 q 601 927 615 967 q 558 858 586 888 q 485 811 529 828 q 382 794 442 794 z "},"ằ":{"ha":732,"x_min":58,"x_max":650,"o":"m 264 -17 q 178 -1 217 -17 q 114 44 140 15 q 73 110 88 72 q 58 192 58 147 q 150 361 58 300 q 446 443 242 422 q 419 516 443 489 q 338 543 394 543 q 249 526 293 543 q 156 481 206 510 l 82 615 q 222 681 149 656 q 376 706 294 706 q 580 630 510 706 q 650 394 650 554 l 650 0 l 483 0 l 469 71 l 464 71 q 371 8 419 32 q 264 -17 322 -17 m 333 142 q 393 157 368 142 q 446 200 418 172 l 446 321 q 296 276 338 306 q 254 207 254 247 q 276 158 254 174 q 333 142 297 142 m 369 971 l 208 1138 l 329 1228 l 458 1032 l 369 971 m 382 794 q 279 811 322 794 q 207 858 236 828 q 163 927 178 888 q 147 1013 149 967 l 251 1032 q 290 946 260 982 q 382 910 321 910 q 474 946 443 910 q 513 1032 504 982 l 617 1013 q 601 927 615 967 q 558 858 586 888 q 485 811 529 828 q 382 794 442 794 z "},"ẳ":{"ha":732,"x_min":58,"x_max":650,"o":"m 264 -17 q 178 -1 217 -17 q 114 44 140 15 q 73 110 88 72 q 58 192 58 147 q 150 361 58 300 q 446 443 242 422 q 419 516 443 489 q 338 543 394 543 q 249 526 293 543 q 156 481 206 510 l 82 615 q 222 681 149 656 q 376 706 294 706 q 580 630 510 706 q 650 394 650 554 l 650 0 l 483 0 l 469 71 l 464 71 q 371 8 419 32 q 264 -17 322 -17 m 333 142 q 393 157 368 142 q 446 200 418 172 l 446 321 q 296 276 338 306 q 254 207 254 247 q 276 158 254 174 q 333 142 297 142 m 333 968 l 321 1039 q 353 1050 340 1042 q 365 1078 365 1058 q 345 1108 365 1097 q 271 1124 325 1119 l 290 1235 q 452 1194 406 1231 q 499 1099 499 1158 q 485 1042 499 1065 q 450 1003 472 1018 q 397 981 428 989 q 333 968 367 972 m 382 794 q 279 811 322 794 q 207 858 236 828 q 163 927 178 888 q 147 1013 149 967 l 251 1032 q 290 946 260 982 q 382 910 321 910 q 474 946 443 910 q 513 1032 504 982 l 617 1013 q 601 927 615 967 q 558 858 586 888 q 485 811 529 828 q 382 794 442 794 z "},"ẵ":{"ha":732,"x_min":58,"x_max":650,"o":"m 264 -17 q 178 -1 217 -17 q 114 44 140 15 q 73 110 88 72 q 58 192 58 147 q 150 361 58 300 q 446 443 242 422 q 419 516 443 489 q 338 543 394 543 q 249 526 293 543 q 156 481 206 510 l 82 615 q 222 681 149 656 q 376 706 294 706 q 580 630 510 706 q 650 394 650 554 l 650 0 l 483 0 l 469 71 l 464 71 q 371 8 419 32 q 264 -17 322 -17 m 333 142 q 393 157 368 142 q 446 200 418 172 l 446 321 q 296 276 338 306 q 254 207 254 247 q 276 158 254 174 q 333 142 297 142 m 382 794 q 289 807 328 794 q 224 842 250 819 q 185 892 199 864 q 168 951 171 919 l 268 968 q 301 918 275 940 q 382 896 326 896 q 463 918 438 896 q 496 968 489 940 l 596 951 q 579 892 593 919 q 540 842 565 864 q 475 807 514 819 q 382 794 436 794 m 165 1007 q 208 1125 174 1088 q 301 1163 243 1163 q 351 1153 331 1163 q 390 1133 372 1144 q 422 1113 407 1122 q 451 1104 436 1104 q 494 1156 482 1104 l 599 1146 q 556 1029 590 1067 q 463 992 521 992 q 413 1001 433 992 q 374 1021 392 1010 q 342 1041 357 1032 q 313 1050 328 1050 q 269 997 281 1050 l 165 1007 z "},"ặ":{"ha":732,"x_min":58,"x_max":650,"o":"m 264 -17 q 178 -1 217 -17 q 114 44 140 15 q 73 110 88 72 q 58 192 58 147 q 150 361 58 300 q 446 443 242 422 q 419 516 443 489 q 338 543 394 543 q 249 526 293 543 q 156 481 206 510 l 82 615 q 222 681 149 656 q 376 706 294 706 q 580 630 510 706 q 650 394 650 554 l 650 0 l 483 0 l 469 71 l 464 71 q 371 8 419 32 q 264 -17 322 -17 m 333 142 q 393 157 368 142 q 446 200 418 172 l 446 321 q 296 276 338 306 q 254 207 254 247 q 276 158 254 174 q 333 142 297 142 m 382 794 q 279 811 322 794 q 207 858 236 828 q 163 927 178 888 q 147 1013 149 967 l 264 1032 q 299 955 271 988 q 382 922 326 922 q 465 955 438 922 q 500 1032 493 988 l 617 1013 q 601 927 615 967 q 558 858 586 888 q 485 811 529 828 q 382 794 442 794 m 358 -312 q 277 -283 308 -312 q 246 -206 246 -253 q 277 -128 246 -158 q 358 -99 308 -99 q 440 -128 408 -99 q 471 -206 471 -158 q 440 -283 471 -253 q 358 -312 408 -312 z "},"ą":{"ha":732,"x_min":58,"x_max":679,"o":"m 538 -292 q 433 -260 476 -292 q 390 -165 390 -228 q 401 -109 390 -135 q 426 -62 411 -83 q 457 -26 440 -42 q 486 -3 474 -11 l 469 71 l 464 71 q 371 8 419 32 q 264 -17 322 -17 q 178 -1 217 -17 q 114 44 140 15 q 73 110 88 72 q 58 190 58 147 q 150 361 58 300 q 446 443 242 422 q 419 516 443 489 q 338 543 394 543 q 249 526 293 543 q 156 481 206 510 l 82 615 q 222 681 149 656 q 376 706 294 706 q 580 630 510 706 q 650 394 650 554 l 650 0 q 556 -53 583 -19 q 529 -118 529 -86 q 547 -158 529 -146 q 586 -171 564 -171 q 613 -166 600 -171 q 636 -154 626 -161 l 679 -246 q 611 -279 651 -267 q 538 -292 571 -292 m 333 142 q 393 157 368 142 q 446 200 418 172 l 446 321 q 296 276 338 306 q 254 207 254 247 q 276 158 254 174 q 333 142 297 142 z "},"æ":{"ha":1092,"x_min":65,"x_max":1040,"o":"m 269 -17 q 185 -1 222 -17 q 121 44 147 15 q 80 110 94 72 q 65 190 65 147 q 156 362 65 300 q 449 444 246 424 q 423 516 446 489 q 342 543 400 543 q 256 526 300 543 q 161 481 211 510 l 89 615 q 226 681 156 656 q 371 706 296 706 q 483 678 435 706 q 563 601 532 650 q 656 678 607 651 q 767 706 704 706 q 886 680 835 706 q 972 609 938 654 q 1023 503 1006 564 q 1040 371 1040 442 q 1038 320 1040 343 q 1032 285 1035 297 l 635 285 q 692 178 646 213 q 800 143 738 143 q 874 157 839 143 q 946 193 908 171 l 1015 61 q 898 4 963 25 q 772 -17 833 -17 q 637 13 694 -17 q 535 90 579 42 q 400 8 461 32 q 269 -17 339 -17 m 339 142 q 408 157 375 142 q 468 200 440 172 q 449 292 453 243 l 447 321 q 303 276 346 306 q 260 207 260 247 q 281 158 260 174 q 339 142 303 142 m 635 410 l 867 410 q 842 511 867 472 q 760 550 817 550 q 677 516 711 550 q 635 410 643 482 z "},"ǽ":{"ha":1092,"x_min":65,"x_max":1040,"o":"m 269 -17 q 185 -1 222 -17 q 121 44 147 15 q 80 110 94 72 q 65 190 65 147 q 156 362 65 300 q 449 444 246 424 q 423 516 446 489 q 342 543 400 543 q 256 526 300 543 q 161 481 211 510 l 89 615 q 226 681 156 656 q 371 706 296 706 q 483 678 435 706 q 563 601 532 650 q 656 678 607 651 q 767 706 704 706 q 886 680 835 706 q 972 609 938 654 q 1023 503 1006 564 q 1040 371 1040 442 q 1038 320 1040 343 q 1032 285 1035 297 l 635 285 q 692 178 646 213 q 800 143 738 143 q 874 157 839 143 q 946 193 908 171 l 1015 61 q 898 4 963 25 q 772 -17 833 -17 q 637 13 694 -17 q 535 90 579 42 q 400 8 461 32 q 269 -17 339 -17 m 339 142 q 408 157 375 142 q 468 200 440 172 q 449 292 453 243 l 447 321 q 303 276 346 306 q 260 207 260 247 q 281 158 260 174 q 339 142 303 142 m 635 410 l 867 410 q 842 511 867 472 q 760 550 817 550 q 677 516 711 550 q 635 410 643 482 m 585 794 l 485 894 l 699 1147 l 836 1013 l 585 794 z "},"ǣ":{"ha":1092,"x_min":65,"x_max":1040,"o":"m 269 -17 q 185 -1 222 -17 q 121 44 147 15 q 80 110 94 72 q 65 190 65 147 q 156 362 65 300 q 449 444 246 424 q 423 516 446 489 q 342 543 400 543 q 256 526 300 543 q 161 481 211 510 l 89 615 q 226 681 156 656 q 371 706 296 706 q 483 678 435 706 q 563 601 532 650 q 656 678 607 651 q 767 706 704 706 q 886 680 835 706 q 972 609 938 654 q 1023 503 1006 564 q 1040 371 1040 442 q 1038 320 1040 343 q 1032 285 1035 297 l 635 285 q 692 178 646 213 q 800 143 738 143 q 874 157 839 143 q 946 193 908 171 l 1015 61 q 898 4 963 25 q 772 -17 833 -17 q 637 13 694 -17 q 535 90 579 42 q 400 8 461 32 q 269 -17 339 -17 m 339 142 q 408 157 375 142 q 468 200 440 172 q 449 292 453 243 l 447 321 q 303 276 346 306 q 260 207 260 247 q 281 158 260 174 q 339 142 303 142 m 635 410 l 867 410 q 842 511 867 472 q 760 550 817 550 q 677 516 711 550 q 635 410 643 482 m 365 822 l 365 951 l 776 951 l 776 822 l 365 822 z "},"ƀ":{"ha":793,"x_min":-4,"x_max":742,"o":"m 451 -17 q 359 6 406 -17 q 272 74 313 29 l 267 74 l 250 0 l 90 0 l 90 772 l -4 772 l -4 863 l 90 869 l 90 974 l 294 974 l 294 871 l 529 871 l 529 772 l 294 772 l 294 668 l 289 563 q 376 618 329 597 q 471 639 422 639 q 583 616 533 639 q 669 551 633 593 q 723 452 704 510 q 742 325 742 394 q 717 182 742 246 q 652 74 693 118 q 559 7 611 31 q 451 -17 507 -17 m 404 150 q 494 193 457 150 q 532 322 532 236 q 503 432 532 393 q 413 471 475 471 q 352 456 381 471 q 294 410 324 442 l 294 194 q 350 160 322 169 q 404 150 378 150 z "},"ḇ":{"ha":796,"x_min":90,"x_max":742,"o":"m 451 -17 q 359 6 406 -17 q 272 74 313 29 l 267 74 l 250 0 l 90 0 l 90 974 l 294 974 l 294 735 l 289 629 q 376 685 329 665 q 471 706 422 706 q 583 681 533 706 q 669 610 633 656 q 723 501 704 565 q 742 357 742 436 q 717 199 742 268 q 652 81 693 129 q 559 8 611 33 q 451 -17 507 -17 m 404 150 q 494 198 457 150 q 532 353 532 246 q 413 539 532 539 q 294 476 351 539 l 294 194 q 350 160 322 169 q 404 150 378 150 m 201 -260 l 201 -131 l 613 -131 l 613 -260 l 201 -260 z "},"ç":{"ha":649,"x_min":50,"x_max":618,"o":"m 390 -17 q 256 8 318 -17 q 149 78 194 32 q 76 191 103 124 q 50 344 50 258 q 79 498 50 431 q 158 611 108 565 q 272 681 207 657 q 408 706 338 706 q 522 685 472 706 q 610 632 571 664 l 514 500 q 421 540 465 540 q 303 488 346 540 q 260 344 260 435 q 303 201 260 254 q 414 149 347 149 q 478 163 447 149 q 538 199 510 178 l 618 65 q 507 2 567 21 q 390 -17 447 -17 m 250 -332 l 235 -250 q 347 -232 317 -246 q 378 -189 378 -218 q 356 -153 378 -168 q 271 -131 335 -139 l 338 6 l 457 6 l 418 -85 q 497 -121 471 -97 q 524 -189 524 -144 q 452 -294 524 -260 q 250 -332 381 -328 z "},"ć":{"ha":649,"x_min":50,"x_max":668,"o":"m 390 -17 q 256 8 318 -17 q 149 78 194 32 q 76 191 103 124 q 50 344 50 258 q 79 498 50 431 q 158 611 108 565 q 272 681 207 657 q 408 706 338 706 q 522 685 472 706 q 610 632 571 664 l 514 500 q 421 540 465 540 q 303 488 346 540 q 260 344 260 435 q 303 201 260 254 q 414 149 347 149 q 478 163 447 149 q 538 199 510 178 l 618 65 q 507 2 567 21 q 390 -17 447 -17 m 417 794 l 317 894 l 531 1147 l 668 1013 l 417 794 z "},"ĉ":{"ha":649,"x_min":50,"x_max":657,"o":"m 390 -17 q 256 8 318 -17 q 149 78 194 32 q 76 191 103 124 q 50 344 50 258 q 79 498 50 431 q 158 611 108 565 q 272 681 207 657 q 408 706 338 706 q 522 685 472 706 q 610 632 571 664 l 514 500 q 421 540 465 540 q 303 488 346 540 q 260 344 260 435 q 303 201 260 254 q 414 149 347 149 q 478 163 447 149 q 538 199 510 178 l 618 65 q 507 2 567 21 q 390 -17 447 -17 m 149 851 l 299 1033 l 507 1033 l 657 851 l 579 779 l 406 907 l 400 907 l 226 779 l 149 851 z "},"č":{"ha":649,"x_min":50,"x_max":657,"o":"m 390 -17 q 256 8 318 -17 q 149 78 194 32 q 76 191 103 124 q 50 344 50 258 q 79 498 50 431 q 158 611 108 565 q 272 681 207 657 q 408 706 338 706 q 522 685 472 706 q 610 632 571 664 l 514 500 q 421 540 465 540 q 303 488 346 540 q 260 344 260 435 q 303 201 260 254 q 414 149 347 149 q 478 163 447 149 q 538 199 510 178 l 618 65 q 507 2 567 21 q 390 -17 447 -17 m 299 801 l 149 983 l 226 1056 l 400 928 l 406 928 l 579 1056 l 657 983 l 507 801 l 299 801 z "},"ċ":{"ha":649,"x_min":50,"x_max":618,"o":"m 390 -17 q 256 8 318 -17 q 149 78 194 32 q 76 191 103 124 q 50 344 50 258 q 79 498 50 431 q 158 611 108 565 q 272 681 207 657 q 408 706 338 706 q 522 685 472 706 q 610 632 571 664 l 514 500 q 421 540 465 540 q 303 488 346 540 q 260 344 260 435 q 303 201 260 254 q 414 149 347 149 q 478 163 447 149 q 538 199 510 178 l 618 65 q 507 2 567 21 q 390 -17 447 -17 m 403 790 q 322 820 353 790 q 290 897 290 850 q 322 974 290 944 q 403 1004 353 1004 q 484 974 453 1004 q 515 897 515 944 q 484 820 515 850 q 403 790 453 790 z "},"ď":{"ha":853,"x_min":54,"x_max":890,"o":"m 336 -17 q 220 8 272 -17 q 131 80 168 33 q 74 193 94 126 q 54 344 54 260 q 78 496 54 429 q 142 609 103 563 q 234 681 182 656 q 340 706 286 706 q 436 686 399 706 q 510 633 474 667 l 501 739 l 501 974 l 706 974 l 706 0 l 539 0 l 525 68 l 519 68 q 435 8 483 32 q 336 -17 386 -17 m 389 150 q 449 164 422 150 q 501 213 476 178 l 501 494 q 444 529 474 519 q 388 539 415 539 q 301 492 339 539 q 264 347 264 446 q 297 197 264 244 q 389 150 329 150 m 767 761 l 758 1069 l 890 1069 l 888 974 l 854 761 l 767 761 z "},"ḍ":{"ha":796,"x_min":54,"x_max":706,"o":"m 336 -17 q 220 8 272 -17 q 131 80 168 33 q 74 193 94 126 q 54 344 54 260 q 78 496 54 429 q 142 609 103 563 q 234 681 182 656 q 340 706 286 706 q 436 686 399 706 q 510 633 474 667 l 501 739 l 501 974 l 706 974 l 706 0 l 539 0 l 525 68 l 519 68 q 435 8 483 32 q 336 -17 386 -17 m 389 150 q 449 164 422 150 q 501 213 476 178 l 501 494 q 444 529 474 519 q 388 539 415 539 q 301 492 339 539 q 264 347 264 446 q 297 197 264 244 q 389 150 329 150 m 433 -312 q 352 -283 383 -312 q 321 -206 321 -253 q 352 -128 321 -158 q 433 -99 383 -99 q 515 -128 483 -99 q 546 -206 546 -158 q 515 -283 546 -253 q 433 -312 483 -312 z "},"ḏ":{"ha":796,"x_min":54,"x_max":706,"o":"m 336 -17 q 220 8 272 -17 q 131 80 168 33 q 74 193 94 126 q 54 344 54 260 q 78 496 54 429 q 142 609 103 563 q 234 681 182 656 q 340 706 286 706 q 436 686 399 706 q 510 633 474 667 l 501 739 l 501 974 l 706 974 l 706 0 l 539 0 l 525 68 l 519 68 q 435 8 483 32 q 336 -17 386 -17 m 389 150 q 449 164 422 150 q 501 213 476 178 l 501 494 q 444 529 474 519 q 388 539 415 539 q 301 492 339 539 q 264 347 264 446 q 297 197 264 244 q 389 150 329 150 m 226 -260 l 226 -131 l 638 -131 l 638 -260 l 226 -260 z "},"đ":{"ha":796,"x_min":54,"x_max":800,"o":"m 336 -17 q 220 7 272 -17 q 131 74 168 31 q 74 177 94 117 q 54 313 54 238 q 78 447 54 386 q 142 549 103 507 q 234 615 182 592 q 340 639 286 639 q 436 619 399 639 q 510 567 474 599 l 501 671 l 501 772 l 294 772 l 294 871 l 501 871 l 501 974 l 706 974 l 706 871 l 800 871 l 800 781 l 706 774 l 706 0 l 535 0 l 522 61 l 517 61 q 435 5 481 26 q 336 -17 389 -17 m 389 150 q 449 164 422 150 q 501 213 476 178 l 501 428 q 444 461 474 451 q 388 471 415 471 q 301 431 339 471 q 264 315 264 392 q 297 192 264 233 q 389 150 329 150 z "},"è":{"ha":719,"x_min":50,"x_max":668,"o":"m 399 -17 q 261 8 325 -17 q 150 78 197 32 q 76 192 103 125 q 50 344 50 258 q 78 495 50 428 q 151 609 106 563 q 254 681 196 656 q 375 706 313 706 q 503 681 449 706 q 595 611 558 656 q 650 506 632 567 q 668 375 668 446 q 665 322 668 347 q 660 285 663 297 l 247 285 q 309 174 261 210 q 426 139 357 139 q 575 185 500 139 l 643 61 q 526 4 590 25 q 399 -17 461 -17 m 246 419 l 494 419 q 468 514 494 478 q 379 550 442 550 q 294 518 331 550 q 246 419 257 486 m 361 794 l 110 1013 l 247 1147 l 461 894 l 361 794 z "},"é":{"ha":719,"x_min":50,"x_max":668,"o":"m 399 -17 q 261 8 325 -17 q 150 78 197 32 q 76 192 103 125 q 50 344 50 258 q 78 495 50 428 q 151 609 106 563 q 254 681 196 656 q 375 706 313 706 q 503 681 449 706 q 595 611 558 656 q 650 506 632 567 q 668 375 668 446 q 665 322 668 347 q 660 285 663 297 l 247 285 q 309 174 261 210 q 426 139 357 139 q 575 185 500 139 l 643 61 q 526 4 590 25 q 399 -17 461 -17 m 246 419 l 494 419 q 468 514 494 478 q 379 550 442 550 q 294 518 331 550 q 246 419 257 486 m 389 794 l 289 894 l 503 1147 l 640 1013 l 389 794 z "},"ê":{"ha":719,"x_min":50,"x_max":668,"o":"m 399 -17 q 261 8 325 -17 q 150 78 197 32 q 76 192 103 125 q 50 344 50 258 q 78 495 50 428 q 151 609 106 563 q 254 681 196 656 q 375 706 313 706 q 503 681 449 706 q 595 611 558 656 q 650 506 632 567 q 668 375 668 446 q 665 322 668 347 q 660 285 663 297 l 247 285 q 309 174 261 210 q 426 139 357 139 q 575 185 500 139 l 643 61 q 526 4 590 25 q 399 -17 461 -17 m 246 419 l 494 419 q 468 514 494 478 q 379 550 442 550 q 294 518 331 550 q 246 419 257 486 m 121 851 l 271 1033 l 479 1033 l 629 851 l 551 779 l 378 907 l 372 907 l 199 779 l 121 851 z "},"ě":{"ha":719,"x_min":50,"x_max":668,"o":"m 399 -17 q 261 8 325 -17 q 150 78 197 32 q 76 192 103 125 q 50 344 50 258 q 78 495 50 428 q 151 609 106 563 q 254 681 196 656 q 375 706 313 706 q 503 681 449 706 q 595 611 558 656 q 650 506 632 567 q 668 375 668 446 q 665 322 668 347 q 660 285 663 297 l 247 285 q 309 174 261 210 q 426 139 357 139 q 575 185 500 139 l 643 61 q 526 4 590 25 q 399 -17 461 -17 m 246 419 l 494 419 q 468 514 494 478 q 379 550 442 550 q 294 518 331 550 q 246 419 257 486 m 271 801 l 121 983 l 199 1056 l 372 928 l 378 928 l 551 1056 l 629 983 l 479 801 l 271 801 z "},"ë":{"ha":719,"x_min":50,"x_max":668,"o":"m 399 -17 q 261 8 325 -17 q 150 78 197 32 q 76 192 103 125 q 50 344 50 258 q 78 495 50 428 q 151 609 106 563 q 254 681 196 656 q 375 706 313 706 q 503 681 449 706 q 595 611 558 656 q 650 506 632 567 q 668 375 668 446 q 665 322 668 347 q 660 285 663 297 l 247 285 q 309 174 261 210 q 426 139 357 139 q 575 185 500 139 l 643 61 q 526 4 590 25 q 399 -17 461 -17 m 246 419 l 494 419 q 468 514 494 478 q 379 550 442 550 q 294 518 331 550 q 246 419 257 486 m 224 790 q 151 819 179 790 q 124 890 124 847 q 151 960 124 932 q 224 989 179 989 q 295 960 268 989 q 322 890 322 932 q 295 819 322 847 q 224 790 268 790 m 526 790 q 455 819 482 790 q 428 890 428 847 q 455 960 428 932 q 526 989 482 989 q 599 960 571 989 q 626 890 626 932 q 599 819 626 847 q 526 790 571 790 z "},"ē":{"ha":719,"x_min":50,"x_max":668,"o":"m 399 -17 q 261 8 325 -17 q 150 78 197 32 q 76 192 103 125 q 50 344 50 258 q 78 495 50 428 q 151 609 106 563 q 254 681 196 656 q 375 706 313 706 q 503 681 449 706 q 595 611 558 656 q 650 506 632 567 q 668 375 668 446 q 665 322 668 347 q 660 285 663 297 l 247 285 q 309 174 261 210 q 426 139 357 139 q 575 185 500 139 l 643 61 q 526 4 590 25 q 399 -17 461 -17 m 246 419 l 494 419 q 468 514 494 478 q 379 550 442 550 q 294 518 331 550 q 246 419 257 486 m 169 822 l 169 951 l 581 951 l 581 822 l 169 822 z "},"ĕ":{"ha":719,"x_min":50,"x_max":668,"o":"m 399 -17 q 261 8 325 -17 q 150 78 197 32 q 76 192 103 125 q 50 344 50 258 q 78 495 50 428 q 151 609 106 563 q 254 681 196 656 q 375 706 313 706 q 503 681 449 706 q 595 611 558 656 q 650 506 632 567 q 668 375 668 446 q 665 322 668 347 q 660 285 663 297 l 247 285 q 309 174 261 210 q 426 139 357 139 q 575 185 500 139 l 643 61 q 526 4 590 25 q 399 -17 461 -17 m 246 419 l 494 419 q 468 514 494 478 q 379 550 442 550 q 294 518 331 550 q 246 419 257 486 m 375 794 q 272 811 315 794 q 200 858 229 828 q 156 927 171 888 q 140 1013 142 967 l 257 1032 q 292 955 264 988 q 375 922 319 922 q 458 955 431 922 q 493 1032 486 988 l 610 1013 q 594 927 608 967 q 551 858 579 888 q 478 811 522 828 q 375 794 435 794 z "},"ė":{"ha":719,"x_min":50,"x_max":668,"o":"m 399 -17 q 261 8 325 -17 q 150 78 197 32 q 76 192 103 125 q 50 344 50 258 q 78 495 50 428 q 151 609 106 563 q 254 681 196 656 q 375 706 313 706 q 503 681 449 706 q 595 611 558 656 q 650 506 632 567 q 668 375 668 446 q 665 322 668 347 q 660 285 663 297 l 247 285 q 309 174 261 210 q 426 139 357 139 q 575 185 500 139 l 643 61 q 526 4 590 25 q 399 -17 461 -17 m 246 419 l 494 419 q 468 514 494 478 q 379 550 442 550 q 294 518 331 550 q 246 419 257 486 m 375 790 q 294 820 325 790 q 263 897 263 850 q 294 974 263 944 q 375 1004 325 1004 q 456 974 425 1004 q 488 897 488 944 q 456 820 488 850 q 375 790 425 790 z "},"ẹ":{"ha":719,"x_min":50,"x_max":668,"o":"m 399 -17 q 261 8 325 -17 q 150 78 197 32 q 76 192 103 125 q 50 344 50 258 q 78 495 50 428 q 151 609 106 563 q 254 681 196 656 q 375 706 313 706 q 503 681 449 706 q 595 611 558 656 q 650 506 632 567 q 668 375 668 446 q 665 322 668 347 q 660 285 663 297 l 247 285 q 309 174 261 210 q 426 139 357 139 q 575 185 500 139 l 643 61 q 526 4 590 25 q 399 -17 461 -17 m 246 419 l 494 419 q 468 514 494 478 q 379 550 442 550 q 294 518 331 550 q 246 419 257 486 m 375 -312 q 294 -283 325 -312 q 263 -206 263 -253 q 294 -128 263 -158 q 375 -99 325 -99 q 456 -128 425 -99 q 488 -206 488 -158 q 456 -283 488 -253 q 375 -312 425 -312 z "},"ẻ":{"ha":719,"x_min":50,"x_max":668,"o":"m 399 -17 q 261 8 325 -17 q 150 78 197 32 q 76 192 103 125 q 50 344 50 258 q 78 495 50 428 q 151 609 106 563 q 254 681 196 656 q 375 706 313 706 q 503 681 449 706 q 595 611 558 656 q 650 506 632 567 q 668 375 668 446 q 665 322 668 347 q 660 285 663 297 l 247 285 q 309 174 261 210 q 426 139 357 139 q 575 185 500 139 l 643 61 q 526 4 590 25 q 399 -17 461 -17 m 246 419 l 494 419 q 468 514 494 478 q 379 550 442 550 q 294 518 331 550 q 246 419 257 486 m 315 789 l 299 869 q 343 885 325 875 q 361 918 361 896 q 336 958 361 943 q 250 976 311 972 l 263 1101 q 378 1087 331 1100 q 454 1052 425 1074 q 497 1000 483 1031 q 510 933 510 969 q 494 872 510 897 q 451 828 478 846 q 390 801 425 811 q 315 789 354 792 z "},"ẽ":{"ha":719,"x_min":50,"x_max":668,"o":"m 399 -17 q 261 8 325 -17 q 150 78 197 32 q 76 192 103 125 q 50 344 50 258 q 78 495 50 428 q 151 609 106 563 q 254 681 196 656 q 375 706 313 706 q 503 681 449 706 q 595 611 558 656 q 650 506 632 567 q 668 375 668 446 q 665 322 668 347 q 660 285 663 297 l 247 285 q 309 174 261 210 q 426 139 357 139 q 575 185 500 139 l 643 61 q 526 4 590 25 q 399 -17 461 -17 m 246 419 l 494 419 q 468 514 494 478 q 379 550 442 550 q 294 518 331 550 q 246 419 257 486 m 467 796 q 408 810 433 796 q 360 840 382 824 q 322 871 339 857 q 288 885 304 885 q 255 867 267 885 q 239 808 243 849 l 111 815 q 158 975 114 924 q 283 1026 203 1026 q 342 1013 317 1026 q 390 982 368 999 q 428 951 411 965 q 463 938 446 938 q 511 1014 503 938 l 639 1007 q 592 847 636 899 q 467 796 547 796 z "},"ế":{"ha":719,"x_min":50,"x_max":760,"o":"m 399 -17 q 261 8 325 -17 q 150 78 197 32 q 76 192 103 125 q 50 344 50 258 q 78 495 50 428 q 151 609 106 563 q 254 681 196 656 q 375 706 313 706 q 503 681 449 706 q 595 611 558 656 q 650 506 632 567 q 668 375 668 446 q 665 322 668 347 q 660 285 663 297 l 247 285 q 309 174 261 210 q 426 139 357 139 q 575 185 500 139 l 643 61 q 526 4 590 25 q 399 -17 461 -17 m 246 419 l 494 419 q 468 514 494 478 q 379 550 442 550 q 294 518 331 550 q 246 419 257 486 m 231 786 l 165 858 l 294 986 l 456 986 l 585 858 l 519 786 l 378 876 l 372 876 l 231 786 m 542 947 l 651 1124 l 760 1053 l 619 886 l 542 947 z "},"ề":{"ha":719,"x_min":-15,"x_max":668,"o":"m 399 -17 q 261 8 325 -17 q 150 78 197 32 q 76 192 103 125 q 50 344 50 258 q 78 495 50 428 q 151 609 106 563 q 254 681 196 656 q 375 706 313 706 q 503 681 449 706 q 595 611 558 656 q 650 506 632 567 q 668 375 668 446 q 665 322 668 347 q 660 285 663 297 l 247 285 q 309 174 261 210 q 426 139 357 139 q 575 185 500 139 l 643 61 q 526 4 590 25 q 399 -17 461 -17 m 246 419 l 494 419 q 468 514 494 478 q 379 550 442 550 q 294 518 331 550 q 246 419 257 486 m 231 786 l 165 858 l 294 986 l 456 986 l 585 858 l 519 786 l 378 876 l 372 876 l 231 786 m 208 947 l 131 886 l -15 1051 l 93 1124 l 208 947 z "},"ể":{"ha":719,"x_min":50,"x_max":728,"o":"m 399 -17 q 261 8 325 -17 q 150 78 197 32 q 76 192 103 125 q 50 344 50 258 q 78 495 50 428 q 151 609 106 563 q 254 681 196 656 q 375 706 313 706 q 503 681 449 706 q 595 611 558 656 q 650 506 632 567 q 668 375 668 446 q 665 322 668 347 q 660 285 663 297 l 247 285 q 309 174 261 210 q 426 139 357 139 q 575 185 500 139 l 643 61 q 526 4 590 25 q 399 -17 461 -17 m 246 419 l 494 419 q 468 514 494 478 q 379 550 442 550 q 294 518 331 550 q 246 419 257 486 m 231 786 l 165 858 l 294 986 l 456 986 l 585 858 l 519 786 l 378 876 l 372 876 l 231 786 m 567 894 l 553 964 q 583 977 572 969 q 594 1004 594 985 q 576 1035 594 1024 q 504 1050 557 1046 l 524 1136 q 683 1103 638 1132 q 728 1025 728 1074 q 715 969 728 992 q 680 931 701 946 q 629 907 658 915 q 567 894 600 899 z "},"ễ":{"ha":719,"x_min":50,"x_max":668,"o":"m 399 -17 q 261 8 325 -17 q 150 78 197 32 q 76 192 103 125 q 50 344 50 258 q 78 495 50 428 q 151 609 106 563 q 254 681 196 656 q 375 706 313 706 q 503 681 449 706 q 595 611 558 656 q 650 506 632 567 q 668 375 668 446 q 665 322 668 347 q 660 285 663 297 l 247 285 q 309 174 261 210 q 426 139 357 139 q 575 185 500 139 l 643 61 q 526 4 590 25 q 399 -17 461 -17 m 246 419 l 494 419 q 468 514 494 478 q 379 550 442 550 q 294 518 331 550 q 246 419 257 486 m 231 786 l 165 858 l 294 975 l 456 975 l 585 858 l 519 786 l 378 864 l 372 864 l 231 786 m 169 1010 q 210 1126 178 1089 q 294 1164 242 1164 q 344 1155 324 1164 q 383 1135 365 1146 q 415 1115 400 1124 q 444 1106 429 1106 q 488 1158 476 1106 l 581 1149 q 540 1032 572 1069 q 456 994 508 994 q 406 1003 426 994 q 367 1024 385 1013 q 335 1044 350 1035 q 306 1053 321 1053 q 263 1000 274 1053 l 169 1010 z "},"ệ":{"ha":719,"x_min":50,"x_max":668,"o":"m 399 -17 q 261 8 325 -17 q 150 78 197 32 q 76 192 103 125 q 50 344 50 258 q 78 495 50 428 q 151 609 106 563 q 254 681 196 656 q 375 706 313 706 q 503 681 449 706 q 595 611 558 656 q 650 506 632 567 q 668 375 668 446 q 665 322 668 347 q 660 285 663 297 l 247 285 q 309 174 261 210 q 426 139 357 139 q 575 185 500 139 l 643 61 q 526 4 590 25 q 399 -17 461 -17 m 246 419 l 494 419 q 468 514 494 478 q 379 550 442 550 q 294 518 331 550 q 246 419 257 486 m 121 851 l 271 1033 l 479 1033 l 629 851 l 551 779 l 378 907 l 372 907 l 199 779 l 121 851 m 374 -312 q 292 -283 324 -312 q 261 -206 261 -253 q 292 -128 261 -158 q 374 -99 324 -99 q 455 -128 424 -99 q 486 -206 486 -158 q 455 -283 486 -253 q 374 -312 424 -312 z "},"ę":{"ha":719,"x_min":50,"x_max":668,"o":"m 503 -292 q 399 -260 440 -292 q 358 -165 358 -228 q 384 -75 358 -114 q 436 -12 410 -36 q 415 -16 424 -15 q 399 -17 406 -17 q 261 8 325 -17 q 150 78 197 32 q 76 192 103 125 q 50 344 50 258 q 78 495 50 428 q 151 609 106 563 q 254 681 196 656 q 375 706 313 706 q 503 681 449 706 q 595 611 558 656 q 650 506 632 567 q 668 375 668 446 q 665 322 668 347 q 660 285 663 297 l 247 285 q 309 174 261 210 q 426 139 357 139 q 575 185 500 139 l 643 61 q 568 5 597 29 q 522 -40 539 -19 q 499 -79 506 -61 q 493 -118 493 -97 q 510 -158 493 -146 q 553 -171 528 -171 q 578 -166 567 -171 q 601 -154 590 -161 l 643 -246 q 576 -279 617 -267 q 503 -292 536 -292 m 246 419 l 494 419 q 468 514 494 478 q 379 550 442 550 q 294 518 331 550 q 246 419 257 486 z "},"ḗ":{"ha":719,"x_min":50,"x_max":668,"o":"m 399 -17 q 261 8 325 -17 q 150 78 197 32 q 76 192 103 125 q 50 344 50 258 q 78 495 50 428 q 151 609 106 563 q 254 681 196 656 q 375 706 313 706 q 503 681 449 706 q 595 611 558 656 q 650 506 632 567 q 668 375 668 446 q 665 322 668 347 q 660 285 663 297 l 247 285 q 309 174 261 210 q 426 139 357 139 q 575 185 500 139 l 643 61 q 526 4 590 25 q 399 -17 461 -17 m 246 419 l 494 419 q 468 514 494 478 q 379 550 442 550 q 294 518 331 550 q 246 419 257 486 m 336 990 l 268 1074 l 468 1219 l 551 1117 l 336 990 m 169 822 l 169 951 l 581 951 l 581 822 l 169 822 z "},"ǵ":{"ha":742,"x_min":47,"x_max":721,"o":"m 336 -293 q 223 -283 275 -293 q 131 -251 171 -272 q 69 -197 92 -231 q 47 -118 47 -164 q 146 21 47 -35 l 146 26 q 100 72 118 44 q 82 143 82 100 q 104 215 82 181 q 160 272 126 249 l 160 278 q 95 349 124 303 q 67 457 67 396 q 90 566 67 519 q 153 644 114 613 q 244 690 193 675 q 351 706 296 706 q 458 689 413 706 l 710 689 l 710 540 l 600 540 q 616 501 610 525 q 622 450 622 478 q 601 347 622 390 q 544 274 581 303 q 458 232 507 246 q 351 218 408 218 q 268 232 311 218 q 249 210 254 221 q 243 181 243 199 q 266 142 243 154 q 347 129 289 129 l 458 129 q 653 88 586 129 q 721 -46 721 47 q 694 -145 721 -100 q 617 -223 667 -190 q 496 -274 567 -256 q 336 -293 425 -293 m 351 342 q 419 370 392 342 q 446 457 446 399 q 419 540 446 511 q 351 568 392 568 q 284 540 311 568 q 257 457 257 513 q 284 370 257 399 q 351 342 311 342 m 368 -165 q 482 -141 438 -165 q 526 -81 526 -117 q 499 -37 526 -49 q 421 -26 472 -26 l 350 -26 q 292 -24 314 -26 q 253 -18 269 -22 q 215 -86 215 -51 q 257 -145 215 -125 q 368 -165 299 -165 m 401 794 l 301 894 l 515 1147 l 653 1013 l 401 794 z "},"ĝ":{"ha":742,"x_min":47,"x_max":721,"o":"m 336 -293 q 223 -283 275 -293 q 131 -251 171 -272 q 69 -197 92 -231 q 47 -118 47 -164 q 146 21 47 -35 l 146 26 q 100 72 118 44 q 82 143 82 100 q 104 215 82 181 q 160 272 126 249 l 160 278 q 95 349 124 303 q 67 457 67 396 q 90 566 67 519 q 153 644 114 613 q 244 690 193 675 q 351 706 296 706 q 458 689 413 706 l 710 689 l 710 540 l 600 540 q 616 501 610 525 q 622 450 622 478 q 601 347 622 390 q 544 274 581 303 q 458 232 507 246 q 351 218 408 218 q 268 232 311 218 q 249 210 254 221 q 243 181 243 199 q 266 142 243 154 q 347 129 289 129 l 458 129 q 653 88 586 129 q 721 -46 721 47 q 694 -145 721 -100 q 617 -223 667 -190 q 496 -274 567 -256 q 336 -293 425 -293 m 351 342 q 419 370 392 342 q 446 457 446 399 q 419 540 446 511 q 351 568 392 568 q 284 540 311 568 q 257 457 257 513 q 284 370 257 399 q 351 342 311 342 m 368 -165 q 482 -141 438 -165 q 526 -81 526 -117 q 499 -37 526 -49 q 421 -26 472 -26 l 350 -26 q 292 -24 314 -26 q 253 -18 269 -22 q 215 -86 215 -51 q 257 -145 215 -125 q 368 -165 299 -165 m 133 851 l 283 1033 l 492 1033 l 642 851 l 564 779 l 390 907 l 385 907 l 211 779 l 133 851 z "},"ğ":{"ha":742,"x_min":47,"x_max":721,"o":"m 336 -293 q 223 -283 275 -293 q 131 -251 171 -272 q 69 -197 92 -231 q 47 -118 47 -164 q 146 21 47 -35 l 146 26 q 100 72 118 44 q 82 143 82 100 q 104 215 82 181 q 160 272 126 249 l 160 278 q 95 349 124 303 q 67 457 67 396 q 90 566 67 519 q 153 644 114 613 q 244 690 193 675 q 351 706 296 706 q 458 689 413 706 l 710 689 l 710 540 l 600 540 q 616 501 610 525 q 622 450 622 478 q 601 347 622 390 q 544 274 581 303 q 458 232 507 246 q 351 218 408 218 q 268 232 311 218 q 249 210 254 221 q 243 181 243 199 q 266 142 243 154 q 347 129 289 129 l 458 129 q 653 88 586 129 q 721 -46 721 47 q 694 -145 721 -100 q 617 -223 667 -190 q 496 -274 567 -256 q 336 -293 425 -293 m 351 342 q 419 370 392 342 q 446 457 446 399 q 419 540 446 511 q 351 568 392 568 q 284 540 311 568 q 257 457 257 513 q 284 370 257 399 q 351 342 311 342 m 368 -165 q 482 -141 438 -165 q 526 -81 526 -117 q 499 -37 526 -49 q 421 -26 472 -26 l 350 -26 q 292 -24 314 -26 q 253 -18 269 -22 q 215 -86 215 -51 q 257 -145 215 -125 q 368 -165 299 -165 m 388 794 q 285 811 328 794 q 213 858 242 828 q 169 927 183 888 q 153 1013 154 967 l 269 1032 q 304 955 276 988 q 388 922 332 922 q 471 955 443 922 q 506 1032 499 988 l 622 1013 q 606 927 621 967 q 563 858 592 888 q 491 811 535 828 q 388 794 447 794 z "},"ġ":{"ha":742,"x_min":47,"x_max":721,"o":"m 336 -293 q 223 -283 275 -293 q 131 -251 171 -272 q 69 -197 92 -231 q 47 -118 47 -164 q 146 21 47 -35 l 146 26 q 100 72 118 44 q 82 143 82 100 q 104 215 82 181 q 160 272 126 249 l 160 278 q 95 349 124 303 q 67 457 67 396 q 90 566 67 519 q 153 644 114 613 q 244 690 193 675 q 351 706 296 706 q 458 689 413 706 l 710 689 l 710 540 l 600 540 q 616 501 610 525 q 622 450 622 478 q 601 347 622 390 q 544 274 581 303 q 458 232 507 246 q 351 218 408 218 q 268 232 311 218 q 249 210 254 221 q 243 181 243 199 q 266 142 243 154 q 347 129 289 129 l 458 129 q 653 88 586 129 q 721 -46 721 47 q 694 -145 721 -100 q 617 -223 667 -190 q 496 -274 567 -256 q 336 -293 425 -293 m 351 342 q 419 370 392 342 q 446 457 446 399 q 419 540 446 511 q 351 568 392 568 q 284 540 311 568 q 257 457 257 513 q 284 370 257 399 q 351 342 311 342 m 368 -165 q 482 -141 438 -165 q 526 -81 526 -117 q 499 -37 526 -49 q 421 -26 472 -26 l 350 -26 q 292 -24 314 -26 q 253 -18 269 -22 q 215 -86 215 -51 q 257 -145 215 -125 q 368 -165 299 -165 m 388 790 q 306 820 338 790 q 275 897 275 850 q 306 974 275 944 q 388 1004 338 1004 q 469 974 438 1004 q 500 897 500 944 q 469 820 500 850 q 388 790 438 790 z "},"ģ":{"ha":742,"x_min":47,"x_max":721,"o":"m 336 -293 q 223 -283 275 -293 q 131 -251 171 -272 q 69 -197 92 -231 q 47 -118 47 -164 q 146 21 47 -35 l 146 26 q 100 72 118 44 q 82 143 82 100 q 104 215 82 181 q 160 272 126 249 l 160 278 q 95 349 124 303 q 67 457 67 396 q 90 566 67 519 q 153 644 114 613 q 244 690 193 675 q 351 706 296 706 q 458 689 413 706 l 710 689 l 710 540 l 600 540 q 616 501 610 525 q 622 450 622 478 q 601 347 622 390 q 544 274 581 303 q 458 232 507 246 q 351 218 408 218 q 268 232 311 218 q 249 210 254 221 q 243 181 243 199 q 266 142 243 154 q 347 129 289 129 l 458 129 q 653 88 586 129 q 721 -46 721 47 q 694 -145 721 -100 q 617 -223 667 -190 q 496 -274 567 -256 q 336 -293 425 -293 m 351 342 q 419 370 392 342 q 446 457 446 399 q 419 540 446 511 q 351 568 392 568 q 284 540 311 568 q 257 457 257 513 q 284 370 257 399 q 351 342 311 342 m 368 -165 q 482 -141 438 -165 q 526 -81 526 -117 q 499 -37 526 -49 q 421 -26 472 -26 l 350 -26 q 292 -24 314 -26 q 253 -18 269 -22 q 215 -86 215 -51 q 257 -145 215 -125 q 368 -165 299 -165 m 451 789 q 298 826 340 799 q 256 906 256 854 q 327 1010 256 976 q 529 1049 399 1044 l 544 967 q 432 950 463 963 q 401 913 401 938 q 422 881 401 893 q 490 864 443 868 l 451 789 z "},"ǧ":{"ha":742,"x_min":47,"x_max":721,"o":"m 336 -293 q 223 -283 275 -293 q 131 -251 171 -272 q 69 -197 92 -231 q 47 -118 47 -164 q 146 21 47 -35 l 146 26 q 100 72 118 44 q 82 143 82 100 q 104 215 82 181 q 160 272 126 249 l 160 278 q 95 349 124 303 q 67 457 67 396 q 90 566 67 519 q 153 644 114 613 q 244 690 193 675 q 351 706 296 706 q 458 689 413 706 l 710 689 l 710 540 l 600 540 q 616 501 610 525 q 622 450 622 478 q 601 347 622 390 q 544 274 581 303 q 458 232 507 246 q 351 218 408 218 q 268 232 311 218 q 249 210 254 221 q 243 181 243 199 q 266 142 243 154 q 347 129 289 129 l 458 129 q 653 88 586 129 q 721 -46 721 47 q 694 -145 721 -100 q 617 -223 667 -190 q 496 -274 567 -256 q 336 -293 425 -293 m 351 342 q 419 370 392 342 q 446 457 446 399 q 419 540 446 511 q 351 568 392 568 q 284 540 311 568 q 257 457 257 513 q 284 370 257 399 q 351 342 311 342 m 368 -165 q 482 -141 438 -165 q 526 -81 526 -117 q 499 -37 526 -49 q 421 -26 472 -26 l 350 -26 q 292 -24 314 -26 q 253 -18 269 -22 q 215 -86 215 -51 q 257 -145 215 -125 q 368 -165 299 -165 m 283 801 l 133 983 l 211 1056 l 385 928 l 390 928 l 564 1056 l 642 983 l 492 801 l 283 801 z "},"ḡ":{"ha":742,"x_min":47,"x_max":721,"o":"m 336 -293 q 223 -283 275 -293 q 131 -251 171 -272 q 69 -197 92 -231 q 47 -118 47 -164 q 146 21 47 -35 l 146 26 q 100 72 118 44 q 82 143 82 100 q 104 215 82 181 q 160 272 126 249 l 160 278 q 95 349 124 303 q 67 457 67 396 q 90 566 67 519 q 153 644 114 613 q 244 690 193 675 q 351 706 296 706 q 458 689 413 706 l 710 689 l 710 540 l 600 540 q 616 501 610 525 q 622 450 622 478 q 601 347 622 390 q 544 274 581 303 q 458 232 507 246 q 351 218 408 218 q 268 232 311 218 q 249 210 254 221 q 243 181 243 199 q 266 142 243 154 q 347 129 289 129 l 458 129 q 653 88 586 129 q 721 -46 721 47 q 694 -145 721 -100 q 617 -223 667 -190 q 496 -274 567 -256 q 336 -293 425 -293 m 351 342 q 419 370 392 342 q 446 457 446 399 q 419 540 446 511 q 351 568 392 568 q 284 540 311 568 q 257 457 257 513 q 284 370 257 399 q 351 342 311 342 m 368 -165 q 482 -141 438 -165 q 526 -81 526 -117 q 499 -37 526 -49 q 421 -26 472 -26 l 350 -26 q 292 -24 314 -26 q 253 -18 269 -22 q 215 -86 215 -51 q 257 -145 215 -125 q 368 -165 299 -165 m 182 822 l 182 951 l 593 951 l 593 822 l 182 822 z "},"ĥ":{"ha":793,"x_min":-47,"x_max":711,"o":"m 90 0 l 90 974 l 294 974 l 294 735 l 285 611 q 375 676 324 646 q 497 706 426 706 q 660 632 610 706 q 711 428 711 558 l 711 0 l 507 0 l 507 401 q 487 504 507 476 q 422 532 467 532 q 356 515 383 532 q 294 465 328 497 l 294 0 l 90 0 m -47 1072 l 78 1226 l 300 1226 l 425 1072 l 336 1018 l 192 1135 l 186 1135 l 42 1018 l -47 1072 z "},"ḥ":{"ha":793,"x_min":90,"x_max":711,"o":"m 90 0 l 90 974 l 294 974 l 294 735 l 285 611 q 375 676 324 646 q 497 706 426 706 q 660 632 610 706 q 711 428 711 558 l 711 0 l 507 0 l 507 401 q 487 504 507 476 q 422 532 467 532 q 356 515 383 532 q 294 465 328 497 l 294 0 l 90 0 m 406 -312 q 324 -283 356 -312 q 293 -206 293 -253 q 324 -128 293 -158 q 406 -99 356 -99 q 487 -128 456 -99 q 518 -206 518 -158 q 487 -283 518 -253 q 406 -312 456 -312 z "},"ẖ":{"ha":793,"x_min":90,"x_max":711,"o":"m 90 0 l 90 974 l 294 974 l 294 735 l 285 611 q 375 676 324 646 q 497 706 426 706 q 660 632 610 706 q 711 428 711 558 l 711 0 l 507 0 l 507 401 q 487 504 507 476 q 422 532 467 532 q 356 515 383 532 q 294 465 328 497 l 294 0 l 90 0 m 200 -260 l 200 -131 l 611 -131 l 611 -260 l 200 -260 z "},"ḫ":{"ha":793,"x_min":90,"x_max":711,"o":"m 90 0 l 90 974 l 294 974 l 294 735 l 285 611 q 375 676 324 646 q 497 706 426 706 q 660 632 610 706 q 711 428 711 558 l 711 0 l 507 0 l 507 401 q 487 504 507 476 q 422 532 467 532 q 356 515 383 532 q 294 465 328 497 l 294 0 l 90 0 m 406 -322 q 303 -306 346 -322 q 231 -259 260 -289 q 187 -190 201 -229 q 171 -104 172 -150 l 288 -85 q 322 -162 294 -129 q 406 -194 350 -194 q 489 -162 461 -194 q 524 -85 517 -129 l 640 -104 q 624 -190 639 -150 q 581 -259 610 -229 q 509 -306 553 -289 q 406 -322 465 -322 z "},"ħ":{"ha":793,"x_min":-4,"x_max":711,"o":"m 90 0 l 90 772 l -4 772 l -4 863 l 90 869 l 90 974 l 294 974 l 294 871 l 529 871 l 529 772 l 294 772 l 294 668 l 285 543 q 326 578 304 561 q 375 608 349 594 q 432 631 401 622 q 497 639 463 639 q 660 565 610 639 q 711 361 711 492 l 711 0 l 507 0 l 507 335 q 487 437 507 410 q 422 464 467 464 q 356 447 383 464 q 294 397 328 429 l 294 0 l 90 0 z "},"ì":{"ha":383,"x_min":-74,"x_max":294,"o":"m 90 0 l 90 689 l 294 689 l 294 0 l 90 0 m 178 794 l -74 1013 l 64 1147 l 278 894 l 178 794 z "},"í":{"ha":383,"x_min":90,"x_max":457,"o":"m 90 0 l 90 689 l 294 689 l 294 0 l 90 0 m 206 794 l 106 894 l 319 1147 l 457 1013 l 206 794 z "},"î":{"ha":383,"x_min":-62,"x_max":446,"o":"m 90 0 l 90 689 l 294 689 l 294 0 l 90 0 m -62 851 l 88 1033 l 296 1033 l 446 851 l 368 779 l 194 907 l 189 907 l 15 779 l -62 851 z "},"ĩ":{"ha":383,"x_min":-72,"x_max":456,"o":"m 90 0 l 90 689 l 294 689 l 294 0 l 90 0 m 283 796 q 224 810 250 796 q 177 840 199 824 q 138 871 156 857 q 104 885 121 885 q 72 867 83 885 q 56 808 60 849 l -72 815 q -25 975 -69 924 q 100 1026 19 1026 q 159 1013 133 1026 q 206 982 185 999 q 245 951 228 965 q 279 938 263 938 q 328 1014 319 938 l 456 1007 q 408 847 453 899 q 283 796 364 796 z "},"ï":{"ha":383,"x_min":-60,"x_max":443,"o":"m 90 0 l 90 689 l 294 689 l 294 0 l 90 0 m 40 790 q -32 819 -4 790 q -60 890 -60 847 q -32 960 -60 932 q 40 989 -4 989 q 112 960 85 989 q 139 890 139 932 q 112 819 139 847 q 40 790 85 790 m 343 790 q 272 819 299 790 q 244 890 244 847 q 272 960 244 932 q 343 989 299 989 q 415 960 388 989 q 443 890 443 932 q 415 819 443 847 q 343 790 388 790 z "},"ī":{"ha":383,"x_min":-14,"x_max":397,"o":"m 90 0 l 90 689 l 294 689 l 294 0 l 90 0 m -14 822 l -14 951 l 397 951 l 397 822 l -14 822 z "},"ǐ":{"ha":383,"x_min":-62,"x_max":446,"o":"m 90 0 l 90 689 l 294 689 l 294 0 l 90 0 m 88 801 l -62 983 l 15 1056 l 189 928 l 194 928 l 368 1056 l 446 983 l 296 801 l 88 801 z "},"ỉ":{"ha":383,"x_min":67,"x_max":326,"o":"m 90 0 l 90 689 l 294 689 l 294 0 l 90 0 m 132 789 l 115 869 q 160 885 142 875 q 178 918 178 896 q 153 958 178 943 q 67 976 128 972 l 79 1101 q 194 1087 147 1100 q 271 1052 242 1074 q 313 1000 300 1031 q 326 933 326 969 q 310 872 326 897 q 268 828 294 846 q 206 801 242 811 q 132 789 171 792 z "},"ị":{"ha":383,"x_min":74,"x_max":310,"o":"m 90 0 l 90 689 l 294 689 l 294 0 l 90 0 m 192 790 q 107 820 140 790 q 74 897 74 850 q 107 974 74 944 q 192 1003 140 1003 q 277 974 244 1003 q 310 897 310 944 q 277 820 310 850 q 192 790 244 790 m 192 -312 q 110 -283 142 -312 q 79 -206 79 -253 q 110 -128 79 -158 q 192 -99 142 -99 q 273 -128 242 -99 q 304 -206 304 -158 q 273 -283 304 -253 q 192 -312 242 -312 z "},"į":{"ha":383,"x_min":57,"x_max":344,"o":"m 204 -292 q 99 -260 142 -292 q 57 -165 57 -228 q 66 -109 57 -135 q 89 -62 75 -83 q 119 -26 103 -42 q 147 0 135 -11 l 90 0 l 90 689 l 294 689 l 294 0 q 217 -53 239 -21 q 194 -118 194 -86 q 213 -158 194 -146 q 254 -171 231 -171 q 278 -166 267 -171 q 303 -154 290 -161 l 344 -246 q 277 -279 318 -267 q 204 -292 236 -292 m 192 790 q 107 820 140 790 q 74 897 74 850 q 107 974 74 944 q 192 1003 140 1003 q 276 974 243 1003 q 310 897 310 944 q 276 820 310 850 q 192 790 243 790 z "},"ĭ":{"ha":383,"x_min":-43,"x_max":426,"o":"m 90 0 l 90 689 l 294 689 l 294 0 l 90 0 m 192 794 q 89 811 132 794 q 17 858 46 828 q -27 927 -12 888 q -43 1013 -42 967 l 74 1032 q 108 955 81 988 q 192 922 136 922 q 275 955 247 922 q 310 1032 303 988 l 426 1013 q 410 927 425 967 q 367 858 396 888 q 295 811 339 828 q 192 794 251 794 z "},"ı":{"ha":383,"x_min":90,"x_max":294,"o":"m 90 0 l 90 689 l 294 689 l 294 0 l 90 0 z "},"ĵ":{"ha":386,"x_min":-71,"x_max":449,"o":"m 50 -272 q -22 -267 7 -272 q -71 -253 -50 -261 l -35 -103 q -8 -110 -21 -107 q 19 -112 4 -112 q 76 -86 60 -112 q 92 -1 92 -60 l 92 689 l 296 689 l 296 4 q 284 -103 296 -53 q 244 -190 272 -153 q 168 -250 215 -228 q 50 -272 121 -272 m -60 851 l 90 1033 l 299 1033 l 449 851 l 371 779 l 197 907 l 192 907 l 18 779 l -60 851 z "},"ķ":{"ha":761,"x_min":90,"x_max":753,"o":"m 90 0 l 90 974 l 289 974 l 289 415 l 294 415 l 513 689 l 735 689 l 493 406 l 753 0 l 532 0 l 376 268 l 289 169 l 289 0 l 90 0 m 268 -332 l 253 -250 q 365 -233 335 -246 q 396 -196 396 -219 q 375 -164 396 -176 q 307 -147 354 -151 l 346 -72 q 499 -110 457 -82 q 542 -189 542 -137 q 470 -294 542 -260 q 268 -332 399 -328 z "},"ḳ":{"ha":761,"x_min":90,"x_max":753,"o":"m 90 0 l 90 974 l 289 974 l 289 415 l 294 415 l 513 689 l 735 689 l 493 406 l 753 0 l 532 0 l 376 268 l 289 169 l 289 0 l 90 0 m 410 -312 q 328 -283 360 -312 q 297 -206 297 -253 q 328 -128 297 -158 q 410 -99 360 -99 q 491 -128 460 -99 q 522 -206 522 -158 q 491 -283 522 -253 q 410 -312 460 -312 z "},"ḵ":{"ha":761,"x_min":90,"x_max":753,"o":"m 90 0 l 90 974 l 289 974 l 289 415 l 294 415 l 513 689 l 735 689 l 493 406 l 753 0 l 532 0 l 376 268 l 289 169 l 289 0 l 90 0 m 204 -260 l 204 -131 l 615 -131 l 615 -260 l 204 -260 z "},"ĸ":{"ha":761,"x_min":90,"x_max":753,"o":"m 90 0 l 90 689 l 294 689 l 294 411 l 299 411 l 513 689 l 735 689 l 499 406 l 753 0 l 532 0 l 376 263 l 294 163 l 294 0 l 90 0 z "},"ĺ":{"ha":397,"x_min":90,"x_max":436,"o":"m 278 -17 q 189 0 225 -17 q 131 47 153 17 q 100 119 110 76 q 90 214 90 161 l 90 974 l 294 974 l 294 206 q 306 161 294 174 q 331 149 318 149 q 342 149 338 149 q 356 151 347 149 l 381 0 q 338 -12 364 -7 q 278 -17 313 -17 m 182 1021 l 90 1124 l 328 1318 l 436 1186 l 182 1021 z "},"ľ":{"ha":443,"x_min":90,"x_max":478,"o":"m 278 -17 q 189 0 225 -17 q 131 47 153 17 q 100 119 110 76 q 90 214 90 161 l 90 974 l 294 974 l 294 206 q 306 161 294 174 q 331 149 318 149 q 342 149 338 149 q 356 151 347 149 l 381 0 q 338 -12 364 -7 q 278 -17 313 -17 m 354 761 l 346 1069 l 478 1069 l 475 974 l 442 761 l 354 761 z "},"ŀ":{"ha":629,"x_min":90,"x_max":629,"o":"m 278 -17 q 189 0 225 -17 q 131 47 153 17 q 100 119 110 76 q 90 214 90 161 l 90 974 l 294 974 l 294 206 q 306 161 294 174 q 331 149 318 149 q 342 149 338 149 q 356 151 347 149 l 381 0 q 338 -12 364 -7 q 278 -17 313 -17 m 506 328 q 417 365 453 328 q 382 456 382 401 q 417 548 382 511 q 506 585 453 585 q 594 548 558 585 q 629 456 629 511 q 594 365 629 401 q 506 328 558 328 z "},"ļ":{"ha":397,"x_min":90,"x_max":392,"o":"m 278 -17 q 189 0 225 -17 q 131 47 153 17 q 100 119 110 76 q 90 214 90 161 l 90 974 l 294 974 l 294 206 q 306 161 294 174 q 331 149 318 149 q 342 149 338 149 q 356 151 347 149 l 381 0 q 338 -12 364 -7 q 278 -17 313 -17 m 118 -332 l 103 -250 q 215 -233 185 -246 q 246 -196 246 -219 q 225 -164 246 -176 q 157 -147 204 -151 l 196 -72 q 349 -110 307 -82 q 392 -189 392 -137 q 320 -294 392 -260 q 118 -332 249 -328 z "},"ḷ":{"ha":397,"x_min":90,"x_max":381,"o":"m 278 -17 q 189 0 225 -17 q 131 47 153 17 q 100 119 110 76 q 90 214 90 161 l 90 974 l 294 974 l 294 206 q 306 161 294 174 q 331 149 318 149 q 342 149 338 149 q 356 151 347 149 l 381 0 q 338 -12 364 -7 q 278 -17 313 -17 m 260 -312 q 178 -283 210 -312 q 147 -206 147 -253 q 178 -128 147 -158 q 260 -99 210 -99 q 341 -128 310 -99 q 372 -206 372 -158 q 341 -283 372 -253 q 260 -312 310 -312 z "},"ḹ":{"ha":397,"x_min":-15,"x_max":396,"o":"m 278 -17 q 189 0 225 -17 q 131 47 153 17 q 100 119 110 76 q 90 214 90 161 l 90 974 l 294 974 l 294 206 q 306 161 294 174 q 331 149 318 149 q 342 149 338 149 q 356 151 347 149 l 381 0 q 338 -12 364 -7 q 278 -17 313 -17 m -15 1117 l -15 1246 l 396 1246 l 396 1117 l -15 1117 m 260 -312 q 178 -283 210 -312 q 147 -206 147 -253 q 178 -128 147 -158 q 260 -99 210 -99 q 341 -128 310 -99 q 372 -206 372 -158 q 341 -283 372 -253 q 260 -312 310 -312 z "},"ḻ":{"ha":397,"x_min":54,"x_max":465,"o":"m 278 -17 q 189 0 225 -17 q 131 47 153 17 q 100 119 110 76 q 90 214 90 161 l 90 974 l 294 974 l 294 206 q 306 161 294 174 q 331 149 318 149 q 342 149 338 149 q 356 151 347 149 l 381 0 q 338 -12 364 -7 q 278 -17 313 -17 m 54 -260 l 54 -131 l 465 -131 l 465 -260 l 54 -260 z "},"ł":{"ha":421,"x_min":-29,"x_max":444,"o":"m 292 -17 q 203 0 239 -17 q 145 47 167 17 q 114 119 124 76 q 104 214 104 161 l 104 383 l 42 347 l -29 474 l 104 549 l 104 974 l 308 974 l 308 649 l 375 686 l 444 560 l 308 483 l 308 206 q 320 161 308 174 q 344 149 332 149 q 356 149 351 149 q 369 151 361 149 l 394 0 q 352 -12 378 -7 q 292 -17 326 -17 z "},"ḿ":{"ha":1190,"x_min":90,"x_max":1107,"o":"m 90 0 l 90 689 l 257 689 l 271 600 l 276 600 q 368 674 319 643 q 485 706 417 706 q 603 676 558 706 q 675 590 649 646 q 772 672 721 638 q 892 706 822 706 q 1055 631 1003 706 q 1107 428 1107 557 l 1107 0 l 903 0 l 903 401 q 883 504 903 476 q 818 532 863 532 q 700 465 767 532 l 700 0 l 496 0 l 496 401 q 476 504 496 476 q 411 532 456 532 q 294 465 358 532 l 294 0 l 90 0 m 622 794 l 522 894 l 736 1147 l 874 1013 l 622 794 z "},"ṁ":{"ha":1190,"x_min":90,"x_max":1107,"o":"m 90 0 l 90 689 l 257 689 l 271 600 l 276 600 q 368 674 319 643 q 485 706 417 706 q 603 676 558 706 q 675 590 649 646 q 772 672 721 638 q 892 706 822 706 q 1055 631 1003 706 q 1107 428 1107 557 l 1107 0 l 903 0 l 903 401 q 883 504 903 476 q 818 532 863 532 q 700 465 767 532 l 700 0 l 496 0 l 496 401 q 476 504 496 476 q 411 532 456 532 q 294 465 358 532 l 294 0 l 90 0 m 608 790 q 527 820 558 790 q 496 897 496 850 q 527 974 496 944 q 608 1004 558 1004 q 690 974 658 1004 q 721 897 721 944 q 690 820 721 850 q 608 790 658 790 z "},"ṃ":{"ha":1190,"x_min":90,"x_max":1107,"o":"m 90 0 l 90 689 l 257 689 l 271 600 l 276 600 q 368 674 319 643 q 485 706 417 706 q 603 676 558 706 q 675 590 649 646 q 772 672 721 638 q 892 706 822 706 q 1055 631 1003 706 q 1107 428 1107 557 l 1107 0 l 903 0 l 903 401 q 883 504 903 476 q 818 532 863 532 q 700 465 767 532 l 700 0 l 496 0 l 496 401 q 476 504 496 476 q 411 532 456 532 q 294 465 358 532 l 294 0 l 90 0 m 610 -312 q 528 -283 560 -312 q 497 -206 497 -253 q 528 -128 497 -158 q 610 -99 560 -99 q 691 -128 660 -99 q 722 -206 722 -158 q 691 -283 722 -253 q 610 -312 660 -312 z "},"ń":{"ha":794,"x_min":90,"x_max":711,"o":"m 90 0 l 90 689 l 257 689 l 271 601 l 276 601 q 374 674 321 643 q 497 706 426 706 q 660 632 610 706 q 711 428 711 558 l 711 0 l 507 0 l 507 401 q 487 504 507 476 q 422 532 467 532 q 356 515 383 532 q 294 465 328 497 l 294 0 l 90 0 m 442 794 l 342 894 l 556 1147 l 693 1013 l 442 794 z "},"ǹ":{"ha":794,"x_min":90,"x_max":711,"o":"m 90 0 l 90 689 l 257 689 l 271 601 l 276 601 q 374 674 321 643 q 497 706 426 706 q 660 632 610 706 q 711 428 711 558 l 711 0 l 507 0 l 507 401 q 487 504 507 476 q 422 532 467 532 q 356 515 383 532 q 294 465 328 497 l 294 0 l 90 0 m 414 794 l 163 1013 l 300 1147 l 514 894 l 414 794 z "},"ň":{"ha":794,"x_min":90,"x_max":711,"o":"m 90 0 l 90 689 l 257 689 l 271 601 l 276 601 q 374 674 321 643 q 497 706 426 706 q 660 632 610 706 q 711 428 711 558 l 711 0 l 507 0 l 507 401 q 487 504 507 476 q 422 532 467 532 q 356 515 383 532 q 294 465 328 497 l 294 0 l 90 0 m 324 801 l 174 983 l 251 1056 l 425 928 l 431 928 l 604 1056 l 682 983 l 532 801 l 324 801 z "},"ñ":{"ha":794,"x_min":90,"x_max":711,"o":"m 90 0 l 90 689 l 257 689 l 271 601 l 276 601 q 374 674 321 643 q 497 706 426 706 q 660 632 610 706 q 711 428 711 558 l 711 0 l 507 0 l 507 401 q 487 504 507 476 q 422 532 467 532 q 356 515 383 532 q 294 465 328 497 l 294 0 l 90 0 m 519 796 q 460 810 486 796 q 413 840 435 824 q 374 871 392 857 q 340 885 357 885 q 308 867 319 885 q 292 808 296 849 l 164 815 q 211 975 167 924 q 336 1026 256 1026 q 395 1013 369 1026 q 442 982 421 999 q 481 951 464 965 q 515 938 499 938 q 564 1014 556 938 l 692 1007 q 644 847 689 899 q 519 796 600 796 z "},"ņ":{"ha":794,"x_min":90,"x_max":711,"o":"m 90 0 l 90 689 l 257 689 l 271 601 l 276 601 q 374 674 321 643 q 497 706 426 706 q 660 632 610 706 q 711 428 711 558 l 711 0 l 507 0 l 507 401 q 487 504 507 476 q 422 532 467 532 q 356 515 383 532 q 294 465 328 497 l 294 0 l 90 0 m 263 -332 l 247 -250 q 360 -233 329 -246 q 390 -196 390 -219 q 369 -164 390 -176 q 301 -147 349 -151 l 340 -72 q 494 -110 451 -82 q 536 -189 536 -137 q 465 -294 536 -260 q 263 -332 393 -328 z "},"ṅ":{"ha":794,"x_min":90,"x_max":711,"o":"m 90 0 l 90 689 l 257 689 l 271 601 l 276 601 q 374 674 321 643 q 497 706 426 706 q 660 632 610 706 q 711 428 711 558 l 711 0 l 507 0 l 507 401 q 487 504 507 476 q 422 532 467 532 q 356 515 383 532 q 294 465 328 497 l 294 0 l 90 0 m 428 790 q 347 820 378 790 q 315 897 315 850 q 347 974 315 944 q 428 1004 378 1004 q 509 974 478 1004 q 540 897 540 944 q 509 820 540 850 q 428 790 478 790 z "},"ṇ":{"ha":794,"x_min":90,"x_max":711,"o":"m 90 0 l 90 689 l 257 689 l 271 601 l 276 601 q 374 674 321 643 q 497 706 426 706 q 660 632 610 706 q 711 428 711 558 l 711 0 l 507 0 l 507 401 q 487 504 507 476 q 422 532 467 532 q 356 515 383 532 q 294 465 328 497 l 294 0 l 90 0 m 404 -312 q 323 -283 354 -312 q 292 -206 292 -253 q 323 -128 292 -158 q 404 -99 354 -99 q 485 -128 454 -99 q 517 -206 517 -158 q 485 -283 517 -253 q 404 -312 454 -312 z "},"ṉ":{"ha":794,"x_min":90,"x_max":711,"o":"m 90 0 l 90 689 l 257 689 l 271 601 l 276 601 q 374 674 321 643 q 497 706 426 706 q 660 632 610 706 q 711 428 711 558 l 711 0 l 507 0 l 507 401 q 487 504 507 476 q 422 532 467 532 q 356 515 383 532 q 294 465 328 497 l 294 0 l 90 0 m 199 -260 l 199 -131 l 610 -131 l 610 -260 l 199 -260 z "},"ŉ":{"ha":1183,"x_min":99,"x_max":1097,"o":"m 476 0 l 476 689 l 643 689 l 657 601 l 663 601 q 760 674 707 643 q 883 706 813 706 q 1047 632 996 706 q 1097 428 1097 558 l 1097 0 l 893 0 l 893 401 q 873 504 893 476 q 808 532 853 532 q 742 515 769 532 q 681 465 714 497 l 681 0 l 476 0 m 143 489 l 99 578 q 192 651 161 610 q 224 754 224 692 q 211 753 219 753 q 135 780 167 753 q 104 854 104 807 q 134 938 104 907 q 211 968 164 968 q 308 921 275 968 q 342 786 342 874 q 292 613 342 688 q 143 489 243 538 z "},"ò":{"ha":771,"x_min":50,"x_max":721,"o":"m 386 -17 q 260 8 321 -17 q 152 78 199 32 q 78 191 106 124 q 50 344 50 258 q 78 498 50 431 q 152 611 106 565 q 260 681 199 657 q 386 706 321 706 q 512 681 451 706 q 619 611 572 657 q 693 498 665 565 q 721 344 721 431 q 693 191 721 258 q 619 78 665 124 q 512 8 572 32 q 386 -17 451 -17 m 386 149 q 481 201 449 149 q 513 344 513 254 q 481 488 513 435 q 386 540 449 540 q 291 488 322 540 q 260 344 260 435 q 291 201 260 254 q 386 149 322 149 m 371 794 l 119 1013 l 257 1147 l 471 894 l 371 794 z "},"ó":{"ha":771,"x_min":50,"x_max":721,"o":"m 386 -17 q 260 8 321 -17 q 152 78 199 32 q 78 191 106 124 q 50 344 50 258 q 78 498 50 431 q 152 611 106 565 q 260 681 199 657 q 386 706 321 706 q 512 681 451 706 q 619 611 572 657 q 693 498 665 565 q 721 344 721 431 q 693 191 721 258 q 619 78 665 124 q 512 8 572 32 q 386 -17 451 -17 m 386 149 q 481 201 449 149 q 513 344 513 254 q 481 488 513 435 q 386 540 449 540 q 291 488 322 540 q 260 344 260 435 q 291 201 260 254 q 386 149 322 149 m 399 794 l 299 894 l 513 1147 l 650 1013 l 399 794 z "},"ô":{"ha":771,"x_min":50,"x_max":721,"o":"m 386 -17 q 260 8 321 -17 q 152 78 199 32 q 78 191 106 124 q 50 344 50 258 q 78 498 50 431 q 152 611 106 565 q 260 681 199 657 q 386 706 321 706 q 512 681 451 706 q 619 611 572 657 q 693 498 665 565 q 721 344 721 431 q 693 191 721 258 q 619 78 665 124 q 512 8 572 32 q 386 -17 451 -17 m 386 149 q 481 201 449 149 q 513 344 513 254 q 481 488 513 435 q 386 540 449 540 q 291 488 322 540 q 260 344 260 435 q 291 201 260 254 q 386 149 322 149 m 131 851 l 281 1033 l 489 1033 l 639 851 l 561 779 l 388 907 l 382 907 l 208 779 l 131 851 z "},"õ":{"ha":771,"x_min":50,"x_max":721,"o":"m 386 -17 q 260 8 321 -17 q 152 78 199 32 q 78 191 106 124 q 50 344 50 258 q 78 498 50 431 q 152 611 106 565 q 260 681 199 657 q 386 706 321 706 q 512 681 451 706 q 619 611 572 657 q 693 498 665 565 q 721 344 721 431 q 693 191 721 258 q 619 78 665 124 q 512 8 572 32 q 386 -17 451 -17 m 386 149 q 481 201 449 149 q 513 344 513 254 q 481 488 513 435 q 386 540 449 540 q 291 488 322 540 q 260 344 260 435 q 291 201 260 254 q 386 149 322 149 m 476 796 q 417 810 443 796 q 370 840 392 824 q 331 871 349 857 q 297 885 314 885 q 265 867 276 885 q 249 808 253 849 l 121 815 q 168 975 124 924 q 293 1026 213 1026 q 352 1013 326 1026 q 399 982 378 999 q 438 951 421 965 q 472 938 456 938 q 521 1014 513 938 l 649 1007 q 601 847 646 899 q 476 796 557 796 z "},"ö":{"ha":771,"x_min":50,"x_max":721,"o":"m 386 -17 q 260 8 321 -17 q 152 78 199 32 q 78 191 106 124 q 50 344 50 258 q 78 498 50 431 q 152 611 106 565 q 260 681 199 657 q 386 706 321 706 q 512 681 451 706 q 619 611 572 657 q 693 498 665 565 q 721 344 721 431 q 693 191 721 258 q 619 78 665 124 q 512 8 572 32 q 386 -17 451 -17 m 386 149 q 481 201 449 149 q 513 344 513 254 q 481 488 513 435 q 386 540 449 540 q 291 488 322 540 q 260 344 260 435 q 291 201 260 254 q 386 149 322 149 m 233 790 q 161 819 189 790 q 133 890 133 847 q 161 960 133 932 q 233 989 189 989 q 305 960 278 989 q 332 890 332 932 q 305 819 332 847 q 233 790 278 790 m 536 790 q 465 819 492 790 q 438 890 438 847 q 465 960 438 932 q 536 989 492 989 q 608 960 581 989 q 636 890 636 932 q 608 819 636 847 q 536 790 581 790 z "},"ō":{"ha":771,"x_min":50,"x_max":721,"o":"m 386 -17 q 260 8 321 -17 q 152 78 199 32 q 78 191 106 124 q 50 344 50 258 q 78 498 50 431 q 152 611 106 565 q 260 681 199 657 q 386 706 321 706 q 512 681 451 706 q 619 611 572 657 q 693 498 665 565 q 721 344 721 431 q 693 191 721 258 q 619 78 665 124 q 512 8 572 32 q 386 -17 451 -17 m 386 149 q 481 201 449 149 q 513 344 513 254 q 481 488 513 435 q 386 540 449 540 q 291 488 322 540 q 260 344 260 435 q 291 201 260 254 q 386 149 322 149 m 179 822 l 179 951 l 590 951 l 590 822 l 179 822 z "},"ő":{"ha":771,"x_min":50,"x_max":721,"o":"m 386 -17 q 260 8 321 -17 q 152 78 199 32 q 78 191 106 124 q 50 344 50 258 q 78 498 50 431 q 152 611 106 565 q 260 681 199 657 q 386 706 321 706 q 512 681 451 706 q 619 611 572 657 q 693 498 665 565 q 721 344 721 431 q 693 191 721 258 q 619 78 665 124 q 512 8 572 32 q 386 -17 451 -17 m 386 149 q 481 201 449 149 q 513 344 513 254 q 481 488 513 435 q 386 540 449 540 q 291 488 322 540 q 260 344 260 435 q 291 201 260 254 q 386 149 322 149 m 313 785 l 206 833 l 326 1085 l 464 1024 l 313 785 m 561 785 l 454 833 l 575 1085 l 713 1024 l 561 785 z "},"ǒ":{"ha":771,"x_min":50,"x_max":721,"o":"m 386 -17 q 260 8 321 -17 q 152 78 199 32 q 78 191 106 124 q 50 344 50 258 q 78 498 50 431 q 152 611 106 565 q 260 681 199 657 q 386 706 321 706 q 512 681 451 706 q 619 611 572 657 q 693 498 665 565 q 721 344 721 431 q 693 191 721 258 q 619 78 665 124 q 512 8 572 32 q 386 -17 451 -17 m 386 149 q 481 201 449 149 q 513 344 513 254 q 481 488 513 435 q 386 540 449 540 q 291 488 322 540 q 260 344 260 435 q 291 201 260 254 q 386 149 322 149 m 281 801 l 131 983 l 208 1056 l 382 928 l 388 928 l 561 1056 l 639 983 l 489 801 l 281 801 z "},"ọ":{"ha":771,"x_min":50,"x_max":721,"o":"m 386 -17 q 260 8 321 -17 q 152 78 199 32 q 78 191 106 124 q 50 344 50 258 q 78 498 50 431 q 152 611 106 565 q 260 681 199 657 q 386 706 321 706 q 512 681 451 706 q 619 611 572 657 q 693 498 665 565 q 721 344 721 431 q 693 191 721 258 q 619 78 665 124 q 512 8 572 32 q 386 -17 451 -17 m 386 149 q 481 201 449 149 q 513 344 513 254 q 481 488 513 435 q 386 540 449 540 q 291 488 322 540 q 260 344 260 435 q 291 201 260 254 q 386 149 322 149 m 385 -312 q 303 -283 335 -312 q 272 -206 272 -253 q 303 -128 272 -158 q 385 -99 335 -99 q 466 -128 435 -99 q 497 -206 497 -158 q 466 -283 497 -253 q 385 -312 435 -312 z "},"ỏ":{"ha":771,"x_min":50,"x_max":721,"o":"m 386 -17 q 260 8 321 -17 q 152 78 199 32 q 78 191 106 124 q 50 344 50 258 q 78 498 50 431 q 152 611 106 565 q 260 681 199 657 q 386 706 321 706 q 512 681 451 706 q 619 611 572 657 q 693 498 665 565 q 721 344 721 431 q 693 191 721 258 q 619 78 665 124 q 512 8 572 32 q 386 -17 451 -17 m 386 149 q 481 201 449 149 q 513 344 513 254 q 481 488 513 435 q 386 540 449 540 q 291 488 322 540 q 260 344 260 435 q 291 201 260 254 q 386 149 322 149 m 325 789 l 308 869 q 353 885 335 875 q 371 918 371 896 q 346 958 371 943 q 260 976 321 972 l 272 1101 q 388 1087 340 1100 q 464 1052 435 1074 q 506 1000 493 1031 q 519 933 519 969 q 503 872 519 897 q 461 828 488 846 q 399 801 435 811 q 325 789 364 792 z "},"ố":{"ha":771,"x_min":50,"x_max":769,"o":"m 386 -17 q 260 8 321 -17 q 152 78 199 32 q 78 191 106 124 q 50 344 50 258 q 78 498 50 431 q 152 611 106 565 q 260 681 199 657 q 386 706 321 706 q 512 681 451 706 q 619 611 572 657 q 693 498 665 565 q 721 344 721 431 q 693 191 721 258 q 619 78 665 124 q 512 8 572 32 q 386 -17 451 -17 m 386 149 q 481 201 449 149 q 513 344 513 254 q 481 488 513 435 q 386 540 449 540 q 291 488 322 540 q 260 344 260 435 q 291 201 260 254 q 386 149 322 149 m 240 786 l 175 858 l 304 986 l 465 986 l 594 858 l 529 786 l 388 876 l 382 876 l 240 786 m 551 947 l 661 1124 l 769 1053 l 629 886 l 551 947 z "},"ồ":{"ha":771,"x_min":-6,"x_max":721,"o":"m 386 -17 q 260 8 321 -17 q 152 78 199 32 q 78 191 106 124 q 50 344 50 258 q 78 498 50 431 q 152 611 106 565 q 260 681 199 657 q 386 706 321 706 q 512 681 451 706 q 619 611 572 657 q 693 498 665 565 q 721 344 721 431 q 693 191 721 258 q 619 78 665 124 q 512 8 572 32 q 386 -17 451 -17 m 386 149 q 481 201 449 149 q 513 344 513 254 q 481 488 513 435 q 386 540 449 540 q 291 488 322 540 q 260 344 260 435 q 291 201 260 254 q 386 149 322 149 m 240 786 l 175 858 l 304 986 l 465 986 l 594 858 l 529 786 l 388 876 l 382 876 l 240 786 m 218 947 l 140 886 l -6 1051 l 103 1124 l 218 947 z "},"ổ":{"ha":771,"x_min":50,"x_max":738,"o":"m 386 -17 q 260 8 321 -17 q 152 78 199 32 q 78 191 106 124 q 50 344 50 258 q 78 498 50 431 q 152 611 106 565 q 260 681 199 657 q 386 706 321 706 q 512 681 451 706 q 619 611 572 657 q 693 498 665 565 q 721 344 721 431 q 693 191 721 258 q 619 78 665 124 q 512 8 572 32 q 386 -17 451 -17 m 386 149 q 481 201 449 149 q 513 344 513 254 q 481 488 513 435 q 386 540 449 540 q 291 488 322 540 q 260 344 260 435 q 291 201 260 254 q 386 149 322 149 m 240 786 l 175 858 l 304 986 l 465 986 l 594 858 l 529 786 l 388 876 l 382 876 l 240 786 m 576 894 l 563 964 q 593 977 582 969 q 604 1004 604 985 q 585 1035 604 1024 q 514 1050 567 1046 l 533 1136 q 692 1103 647 1132 q 738 1025 738 1074 q 724 969 738 992 q 690 931 711 946 q 639 907 668 915 q 576 894 610 899 z "},"ỗ":{"ha":771,"x_min":50,"x_max":721,"o":"m 386 -17 q 260 8 321 -17 q 152 78 199 32 q 78 191 106 124 q 50 344 50 258 q 78 498 50 431 q 152 611 106 565 q 260 681 199 657 q 386 706 321 706 q 512 681 451 706 q 619 611 572 657 q 693 498 665 565 q 721 344 721 431 q 693 191 721 258 q 619 78 665 124 q 512 8 572 32 q 386 -17 451 -17 m 386 149 q 481 201 449 149 q 513 344 513 254 q 481 488 513 435 q 386 540 449 540 q 291 488 322 540 q 260 344 260 435 q 291 201 260 254 q 386 149 322 149 m 240 786 l 175 858 l 304 975 l 465 975 l 594 858 l 529 786 l 388 864 l 382 864 l 240 786 m 179 1010 q 219 1126 188 1089 q 304 1164 251 1164 q 354 1155 333 1164 q 392 1135 375 1146 q 424 1115 410 1124 q 454 1106 439 1106 q 497 1158 486 1106 l 590 1149 q 550 1032 582 1069 q 465 994 518 994 q 415 1003 436 994 q 377 1024 394 1013 q 345 1044 360 1035 q 315 1053 331 1053 q 272 1000 283 1053 l 179 1010 z "},"ộ":{"ha":771,"x_min":50,"x_max":721,"o":"m 386 -17 q 260 8 321 -17 q 152 78 199 32 q 78 191 106 124 q 50 344 50 258 q 78 498 50 431 q 152 611 106 565 q 260 681 199 657 q 386 706 321 706 q 512 681 451 706 q 619 611 572 657 q 693 498 665 565 q 721 344 721 431 q 693 191 721 258 q 619 78 665 124 q 512 8 572 32 q 386 -17 451 -17 m 386 149 q 481 201 449 149 q 513 344 513 254 q 481 488 513 435 q 386 540 449 540 q 291 488 322 540 q 260 344 260 435 q 291 201 260 254 q 386 149 322 149 m 131 851 l 281 1033 l 489 1033 l 639 851 l 561 779 l 388 907 l 382 907 l 208 779 l 131 851 m 385 -312 q 303 -283 335 -312 q 272 -206 272 -253 q 303 -128 272 -158 q 385 -99 335 -99 q 466 -128 435 -99 q 497 -206 497 -158 q 466 -283 497 -253 q 385 -312 435 -312 z "},"ŏ":{"ha":771,"x_min":50,"x_max":721,"o":"m 386 -17 q 260 8 321 -17 q 152 78 199 32 q 78 191 106 124 q 50 344 50 258 q 78 498 50 431 q 152 611 106 565 q 260 681 199 657 q 386 706 321 706 q 512 681 451 706 q 619 611 572 657 q 693 498 665 565 q 721 344 721 431 q 693 191 721 258 q 619 78 665 124 q 512 8 572 32 q 386 -17 451 -17 m 386 149 q 481 201 449 149 q 513 344 513 254 q 481 488 513 435 q 386 540 449 540 q 291 488 322 540 q 260 344 260 435 q 291 201 260 254 q 386 149 322 149 m 385 794 q 282 811 325 794 q 210 858 239 828 q 166 927 181 888 q 150 1013 151 967 l 267 1032 q 301 955 274 988 q 385 922 329 922 q 468 955 440 922 q 503 1032 496 988 l 619 1013 q 603 927 618 967 q 560 858 589 888 q 488 811 532 828 q 385 794 444 794 z "},"ṓ":{"ha":771,"x_min":50,"x_max":721,"o":"m 386 -17 q 260 8 321 -17 q 152 78 199 32 q 78 191 106 124 q 50 344 50 258 q 78 498 50 431 q 152 611 106 565 q 260 681 199 657 q 386 706 321 706 q 512 681 451 706 q 619 611 572 657 q 693 498 665 565 q 721 344 721 431 q 693 191 721 258 q 619 78 665 124 q 512 8 572 32 q 386 -17 451 -17 m 386 149 q 481 201 449 149 q 513 344 513 254 q 481 488 513 435 q 386 540 449 540 q 291 488 322 540 q 260 344 260 435 q 291 201 260 254 q 386 149 322 149 m 346 990 l 278 1074 l 478 1219 l 561 1117 l 346 990 m 179 822 l 179 951 l 590 951 l 590 822 l 179 822 z "},"ø":{"ha":771,"x_min":50,"x_max":721,"o":"m 386 -17 q 200 39 283 -17 l 140 -35 l 64 24 l 129 104 q 72 209 93 149 q 50 344 50 269 q 78 498 50 431 q 152 611 106 565 q 260 681 199 657 q 386 706 321 706 q 482 692 435 706 q 569 651 529 678 l 631 726 l 707 667 l 642 586 q 699 480 678 540 q 721 344 721 419 q 693 191 721 258 q 619 78 665 124 q 512 8 572 32 q 386 -17 451 -17 m 247 356 q 257 263 247 300 l 464 521 q 386 547 433 547 q 285 495 322 547 q 247 356 247 443 m 386 142 q 486 194 449 142 q 524 333 524 246 q 514 428 524 390 l 306 169 q 386 142 338 142 z "},"œ":{"ha":1142,"x_min":50,"x_max":1092,"o":"m 371 -17 q 246 8 304 -17 q 144 78 188 32 q 75 191 100 124 q 50 344 50 258 q 76 498 50 431 q 147 611 103 565 q 251 681 192 657 q 375 706 310 706 q 503 674 449 706 q 599 585 558 642 q 697 674 640 643 q 817 706 754 706 q 936 680 885 706 q 1022 609 988 654 q 1074 503 1057 564 q 1092 371 1092 442 q 1089 320 1092 343 q 1083 285 1086 297 l 685 285 q 742 178 696 213 q 850 143 788 143 q 924 157 889 143 q 996 193 958 171 l 1067 61 q 949 4 1014 25 q 822 -17 883 -17 q 701 15 760 -17 q 600 104 643 46 q 502 14 557 44 q 371 -17 447 -17 m 375 149 q 464 201 432 149 q 496 344 496 254 q 464 488 496 435 q 375 540 432 540 q 288 488 318 540 q 257 344 257 435 q 288 201 257 254 q 375 149 318 149 m 685 410 l 917 410 q 892 511 917 472 q 810 550 867 550 q 727 516 761 550 q 685 410 693 482 z "},"ơ":{"ha":771,"x_min":50,"x_max":785,"o":"m 386 -17 q 260 8 321 -17 q 152 78 199 32 q 78 191 106 124 q 50 344 50 258 q 78 498 50 431 q 152 611 106 565 q 260 681 199 657 q 386 706 321 706 q 519 678 456 706 q 588 717 561 689 q 614 803 614 744 q 608 847 614 826 q 592 882 601 867 l 743 947 q 772 891 758 926 q 785 817 785 856 q 772 742 785 775 q 735 683 758 708 q 683 639 713 657 q 618 611 653 621 q 693 497 665 564 q 721 344 721 431 q 693 191 721 258 q 619 78 665 124 q 512 8 572 32 q 386 -17 451 -17 m 386 149 q 481 201 449 149 q 513 344 513 254 q 481 488 513 435 q 386 540 449 540 q 291 488 322 540 q 260 344 260 435 q 291 201 260 254 q 386 149 322 149 z "},"ớ":{"ha":771,"x_min":50,"x_max":785,"o":"m 386 -17 q 260 8 321 -17 q 152 78 199 32 q 78 191 106 124 q 50 344 50 258 q 78 498 50 431 q 152 611 106 565 q 260 681 199 657 q 386 706 321 706 q 519 678 456 706 q 588 717 561 689 q 614 803 614 744 q 608 847 614 826 q 592 882 601 867 l 743 947 q 772 891 758 926 q 785 817 785 856 q 772 742 785 775 q 735 683 758 708 q 683 639 713 657 q 618 611 653 621 q 693 497 665 564 q 721 344 721 431 q 693 191 721 258 q 619 78 665 124 q 512 8 572 32 q 386 -17 451 -17 m 386 149 q 481 201 449 149 q 513 344 513 254 q 481 488 513 435 q 386 540 449 540 q 291 488 322 540 q 260 344 260 435 q 291 201 260 254 q 386 149 322 149 m 399 794 l 299 894 l 513 1147 l 650 1013 l 399 794 z "},"ờ":{"ha":771,"x_min":50,"x_max":785,"o":"m 386 -17 q 260 8 321 -17 q 152 78 199 32 q 78 191 106 124 q 50 344 50 258 q 78 498 50 431 q 152 611 106 565 q 260 681 199 657 q 386 706 321 706 q 519 678 456 706 q 588 717 561 689 q 614 803 614 744 q 608 847 614 826 q 592 882 601 867 l 743 947 q 772 891 758 926 q 785 817 785 856 q 772 742 785 775 q 735 683 758 708 q 683 639 713 657 q 618 611 653 621 q 693 497 665 564 q 721 344 721 431 q 693 191 721 258 q 619 78 665 124 q 512 8 572 32 q 386 -17 451 -17 m 386 149 q 481 201 449 149 q 513 344 513 254 q 481 488 513 435 q 386 540 449 540 q 291 488 322 540 q 260 344 260 435 q 291 201 260 254 q 386 149 322 149 m 371 794 l 119 1013 l 257 1147 l 471 894 l 371 794 z "},"ở":{"ha":771,"x_min":50,"x_max":785,"o":"m 386 -17 q 260 8 321 -17 q 152 78 199 32 q 78 191 106 124 q 50 344 50 258 q 78 498 50 431 q 152 611 106 565 q 260 681 199 657 q 386 706 321 706 q 519 678 456 706 q 588 717 561 689 q 614 803 614 744 q 608 847 614 826 q 592 882 601 867 l 743 947 q 772 891 758 926 q 785 817 785 856 q 772 742 785 775 q 735 683 758 708 q 683 639 713 657 q 618 611 653 621 q 693 497 665 564 q 721 344 721 431 q 693 191 721 258 q 619 78 665 124 q 512 8 572 32 q 386 -17 451 -17 m 386 149 q 481 201 449 149 q 513 344 513 254 q 481 488 513 435 q 386 540 449 540 q 291 488 322 540 q 260 344 260 435 q 291 201 260 254 q 386 149 322 149 m 325 789 l 308 869 q 353 885 335 875 q 371 918 371 896 q 346 958 371 943 q 260 976 321 972 l 272 1101 q 388 1087 340 1100 q 464 1052 435 1074 q 506 1000 493 1031 q 519 933 519 969 q 503 872 519 897 q 461 828 488 846 q 399 801 435 811 q 325 789 364 792 z "},"ỡ":{"ha":771,"x_min":50,"x_max":785,"o":"m 386 -17 q 260 8 321 -17 q 152 78 199 32 q 78 191 106 124 q 50 344 50 258 q 78 498 50 431 q 152 611 106 565 q 260 681 199 657 q 386 706 321 706 q 519 678 456 706 q 588 717 561 689 q 614 803 614 744 q 608 847 614 826 q 592 882 601 867 l 743 947 q 772 891 758 926 q 785 817 785 856 q 772 742 785 775 q 735 683 758 708 q 683 639 713 657 q 618 611 653 621 q 693 497 665 564 q 721 344 721 431 q 693 191 721 258 q 619 78 665 124 q 512 8 572 32 q 386 -17 451 -17 m 386 149 q 481 201 449 149 q 513 344 513 254 q 481 488 513 435 q 386 540 449 540 q 291 488 322 540 q 260 344 260 435 q 291 201 260 254 q 386 149 322 149 m 431 796 q 372 810 397 796 q 324 840 346 824 q 285 871 303 857 q 251 885 268 885 q 219 867 231 885 q 203 808 207 849 l 75 815 q 122 975 78 924 q 247 1026 167 1026 q 306 1013 281 1026 q 353 982 332 999 q 392 951 375 965 q 426 938 410 938 q 475 1014 467 938 l 603 1007 q 556 847 600 899 q 431 796 511 796 z "},"ợ":{"ha":771,"x_min":50,"x_max":785,"o":"m 386 -17 q 260 8 321 -17 q 152 78 199 32 q 78 191 106 124 q 50 344 50 258 q 78 498 50 431 q 152 611 106 565 q 260 681 199 657 q 386 706 321 706 q 519 678 456 706 q 588 717 561 689 q 614 803 614 744 q 608 847 614 826 q 592 882 601 867 l 743 947 q 772 891 758 926 q 785 817 785 856 q 772 742 785 775 q 735 683 758 708 q 683 639 713 657 q 618 611 653 621 q 693 497 665 564 q 721 344 721 431 q 693 191 721 258 q 619 78 665 124 q 512 8 572 32 q 386 -17 451 -17 m 386 149 q 481 201 449 149 q 513 344 513 254 q 481 488 513 435 q 386 540 449 540 q 291 488 322 540 q 260 344 260 435 q 291 201 260 254 q 386 149 322 149 m 385 -312 q 303 -283 335 -312 q 272 -206 272 -253 q 303 -128 272 -158 q 385 -99 335 -99 q 466 -128 435 -99 q 497 -206 497 -158 q 466 -283 497 -253 q 385 -312 435 -312 z "},"ǫ":{"ha":771,"x_min":50,"x_max":721,"o":"m 413 -292 q 308 -260 350 -292 q 265 -165 265 -228 q 273 -116 265 -139 q 292 -74 281 -93 q 316 -40 303 -54 q 342 -14 329 -25 q 230 21 283 -7 q 137 94 176 49 q 74 203 97 140 q 50 344 50 265 q 78 498 50 431 q 152 611 106 565 q 260 681 199 657 q 386 706 321 706 q 512 681 451 706 q 619 611 572 657 q 693 498 665 565 q 721 344 721 431 q 705 222 721 275 q 659 128 689 169 q 588 55 629 86 q 496 0 546 24 q 424 -56 444 -24 q 403 -118 403 -87 q 421 -158 403 -146 q 461 -171 439 -171 q 488 -166 475 -171 q 511 -154 500 -161 l 553 -246 q 486 -279 526 -267 q 413 -292 446 -292 m 386 149 q 481 201 449 149 q 513 344 513 254 q 481 488 513 435 q 386 540 449 540 q 291 488 322 540 q 260 344 260 435 q 291 201 260 254 q 386 149 322 149 z "},"ŕ":{"ha":553,"x_min":90,"x_max":608,"o":"m 90 0 l 90 689 l 257 689 l 271 568 l 276 568 q 367 672 314 639 q 472 706 419 706 q 520 702 501 706 q 554 692 539 699 l 521 515 q 485 524 501 521 q 446 526 468 526 q 365 499 407 526 q 294 400 322 471 l 294 0 l 90 0 m 357 794 l 257 894 l 471 1147 l 608 1013 l 357 794 z "},"ŗ":{"ha":553,"x_min":35,"x_max":554,"o":"m 90 0 l 90 689 l 257 689 l 271 568 l 276 568 q 367 672 314 639 q 472 706 419 706 q 520 702 501 706 q 554 692 539 699 l 521 515 q 485 524 501 521 q 446 526 468 526 q 365 499 407 526 q 294 400 322 471 l 294 0 l 90 0 m 50 -332 l 35 -250 q 147 -233 117 -246 q 178 -196 178 -219 q 157 -164 178 -176 q 89 -147 136 -151 l 128 -72 q 281 -110 239 -82 q 324 -189 324 -137 q 252 -294 324 -260 q 50 -332 181 -328 z "},"ř":{"ha":553,"x_min":89,"x_max":597,"o":"m 90 0 l 90 689 l 257 689 l 271 568 l 276 568 q 367 672 314 639 q 472 706 419 706 q 520 702 501 706 q 554 692 539 699 l 521 515 q 485 524 501 521 q 446 526 468 526 q 365 499 407 526 q 294 400 322 471 l 294 0 l 90 0 m 239 801 l 89 983 l 167 1056 l 340 928 l 346 928 l 519 1056 l 597 983 l 447 801 l 239 801 z "},"ṙ":{"ha":553,"x_min":90,"x_max":554,"o":"m 90 0 l 90 689 l 257 689 l 271 568 l 276 568 q 367 672 314 639 q 472 706 419 706 q 520 702 501 706 q 554 692 539 699 l 521 515 q 485 524 501 521 q 446 526 468 526 q 365 499 407 526 q 294 400 322 471 l 294 0 l 90 0 m 342 790 q 260 820 292 790 q 229 897 229 850 q 260 974 229 944 q 342 1004 292 1004 q 423 974 392 1004 q 454 897 454 944 q 423 820 454 850 q 342 790 392 790 z "},"ṛ":{"ha":553,"x_min":79,"x_max":554,"o":"m 90 0 l 90 689 l 257 689 l 271 568 l 276 568 q 367 672 314 639 q 472 706 419 706 q 520 702 501 706 q 554 692 539 699 l 521 515 q 485 524 501 521 q 446 526 468 526 q 365 499 407 526 q 294 400 322 471 l 294 0 l 90 0 m 192 -312 q 110 -283 142 -312 q 79 -206 79 -253 q 110 -128 79 -158 q 192 -99 142 -99 q 273 -128 242 -99 q 304 -206 304 -158 q 273 -283 304 -253 q 192 -312 242 -312 z "},"ṝ":{"ha":553,"x_min":79,"x_max":554,"o":"m 90 0 l 90 689 l 257 689 l 271 568 l 276 568 q 367 672 314 639 q 472 706 419 706 q 520 702 501 706 q 554 692 539 699 l 521 515 q 485 524 501 521 q 446 526 468 526 q 365 499 407 526 q 294 400 322 471 l 294 0 l 90 0 m 138 822 l 138 951 l 549 951 l 549 822 l 138 822 m 192 -312 q 110 -283 142 -312 q 79 -206 79 -253 q 110 -128 79 -158 q 192 -99 142 -99 q 273 -128 242 -99 q 304 -206 304 -158 q 273 -283 304 -253 q 192 -312 242 -312 z "},"ṟ":{"ha":553,"x_min":-14,"x_max":554,"o":"m 90 0 l 90 689 l 257 689 l 271 568 l 276 568 q 367 672 314 639 q 472 706 419 706 q 520 702 501 706 q 554 692 539 699 l 521 515 q 485 524 501 521 q 446 526 468 526 q 365 499 407 526 q 294 400 322 471 l 294 0 l 90 0 m -14 -260 l -14 -131 l 397 -131 l 397 -260 l -14 -260 z "},"ś":{"ha":615,"x_min":29,"x_max":592,"o":"m 293 -17 q 153 10 225 -17 q 29 79 82 36 l 121 207 q 211 153 168 171 q 299 135 254 135 q 365 150 344 135 q 386 193 386 165 q 374 223 386 210 q 342 247 363 236 q 297 267 322 258 q 246 288 272 276 q 182 317 214 300 q 124 358 150 333 q 81 415 97 382 q 64 490 64 447 q 83 578 64 538 q 136 646 101 618 q 219 690 171 674 q 328 706 268 706 q 467 678 407 706 q 571 618 526 651 l 479 496 q 406 539 442 524 q 333 554 369 554 q 256 500 256 554 q 267 472 256 483 q 297 450 278 460 q 340 431 315 440 q 390 413 364 422 q 456 384 424 400 q 516 344 489 368 q 560 287 543 321 q 576 206 576 253 q 558 118 576 158 q 504 48 540 78 q 415 1 468 18 q 293 -17 363 -17 m 340 794 l 240 894 l 454 1147 l 592 1013 l 340 794 z "}}}
